%TF.GenerationSoftware,KiCad,Pcbnew,6.0.2+dfsg-1*%
%TF.CreationDate,2022-09-14T20:22:00+02:00*%
%TF.ProjectId,interface_board,696e7465-7266-4616-9365-5f626f617264,rev?*%
%TF.SameCoordinates,Original*%
%TF.FileFunction,Soldermask,Top*%
%TF.FilePolarity,Negative*%
%FSLAX46Y46*%
G04 Gerber Fmt 4.6, Leading zero omitted, Abs format (unit mm)*
G04 Created by KiCad (PCBNEW 6.0.2+dfsg-1) date 2022-09-14 20:22:00*
%MOMM*%
%LPD*%
G01*
G04 APERTURE LIST*
G04 Aperture macros list*
%AMRoundRect*
0 Rectangle with rounded corners*
0 $1 Rounding radius*
0 $2 $3 $4 $5 $6 $7 $8 $9 X,Y pos of 4 corners*
0 Add a 4 corners polygon primitive as box body*
4,1,4,$2,$3,$4,$5,$6,$7,$8,$9,$2,$3,0*
0 Add four circle primitives for the rounded corners*
1,1,$1+$1,$2,$3*
1,1,$1+$1,$4,$5*
1,1,$1+$1,$6,$7*
1,1,$1+$1,$8,$9*
0 Add four rect primitives between the rounded corners*
20,1,$1+$1,$2,$3,$4,$5,0*
20,1,$1+$1,$4,$5,$6,$7,0*
20,1,$1+$1,$6,$7,$8,$9,0*
20,1,$1+$1,$8,$9,$2,$3,0*%
G04 Aperture macros list end*
%TA.AperFunction,Profile*%
%ADD10C,0.100000*%
%TD*%
%ADD11RoundRect,0.250000X-0.475000X0.337500X-0.475000X-0.337500X0.475000X-0.337500X0.475000X0.337500X0*%
%ADD12RoundRect,0.250000X0.450000X-0.350000X0.450000X0.350000X-0.450000X0.350000X-0.450000X-0.350000X0*%
%ADD13RoundRect,0.150000X0.825000X0.150000X-0.825000X0.150000X-0.825000X-0.150000X0.825000X-0.150000X0*%
%ADD14RoundRect,0.250000X-0.600000X0.600000X-0.600000X-0.600000X0.600000X-0.600000X0.600000X0.600000X0*%
%ADD15C,1.700000*%
%ADD16RoundRect,0.250000X0.337500X0.475000X-0.337500X0.475000X-0.337500X-0.475000X0.337500X-0.475000X0*%
%ADD17RoundRect,0.150000X-0.150000X0.825000X-0.150000X-0.825000X0.150000X-0.825000X0.150000X0.825000X0*%
%ADD18RoundRect,0.250000X0.325000X0.450000X-0.325000X0.450000X-0.325000X-0.450000X0.325000X-0.450000X0*%
%ADD19C,1.981200*%
%ADD20C,2.794000*%
%ADD21R,1.500000X1.500000*%
%ADD22C,1.500000*%
%ADD23R,1.700000X1.700000*%
%ADD24O,1.700000X1.700000*%
G04 APERTURE END LIST*
D10*
X93215000Y-97409000D02*
X106169000Y-97409000D01*
X157477000Y-116205000D02*
X157477000Y-102997000D01*
X195577000Y-102997000D02*
X204721000Y-102997000D01*
X204721000Y-74803000D02*
X204721000Y-102997000D01*
X157477000Y-116205000D02*
X93215000Y-116205000D01*
X106169000Y-97409000D02*
X106169000Y-74803000D01*
X93215000Y-116205000D02*
X93215000Y-97409000D01*
X106169000Y-74803000D02*
X204721000Y-74803000D01*
X195577000Y-102997000D02*
X195577000Y-102997000D01*
X157477000Y-102997000D02*
X195577000Y-102997000D01*
D11*
%TO.C,C2*%
X119377000Y-101981000D03*
X119377000Y-104056000D03*
%TD*%
D12*
%TO.C,R23*%
X98930000Y-109823000D03*
X98930000Y-107823000D03*
%TD*%
D13*
%TO.C,U1*%
X136141000Y-89789000D03*
X136141000Y-88519000D03*
X136141000Y-87249000D03*
X136141000Y-85979000D03*
X136141000Y-84709000D03*
X136141000Y-83439000D03*
X136141000Y-82169000D03*
X131191000Y-82169000D03*
X131191000Y-83439000D03*
X131191000Y-84709000D03*
X131191000Y-85979000D03*
X131191000Y-87249000D03*
X131191000Y-88519000D03*
X131191000Y-89789000D03*
%TD*%
D14*
%TO.C,J4*%
X185671000Y-79629000D03*
D15*
X185671000Y-82169000D03*
X183131000Y-79629000D03*
X183131000Y-82169000D03*
X180591000Y-79629000D03*
X180591000Y-82169000D03*
X178051000Y-79629000D03*
X178051000Y-82169000D03*
X175511000Y-79629000D03*
X175511000Y-82169000D03*
X172971000Y-79629000D03*
X172971000Y-82169000D03*
X170431000Y-79629000D03*
X170431000Y-82169000D03*
X167891000Y-79629000D03*
X167891000Y-82169000D03*
X165351000Y-79629000D03*
X165351000Y-82169000D03*
X162811000Y-79629000D03*
X162811000Y-82169000D03*
X160271000Y-79629000D03*
X160271000Y-82169000D03*
X157731000Y-79629000D03*
X157731000Y-82169000D03*
X155191000Y-79629000D03*
X155191000Y-82169000D03*
X152651000Y-79629000D03*
X152651000Y-82169000D03*
X150111000Y-79629000D03*
X150111000Y-82169000D03*
X147571000Y-79629000D03*
X147571000Y-82169000D03*
X145031000Y-79629000D03*
X145031000Y-82169000D03*
%TD*%
D16*
%TO.C,C1*%
X131191000Y-91821000D03*
X129116000Y-91821000D03*
%TD*%
D11*
%TO.C,C4*%
X173733000Y-94996000D03*
X173733000Y-97071000D03*
%TD*%
D12*
%TO.C,R22*%
X96390000Y-109823000D03*
X96390000Y-107823000D03*
%TD*%
D17*
%TO.C,U2*%
X117345000Y-97013780D03*
X116075000Y-97013780D03*
X114805000Y-97013780D03*
X113535000Y-97013780D03*
X112265000Y-97013780D03*
X110995000Y-97013780D03*
X109725000Y-97013780D03*
X109725000Y-101963780D03*
X110995000Y-101963780D03*
X112265000Y-101963780D03*
X113535000Y-101963780D03*
X114805000Y-101963780D03*
X116075000Y-101963780D03*
X117345000Y-101963780D03*
%TD*%
D12*
%TO.C,R20*%
X173733000Y-101203000D03*
X173733000Y-99203000D03*
%TD*%
D18*
%TO.C,D_ACT1*%
X105425000Y-104013000D03*
X103375000Y-104013000D03*
%TD*%
D11*
%TO.C,C3*%
X154175000Y-92780520D03*
X154175000Y-94855520D03*
%TD*%
D17*
%TO.C,U4*%
X152026480Y-90043000D03*
X150756480Y-90043000D03*
X149486480Y-90043000D03*
X148216480Y-90043000D03*
X146946480Y-90043000D03*
X145676480Y-90043000D03*
X144406480Y-90043000D03*
X144406480Y-94993000D03*
X145676480Y-94993000D03*
X146946480Y-94993000D03*
X148216480Y-94993000D03*
X149486480Y-94993000D03*
X150756480Y-94993000D03*
X152026480Y-94993000D03*
%TD*%
%TO.C,U3*%
X171701000Y-90043000D03*
X170431000Y-90043000D03*
X169161000Y-90043000D03*
X167891000Y-90043000D03*
X166621000Y-90043000D03*
X165351000Y-90043000D03*
X164081000Y-90043000D03*
X164081000Y-94993000D03*
X165351000Y-94993000D03*
X166621000Y-94993000D03*
X167891000Y-94993000D03*
X169161000Y-94993000D03*
X170431000Y-94993000D03*
X171701000Y-94993000D03*
%TD*%
D19*
%TO.C,J3*%
X114805000Y-77597000D03*
X119885000Y-77597000D03*
X117345000Y-92837000D03*
X124965000Y-87757000D03*
X122425000Y-90297000D03*
X117345000Y-87757000D03*
X112265000Y-90297000D03*
X109725000Y-87757000D03*
D20*
X124965000Y-82677000D03*
X109725000Y-82677000D03*
%TD*%
D21*
%TO.C,Q1*%
X183385000Y-89281000D03*
D22*
X180845000Y-89281000D03*
X178305000Y-89281000D03*
%TD*%
D18*
%TO.C,D_PWR1*%
X105425000Y-101219000D03*
X103375000Y-101219000D03*
%TD*%
D23*
%TO.C,J2*%
X203197000Y-98679000D03*
D24*
X203197000Y-96139000D03*
X203197000Y-93599000D03*
X203197000Y-91059000D03*
X203197000Y-88519000D03*
X203197000Y-85979000D03*
X203197000Y-83439000D03*
X203197000Y-80899000D03*
X203197000Y-78359000D03*
%TD*%
D23*
%TO.C,J1*%
X102105000Y-111125000D03*
D24*
X102105000Y-108585000D03*
X104645000Y-111125000D03*
X104645000Y-108585000D03*
X107185000Y-111125000D03*
X107185000Y-108585000D03*
X109725000Y-111125000D03*
X109725000Y-108585000D03*
X112265000Y-111125000D03*
X112265000Y-108585000D03*
X114805000Y-111125000D03*
X114805000Y-108585000D03*
X117345000Y-111125000D03*
X117345000Y-108585000D03*
X119885000Y-111125000D03*
X119885000Y-108585000D03*
X122425000Y-111125000D03*
X122425000Y-108585000D03*
X124965000Y-111125000D03*
X124965000Y-108585000D03*
X127505000Y-111125000D03*
X127505000Y-108585000D03*
X130045000Y-111125000D03*
X130045000Y-108585000D03*
X132585000Y-111125000D03*
X132585000Y-108585000D03*
X135125000Y-111125000D03*
X135125000Y-108585000D03*
X137665000Y-111125000D03*
X137665000Y-108585000D03*
X140205000Y-111125000D03*
X140205000Y-108585000D03*
X142745000Y-111125000D03*
X142745000Y-108585000D03*
X145285000Y-111125000D03*
X145285000Y-108585000D03*
X147825000Y-111125000D03*
X147825000Y-108585000D03*
X150365000Y-111125000D03*
X150365000Y-108585000D03*
X152905000Y-111125000D03*
X152905000Y-108585000D03*
X155445000Y-111125000D03*
X155445000Y-108585000D03*
%TD*%
M02*
