%TF.GenerationSoftware,KiCad,Pcbnew,6.0.2+dfsg-1*%
%TF.CreationDate,2022-09-14T20:22:00+02:00*%
%TF.ProjectId,interface_board,696e7465-7266-4616-9365-5f626f617264,rev?*%
%TF.SameCoordinates,Original*%
%TF.FileFunction,Copper,L2,Bot*%
%TF.FilePolarity,Positive*%
%FSLAX46Y46*%
G04 Gerber Fmt 4.6, Leading zero omitted, Abs format (unit mm)*
G04 Created by KiCad (PCBNEW 6.0.2+dfsg-1) date 2022-09-14 20:22:00*
%MOMM*%
%LPD*%
G01*
G04 APERTURE LIST*
G04 Aperture macros list*
%AMRoundRect*
0 Rectangle with rounded corners*
0 $1 Rounding radius*
0 $2 $3 $4 $5 $6 $7 $8 $9 X,Y pos of 4 corners*
0 Add a 4 corners polygon primitive as box body*
4,1,4,$2,$3,$4,$5,$6,$7,$8,$9,$2,$3,0*
0 Add four circle primitives for the rounded corners*
1,1,$1+$1,$2,$3*
1,1,$1+$1,$4,$5*
1,1,$1+$1,$6,$7*
1,1,$1+$1,$8,$9*
0 Add four rect primitives between the rounded corners*
20,1,$1+$1,$2,$3,$4,$5,0*
20,1,$1+$1,$4,$5,$6,$7,0*
20,1,$1+$1,$6,$7,$8,$9,0*
20,1,$1+$1,$8,$9,$2,$3,0*%
G04 Aperture macros list end*
%TA.AperFunction,Profile*%
%ADD10C,0.100000*%
%TD*%
%TA.AperFunction,ComponentPad*%
%ADD11RoundRect,0.250000X-0.600000X0.600000X-0.600000X-0.600000X0.600000X-0.600000X0.600000X0.600000X0*%
%TD*%
%TA.AperFunction,ComponentPad*%
%ADD12C,1.700000*%
%TD*%
%TA.AperFunction,ComponentPad*%
%ADD13C,1.981200*%
%TD*%
%TA.AperFunction,ComponentPad*%
%ADD14R,1.500000X1.500000*%
%TD*%
%TA.AperFunction,ComponentPad*%
%ADD15C,1.500000*%
%TD*%
%TA.AperFunction,SMDPad,CuDef*%
%ADD16RoundRect,0.250000X0.450000X-0.350000X0.450000X0.350000X-0.450000X0.350000X-0.450000X-0.350000X0*%
%TD*%
%TA.AperFunction,ComponentPad*%
%ADD17R,1.700000X1.700000*%
%TD*%
%TA.AperFunction,ComponentPad*%
%ADD18O,1.700000X1.700000*%
%TD*%
%TA.AperFunction,ViaPad*%
%ADD19C,0.800000*%
%TD*%
%TA.AperFunction,Conductor*%
%ADD20C,0.508000*%
%TD*%
%TA.AperFunction,Conductor*%
%ADD21C,0.250000*%
%TD*%
G04 APERTURE END LIST*
D10*
X93215000Y-97409000D02*
X106169000Y-97409000D01*
X157477000Y-116205000D02*
X157477000Y-102997000D01*
X195577000Y-102997000D02*
X204721000Y-102997000D01*
X204721000Y-74803000D02*
X204721000Y-102997000D01*
X157477000Y-116205000D02*
X93215000Y-116205000D01*
X106169000Y-97409000D02*
X106169000Y-74803000D01*
X93215000Y-116205000D02*
X93215000Y-97409000D01*
X106169000Y-74803000D02*
X204721000Y-74803000D01*
X195577000Y-102997000D02*
X195577000Y-102997000D01*
X157477000Y-102997000D02*
X195577000Y-102997000D01*
D11*
%TO.P,J4,1,Pin_1*%
%TO.N,unconnected-(J4-Pad1)*%
X185671000Y-79629000D03*
D12*
%TO.P,J4,2,Pin_2*%
%TO.N,/IBM PC floppy interface/~{REDWC}*%
X185671000Y-82169000D03*
%TO.P,J4,3,Pin_3*%
%TO.N,unconnected-(J4-Pad3)*%
X183131000Y-79629000D03*
%TO.P,J4,4,Pin_4*%
%TO.N,unconnected-(J4-Pad4)*%
X183131000Y-82169000D03*
%TO.P,J4,5,Pin_5*%
%TO.N,GND*%
X180591000Y-79629000D03*
%TO.P,J4,6,Pin_6*%
%TO.N,unconnected-(J4-Pad6)*%
X180591000Y-82169000D03*
%TO.P,J4,7,Pin_7*%
%TO.N,GND*%
X178051000Y-79629000D03*
%TO.P,J4,8,Pin_8*%
%TO.N,/IBM PC floppy interface/~{INDEX}*%
X178051000Y-82169000D03*
%TO.P,J4,9,Pin_9*%
%TO.N,GND*%
X175511000Y-79629000D03*
%TO.P,J4,10,Pin_10*%
%TO.N,/IBM PC floppy interface/~{MOTEA}*%
X175511000Y-82169000D03*
%TO.P,J4,11,Pin_11*%
%TO.N,GND*%
X172971000Y-79629000D03*
%TO.P,J4,12,Pin_12*%
%TO.N,/IBM PC floppy interface/~{DRVSB}*%
X172971000Y-82169000D03*
%TO.P,J4,13,Pin_13*%
%TO.N,GND*%
X170431000Y-79629000D03*
%TO.P,J4,14,Pin_14*%
%TO.N,/IBM PC floppy interface/~{DRVSA}*%
X170431000Y-82169000D03*
%TO.P,J4,15,Pin_15*%
%TO.N,GND*%
X167891000Y-79629000D03*
%TO.P,J4,16,Pin_16*%
%TO.N,/IBM PC floppy interface/~{MOTEB}*%
X167891000Y-82169000D03*
%TO.P,J4,17,Pin_17*%
%TO.N,GND*%
X165351000Y-79629000D03*
%TO.P,J4,18,Pin_18*%
%TO.N,/IBM PC floppy interface/~{DIR}*%
X165351000Y-82169000D03*
%TO.P,J4,19,Pin_19*%
%TO.N,GND*%
X162811000Y-79629000D03*
%TO.P,J4,20,Pin_20*%
%TO.N,/IBM PC floppy interface/~{STEP}*%
X162811000Y-82169000D03*
%TO.P,J4,21,Pin_21*%
%TO.N,GND*%
X160271000Y-79629000D03*
%TO.P,J4,22,Pin_22*%
%TO.N,/IBM PC floppy interface/~{WDATE}*%
X160271000Y-82169000D03*
%TO.P,J4,23,Pin_23*%
%TO.N,GND*%
X157731000Y-79629000D03*
%TO.P,J4,24,Pin_24*%
%TO.N,/IBM PC floppy interface/~{WGATE}*%
X157731000Y-82169000D03*
%TO.P,J4,25,Pin_25*%
%TO.N,GND*%
X155191000Y-79629000D03*
%TO.P,J4,26,Pin_26*%
%TO.N,/IBM PC floppy interface/~{TRK00}*%
X155191000Y-82169000D03*
%TO.P,J4,27,Pin_27*%
%TO.N,GND*%
X152651000Y-79629000D03*
%TO.P,J4,28,Pin_28*%
%TO.N,/IBM PC floppy interface/~{WPT}*%
X152651000Y-82169000D03*
%TO.P,J4,29,Pin_29*%
%TO.N,GND*%
X150111000Y-79629000D03*
%TO.P,J4,30,Pin_30*%
%TO.N,/IBM PC floppy interface/~{RDATA}*%
X150111000Y-82169000D03*
%TO.P,J4,31,Pin_31*%
%TO.N,GND*%
X147571000Y-79629000D03*
%TO.P,J4,32,Pin_32*%
%TO.N,/IBM PC floppy interface/~{SIDE1}*%
X147571000Y-82169000D03*
%TO.P,J4,33,Pin_33*%
%TO.N,GND*%
X145031000Y-79629000D03*
%TO.P,J4,34,Pin_34*%
%TO.N,/IBM PC floppy interface/~{DSKCHG}*%
X145031000Y-82169000D03*
%TD*%
D13*
%TO.P,J3,PE@*%
%TO.N,N/C*%
X114805000Y-77597000D03*
%TO.P,J3,PE*%
X119885000Y-77597000D03*
%TO.P,J3,6*%
%TO.N,/Serial interface/~{RESET}*%
X117345000Y-92837000D03*
%TO.P,J3,5*%
%TO.N,/Serial interface/~{DATA}*%
X124965000Y-87757000D03*
%TO.P,J3,4*%
%TO.N,/Serial interface/~{CLK}*%
X122425000Y-90297000D03*
%TO.P,J3,3*%
%TO.N,/Serial interface/~{ATN}*%
X117345000Y-87757000D03*
%TO.P,J3,2*%
%TO.N,GND*%
X112265000Y-90297000D03*
%TO.P,J3,1*%
%TO.N,/Serial interface/~{SRQ}*%
X109725000Y-87757000D03*
%TD*%
D14*
%TO.P,Q1,1,C*%
%TO.N,/IBM PC floppy interface/~{REDWC}*%
X183385000Y-89281000D03*
D15*
%TO.P,Q1,2,B*%
%TO.N,Net-(Q1-Pad2)*%
X180845000Y-89281000D03*
%TO.P,Q1,3,E*%
%TO.N,GND*%
X178305000Y-89281000D03*
%TD*%
D16*
%TO.P,R7,1*%
%TO.N,+5V*%
X172971000Y-86979000D03*
%TO.P,R7,2*%
%TO.N,/IBM PC floppy interface/~{DRVSB}*%
X172971000Y-84979000D03*
%TD*%
%TO.P,R4,1*%
%TO.N,+5V*%
X117345000Y-97631000D03*
%TO.P,R4,2*%
%TO.N,/Serial interface/~{RESET}*%
X117345000Y-95631000D03*
%TD*%
%TO.P,R10,1*%
%TO.N,+5V*%
X165351000Y-86979000D03*
%TO.P,R10,2*%
%TO.N,/IBM PC floppy interface/~{DIR}*%
X165351000Y-84979000D03*
%TD*%
D17*
%TO.P,J2,1,Pin_1*%
%TO.N,GND*%
X203197000Y-98679000D03*
D18*
%TO.P,J2,2,Pin_2*%
%TO.N,+5V*%
X203197000Y-96139000D03*
%TO.P,J2,3,Pin_3*%
%TO.N,unconnected-(J2-Pad3)*%
X203197000Y-93599000D03*
%TO.P,J2,4,Pin_4*%
%TO.N,unconnected-(J2-Pad4)*%
X203197000Y-91059000D03*
%TO.P,J2,5,Pin_5*%
%TO.N,unconnected-(J2-Pad5)*%
X203197000Y-88519000D03*
%TO.P,J2,6,Pin_6*%
%TO.N,unconnected-(J2-Pad6)*%
X203197000Y-85979000D03*
%TO.P,J2,7,Pin_7*%
%TO.N,unconnected-(J2-Pad7)*%
X203197000Y-83439000D03*
%TO.P,J2,8,Pin_8*%
%TO.N,unconnected-(J2-Pad8)*%
X203197000Y-80899000D03*
%TO.P,J2,9,Pin_9*%
%TO.N,unconnected-(J2-Pad9)*%
X203197000Y-78359000D03*
%TD*%
D16*
%TO.P,R15,1*%
%TO.N,+5V*%
X152651000Y-86979000D03*
%TO.P,R15,2*%
%TO.N,/IBM PC floppy interface/~{WPT}*%
X152651000Y-84979000D03*
%TD*%
%TO.P,R11,1*%
%TO.N,+5V*%
X162811000Y-86979000D03*
%TO.P,R11,2*%
%TO.N,/IBM PC floppy interface/~{STEP}*%
X162811000Y-84979000D03*
%TD*%
%TO.P,R8,1*%
%TO.N,+5V*%
X170431000Y-86979000D03*
%TO.P,R8,2*%
%TO.N,/IBM PC floppy interface/~{DRVSA}*%
X170431000Y-84979000D03*
%TD*%
%TO.P,R2,1*%
%TO.N,+5V*%
X122425000Y-97631000D03*
%TO.P,R2,2*%
%TO.N,/Serial interface/~{CLK}*%
X122425000Y-95631000D03*
%TD*%
%TO.P,R17,1*%
%TO.N,+5V*%
X145031000Y-86979000D03*
%TO.P,R17,2*%
%TO.N,/IBM PC floppy interface/~{DSKCHG}*%
X145031000Y-84979000D03*
%TD*%
%TO.P,R19,1*%
%TO.N,+5V*%
X147571000Y-86979000D03*
%TO.P,R19,2*%
%TO.N,/IBM PC floppy interface/~{SIDE1}*%
X147571000Y-84979000D03*
%TD*%
%TO.P,R3,1*%
%TO.N,+5V*%
X124965000Y-97631000D03*
%TO.P,R3,2*%
%TO.N,/Serial interface/~{DATA}*%
X124965000Y-95631000D03*
%TD*%
D17*
%TO.P,J1,1,Pin_1*%
%TO.N,+3V3*%
X102105000Y-111125000D03*
D18*
%TO.P,J1,2,Pin_2*%
X102105000Y-108585000D03*
%TO.P,J1,3,Pin_3*%
%TO.N,unconnected-(J1-Pad3)*%
X104645000Y-111125000D03*
%TO.P,J1,4,Pin_4*%
%TO.N,unconnected-(J1-Pad4)*%
X104645000Y-108585000D03*
%TO.P,J1,5,Pin_5*%
%TO.N,/ACTION*%
X107185000Y-111125000D03*
%TO.P,J1,6,Pin_6*%
%TO.N,/PWR*%
X107185000Y-108585000D03*
%TO.P,J1,7,Pin_7*%
%TO.N,/ATN_IN*%
X109725000Y-111125000D03*
%TO.P,J1,8,Pin_8*%
%TO.N,/SQR_IN*%
X109725000Y-108585000D03*
%TO.P,J1,9,Pin_9*%
%TO.N,/CLK_IN*%
X112265000Y-111125000D03*
%TO.P,J1,10,Pin_10*%
%TO.N,/RESET_IN*%
X112265000Y-108585000D03*
%TO.P,J1,11,Pin_11*%
%TO.N,unconnected-(J1-Pad11)*%
X114805000Y-111125000D03*
%TO.P,J1,12,Pin_12*%
%TO.N,/DATA_IN*%
X114805000Y-108585000D03*
%TO.P,J1,13,Pin_13*%
%TO.N,GND*%
X117345000Y-111125000D03*
%TO.P,J1,14,Pin_14*%
X117345000Y-108585000D03*
%TO.P,J1,15,Pin_15*%
%TO.N,/CLK_OUT*%
X119885000Y-111125000D03*
%TO.P,J1,16,Pin_16*%
%TO.N,/DATA_OUT*%
X119885000Y-108585000D03*
%TO.P,J1,17,Pin_17*%
%TO.N,/WDATE*%
X122425000Y-111125000D03*
%TO.P,J1,18,Pin_18*%
%TO.N,/SRQ_OUT*%
X122425000Y-108585000D03*
%TO.P,J1,19,Pin_19*%
%TO.N,/SIDE1*%
X124965000Y-111125000D03*
%TO.P,J1,20,Pin_20*%
%TO.N,/WGATE*%
X124965000Y-108585000D03*
%TO.P,J1,21,Pin_21*%
%TO.N,GND*%
X127505000Y-111125000D03*
%TO.P,J1,22,Pin_22*%
X127505000Y-108585000D03*
%TO.P,J1,23,Pin_23*%
%TO.N,/RDATA*%
X130045000Y-111125000D03*
%TO.P,J1,24,Pin_24*%
%TO.N,/DSKCHG*%
X130045000Y-108585000D03*
%TO.P,J1,25,Pin_25*%
%TO.N,/TRK00*%
X132585000Y-111125000D03*
%TO.P,J1,26,Pin_26*%
%TO.N,/WPT*%
X132585000Y-108585000D03*
%TO.P,J1,27,Pin_27*%
%TO.N,/INDEX*%
X135125000Y-111125000D03*
%TO.P,J1,28,Pin_28*%
%TO.N,/REDWC_IN*%
X135125000Y-108585000D03*
%TO.P,J1,29,Pin_29*%
%TO.N,GND*%
X137665000Y-111125000D03*
%TO.P,J1,30,Pin_30*%
X137665000Y-108585000D03*
%TO.P,J1,31,Pin_31*%
%TO.N,unconnected-(J1-Pad31)*%
X140205000Y-111125000D03*
%TO.P,J1,32,Pin_32*%
%TO.N,/STEP*%
X140205000Y-108585000D03*
%TO.P,J1,33,Pin_33*%
%TO.N,unconnected-(J1-Pad33)*%
X142745000Y-111125000D03*
%TO.P,J1,34,Pin_34*%
%TO.N,unconnected-(J1-Pad34)*%
X142745000Y-108585000D03*
%TO.P,J1,35,Pin_35*%
%TO.N,unconnected-(J1-Pad35)*%
X145285000Y-111125000D03*
%TO.P,J1,36,Pin_36*%
%TO.N,unconnected-(J1-Pad36)*%
X145285000Y-108585000D03*
%TO.P,J1,37,Pin_37*%
%TO.N,GND*%
X147825000Y-111125000D03*
%TO.P,J1,38,Pin_38*%
X147825000Y-108585000D03*
%TO.P,J1,39,Pin_39*%
%TO.N,/DIR*%
X150365000Y-111125000D03*
%TO.P,J1,40,Pin_40*%
%TO.N,/MOTEB*%
X150365000Y-108585000D03*
%TO.P,J1,41,Pin_41*%
%TO.N,/DRVSA*%
X152905000Y-111125000D03*
%TO.P,J1,42,Pin_42*%
%TO.N,/DRVSB*%
X152905000Y-108585000D03*
%TO.P,J1,43,Pin_43*%
%TO.N,/MOTEA*%
X155445000Y-111125000D03*
%TO.P,J1,44,Pin_44*%
%TO.N,/REDWC_OUT*%
X155445000Y-108585000D03*
%TD*%
D16*
%TO.P,R18,1*%
%TO.N,+5V*%
X157731000Y-86979000D03*
%TO.P,R18,2*%
%TO.N,/IBM PC floppy interface/~{WGATE}*%
X157731000Y-84979000D03*
%TD*%
%TO.P,R12,1*%
%TO.N,+5V*%
X160271000Y-86979000D03*
%TO.P,R12,2*%
%TO.N,/IBM PC floppy interface/~{WDATE}*%
X160271000Y-84979000D03*
%TD*%
%TO.P,R9,1*%
%TO.N,+5V*%
X167891000Y-86979000D03*
%TO.P,R9,2*%
%TO.N,/IBM PC floppy interface/~{MOTEB}*%
X167891000Y-84979000D03*
%TD*%
%TO.P,R16,1*%
%TO.N,+5V*%
X150111000Y-86979000D03*
%TO.P,R16,2*%
%TO.N,/IBM PC floppy interface/~{RDATA}*%
X150111000Y-84979000D03*
%TD*%
%TO.P,R13,1*%
%TO.N,+5V*%
X178051000Y-86979000D03*
%TO.P,R13,2*%
%TO.N,/IBM PC floppy interface/~{INDEX}*%
X178051000Y-84979000D03*
%TD*%
%TO.P,R1,1*%
%TO.N,+5V*%
X114805000Y-97631000D03*
%TO.P,R1,2*%
%TO.N,/Serial interface/~{SRQ}*%
X114805000Y-95631000D03*
%TD*%
%TO.P,R6,1*%
%TO.N,+5V*%
X175511000Y-86979000D03*
%TO.P,R6,2*%
%TO.N,/IBM PC floppy interface/~{MOTEA}*%
X175511000Y-84979000D03*
%TD*%
%TO.P,R21,1*%
%TO.N,+5V*%
X185671000Y-86963000D03*
%TO.P,R21,2*%
%TO.N,/IBM PC floppy interface/~{REDWC}*%
X185671000Y-84963000D03*
%TD*%
%TO.P,R5,1*%
%TO.N,+5V*%
X119885000Y-97631000D03*
%TO.P,R5,2*%
%TO.N,/Serial interface/~{ATN}*%
X119885000Y-95631000D03*
%TD*%
%TO.P,R14,1*%
%TO.N,+5V*%
X155191000Y-86979000D03*
%TO.P,R14,2*%
%TO.N,/IBM PC floppy interface/~{TRK00}*%
X155191000Y-84979000D03*
%TD*%
D19*
%TO.N,+3V3*%
X118615000Y-100203000D03*
X154175000Y-91059000D03*
%TO.N,+5V*%
X172971000Y-92837000D03*
X129029000Y-89789000D03*
%TO.N,/IBM PC floppy interface/~{REDWC}*%
X156461000Y-83693000D03*
%TD*%
D20*
%TO.N,+3V3*%
X118615000Y-100203000D02*
X145031000Y-100203000D01*
X145031000Y-100203000D02*
X154175000Y-91059000D01*
%TO.N,+5V*%
X124965000Y-97631000D02*
X126651000Y-97631000D01*
X126651000Y-97631000D02*
X129029000Y-95253000D01*
X129029000Y-95253000D02*
X129029000Y-89789000D01*
%TO.N,+3V3*%
X102105000Y-108585000D02*
X102105000Y-106299000D01*
X108201000Y-100203000D02*
X118615000Y-100203000D01*
X102105000Y-111125000D02*
X102105000Y-108585000D01*
X102105000Y-106299000D02*
X108201000Y-100203000D01*
%TO.N,+5V*%
X174733000Y-86995000D02*
X174749000Y-87011000D01*
X203197000Y-96139000D02*
X194021000Y-86963000D01*
X145031000Y-86979000D02*
X178051000Y-86979000D01*
X114805000Y-97631000D02*
X124965000Y-97631000D01*
X172463000Y-86995000D02*
X174733000Y-86995000D01*
X131839000Y-86979000D02*
X145031000Y-86979000D01*
X129029000Y-89789000D02*
X131839000Y-86979000D01*
X178051000Y-86979000D02*
X185655000Y-86979000D01*
X194021000Y-86963000D02*
X185671000Y-86963000D01*
X172971000Y-86979000D02*
X172971000Y-92837000D01*
X185655000Y-86979000D02*
X185671000Y-86963000D01*
%TO.N,/Serial interface/~{SRQ}*%
X114805000Y-95631000D02*
X114805000Y-89281000D01*
X114805000Y-89281000D02*
X113281000Y-87757000D01*
X113281000Y-87757000D02*
X109725000Y-87757000D01*
%TO.N,/Serial interface/~{ATN}*%
X119885000Y-95631000D02*
X119885000Y-90297000D01*
X119885000Y-90297000D02*
X117345000Y-87757000D01*
%TO.N,/Serial interface/~{CLK}*%
X122425000Y-95631000D02*
X122425000Y-90297000D01*
%TO.N,/Serial interface/~{DATA}*%
X124965000Y-95631000D02*
X124965000Y-87757000D01*
%TO.N,/Serial interface/~{RESET}*%
X117345000Y-95631000D02*
X117345000Y-92837000D01*
D21*
%TO.N,/IBM PC floppy interface/~{REDWC}*%
X184401000Y-80899000D02*
X185671000Y-82169000D01*
X156461000Y-81407000D02*
X156969000Y-80899000D01*
X156461000Y-83693000D02*
X156461000Y-81407000D01*
D20*
X185671000Y-84963000D02*
X185671000Y-82169000D01*
D21*
X156969000Y-80899000D02*
X184401000Y-80899000D01*
D20*
%TO.N,/IBM PC floppy interface/~{INDEX}*%
X178051000Y-84979000D02*
X178051000Y-82169000D01*
%TO.N,/IBM PC floppy interface/~{MOTEA}*%
X175511000Y-84979000D02*
X175511000Y-82169000D01*
%TO.N,/IBM PC floppy interface/~{DRVSB}*%
X172971000Y-84979000D02*
X172971000Y-82169000D01*
%TO.N,/IBM PC floppy interface/~{DRVSA}*%
X170431000Y-84979000D02*
X170431000Y-82169000D01*
%TO.N,/IBM PC floppy interface/~{MOTEB}*%
X167891000Y-84979000D02*
X167891000Y-82169000D01*
%TO.N,/IBM PC floppy interface/~{DIR}*%
X165351000Y-84979000D02*
X165351000Y-82169000D01*
%TO.N,/IBM PC floppy interface/~{STEP}*%
X162811000Y-84979000D02*
X162811000Y-82169000D01*
%TO.N,/IBM PC floppy interface/~{WDATE}*%
X160271000Y-84979000D02*
X160271000Y-82169000D01*
%TO.N,/IBM PC floppy interface/~{WGATE}*%
X157731000Y-84979000D02*
X157731000Y-82169000D01*
%TO.N,/IBM PC floppy interface/~{TRK00}*%
X155191000Y-84979000D02*
X155191000Y-82169000D01*
%TO.N,/IBM PC floppy interface/~{WPT}*%
X152651000Y-84979000D02*
X152651000Y-82169000D01*
%TO.N,/IBM PC floppy interface/~{RDATA}*%
X150111000Y-84979000D02*
X150111000Y-82169000D01*
%TO.N,/IBM PC floppy interface/~{SIDE1}*%
X147571000Y-84995000D02*
X147571000Y-82185000D01*
%TO.N,/IBM PC floppy interface/~{DSKCHG}*%
X145031000Y-84979000D02*
X145031000Y-82169000D01*
%TD*%
%TA.AperFunction,Conductor*%
%TO.N,GND*%
G36*
X204155121Y-75331002D02*
G01*
X204201614Y-75384658D01*
X204213000Y-75437000D01*
X204213000Y-77170166D01*
X204192998Y-77238287D01*
X204139342Y-77284780D01*
X204069068Y-77294884D01*
X204008907Y-77269047D01*
X203955415Y-77226801D01*
X203955413Y-77226800D01*
X203951359Y-77223598D01*
X203755789Y-77115638D01*
X203750920Y-77113914D01*
X203750916Y-77113912D01*
X203550087Y-77042795D01*
X203550083Y-77042794D01*
X203545212Y-77041069D01*
X203540119Y-77040162D01*
X203540116Y-77040161D01*
X203330373Y-77002800D01*
X203330367Y-77002799D01*
X203325284Y-77001894D01*
X203251452Y-77000992D01*
X203107081Y-76999228D01*
X203107079Y-76999228D01*
X203101911Y-76999165D01*
X202881091Y-77032955D01*
X202668756Y-77102357D01*
X202470607Y-77205507D01*
X202466474Y-77208610D01*
X202466471Y-77208612D01*
X202331234Y-77310151D01*
X202291965Y-77339635D01*
X202137629Y-77501138D01*
X202011743Y-77685680D01*
X202009564Y-77690375D01*
X201955731Y-77806349D01*
X201917688Y-77888305D01*
X201857989Y-78103570D01*
X201834251Y-78325695D01*
X201834548Y-78330848D01*
X201834548Y-78330851D01*
X201844614Y-78505427D01*
X201847110Y-78548715D01*
X201848247Y-78553761D01*
X201848248Y-78553767D01*
X201865169Y-78628848D01*
X201896222Y-78766639D01*
X201939343Y-78872834D01*
X201972875Y-78955413D01*
X201980266Y-78973616D01*
X202020741Y-79039665D01*
X202057408Y-79099500D01*
X202096987Y-79164088D01*
X202243250Y-79332938D01*
X202415126Y-79475632D01*
X202485595Y-79516811D01*
X202488445Y-79518476D01*
X202537169Y-79570114D01*
X202550240Y-79639897D01*
X202523509Y-79705669D01*
X202483055Y-79739027D01*
X202470607Y-79745507D01*
X202466474Y-79748610D01*
X202466471Y-79748612D01*
X202296100Y-79876530D01*
X202291965Y-79879635D01*
X202137629Y-80041138D01*
X202011743Y-80225680D01*
X201977714Y-80298989D01*
X201936453Y-80387880D01*
X201917688Y-80428305D01*
X201857989Y-80643570D01*
X201834251Y-80865695D01*
X201834548Y-80870848D01*
X201834548Y-80870851D01*
X201842889Y-81015507D01*
X201847110Y-81088715D01*
X201848247Y-81093761D01*
X201848248Y-81093767D01*
X201872304Y-81200508D01*
X201896222Y-81306639D01*
X201980266Y-81513616D01*
X201982965Y-81518020D01*
X202082475Y-81680406D01*
X202096987Y-81704088D01*
X202243250Y-81872938D01*
X202415126Y-82015632D01*
X202485595Y-82056811D01*
X202488445Y-82058476D01*
X202537169Y-82110114D01*
X202550240Y-82179897D01*
X202523509Y-82245669D01*
X202483055Y-82279027D01*
X202470607Y-82285507D01*
X202466474Y-82288610D01*
X202466471Y-82288612D01*
X202296100Y-82416530D01*
X202291965Y-82419635D01*
X202270544Y-82442051D01*
X202146748Y-82571596D01*
X202137629Y-82581138D01*
X202134715Y-82585410D01*
X202134714Y-82585411D01*
X202086098Y-82656680D01*
X202011743Y-82765680D01*
X202001373Y-82788020D01*
X201938573Y-82923313D01*
X201917688Y-82968305D01*
X201857989Y-83183570D01*
X201834251Y-83405695D01*
X201834548Y-83410848D01*
X201834548Y-83410851D01*
X201841424Y-83530097D01*
X201847110Y-83628715D01*
X201848247Y-83633761D01*
X201848248Y-83633767D01*
X201859049Y-83681691D01*
X201896222Y-83846639D01*
X201929375Y-83928286D01*
X201970889Y-84030522D01*
X201980266Y-84053616D01*
X202096987Y-84244088D01*
X202243250Y-84412938D01*
X202415126Y-84555632D01*
X202460020Y-84581866D01*
X202488445Y-84598476D01*
X202537169Y-84650114D01*
X202550240Y-84719897D01*
X202523509Y-84785669D01*
X202483055Y-84819027D01*
X202470607Y-84825507D01*
X202466474Y-84828610D01*
X202466471Y-84828612D01*
X202296100Y-84956530D01*
X202291965Y-84959635D01*
X202137629Y-85121138D01*
X202011743Y-85305680D01*
X201976039Y-85382598D01*
X201928429Y-85485166D01*
X201917688Y-85508305D01*
X201857989Y-85723570D01*
X201834251Y-85945695D01*
X201847110Y-86168715D01*
X201848247Y-86173761D01*
X201848248Y-86173767D01*
X201867760Y-86260345D01*
X201896222Y-86386639D01*
X201980266Y-86593616D01*
X202096987Y-86784088D01*
X202243250Y-86952938D01*
X202415126Y-87095632D01*
X202442471Y-87111611D01*
X202488445Y-87138476D01*
X202537169Y-87190114D01*
X202550240Y-87259897D01*
X202523509Y-87325669D01*
X202483055Y-87359027D01*
X202470607Y-87365507D01*
X202466474Y-87368610D01*
X202466471Y-87368612D01*
X202331234Y-87470151D01*
X202291965Y-87499635D01*
X202137629Y-87661138D01*
X202011743Y-87845680D01*
X202009564Y-87850375D01*
X201920018Y-88043286D01*
X201917688Y-88048305D01*
X201857989Y-88263570D01*
X201834251Y-88485695D01*
X201834548Y-88490848D01*
X201834548Y-88490851D01*
X201843427Y-88644838D01*
X201847110Y-88708715D01*
X201848247Y-88713761D01*
X201848248Y-88713767D01*
X201867654Y-88799875D01*
X201896222Y-88926639D01*
X201950685Y-89060767D01*
X201972875Y-89115413D01*
X201980266Y-89133616D01*
X202017065Y-89193667D01*
X202091433Y-89315024D01*
X202096987Y-89324088D01*
X202243250Y-89492938D01*
X202415126Y-89635632D01*
X202444884Y-89653021D01*
X202488445Y-89678476D01*
X202537169Y-89730114D01*
X202550240Y-89799897D01*
X202523509Y-89865669D01*
X202483055Y-89899027D01*
X202470607Y-89905507D01*
X202466474Y-89908610D01*
X202466471Y-89908612D01*
X202324597Y-90015134D01*
X202291965Y-90039635D01*
X202137629Y-90201138D01*
X202134715Y-90205410D01*
X202134714Y-90205411D01*
X202080975Y-90284189D01*
X202011743Y-90385680D01*
X202009564Y-90390375D01*
X201944766Y-90529971D01*
X201917688Y-90588305D01*
X201857989Y-90803570D01*
X201834251Y-91025695D01*
X201834548Y-91030848D01*
X201834548Y-91030851D01*
X201841887Y-91158129D01*
X201847110Y-91248715D01*
X201848247Y-91253761D01*
X201848248Y-91253767D01*
X201867760Y-91340345D01*
X201896222Y-91466639D01*
X201945213Y-91587289D01*
X201972691Y-91654960D01*
X201980266Y-91673616D01*
X202016629Y-91732955D01*
X202090072Y-91852803D01*
X202096987Y-91864088D01*
X202243250Y-92032938D01*
X202415126Y-92175632D01*
X202485595Y-92216811D01*
X202488445Y-92218476D01*
X202537169Y-92270114D01*
X202550240Y-92339897D01*
X202523509Y-92405669D01*
X202483055Y-92439027D01*
X202470607Y-92445507D01*
X202466474Y-92448610D01*
X202466471Y-92448612D01*
X202331234Y-92550151D01*
X202291965Y-92579635D01*
X202137629Y-92741138D01*
X202011743Y-92925680D01*
X202009564Y-92930375D01*
X201955731Y-93046349D01*
X201917688Y-93128305D01*
X201857989Y-93343570D01*
X201857440Y-93348704D01*
X201857440Y-93348706D01*
X201849493Y-93423068D01*
X201822365Y-93488677D01*
X201764072Y-93529205D01*
X201693123Y-93531784D01*
X201635111Y-93498773D01*
X194607810Y-86471472D01*
X194595423Y-86457059D01*
X194586795Y-86445335D01*
X194582454Y-86439436D01*
X194541945Y-86405021D01*
X194534429Y-86398091D01*
X194528685Y-86392347D01*
X194525811Y-86390073D01*
X194525804Y-86390067D01*
X194506289Y-86374628D01*
X194502885Y-86371837D01*
X194452528Y-86329055D01*
X194452524Y-86329052D01*
X194446949Y-86324316D01*
X194440432Y-86320988D01*
X194435368Y-86317611D01*
X194430144Y-86314384D01*
X194424400Y-86309840D01*
X194377613Y-86287973D01*
X194357918Y-86278768D01*
X194353967Y-86276837D01*
X194317811Y-86258375D01*
X194288596Y-86243457D01*
X194281481Y-86241716D01*
X194275735Y-86239579D01*
X194269952Y-86237655D01*
X194263321Y-86234556D01*
X194191443Y-86219606D01*
X194187171Y-86218639D01*
X194115888Y-86201196D01*
X194110289Y-86200849D01*
X194110285Y-86200848D01*
X194104670Y-86200500D01*
X194104672Y-86200461D01*
X194100771Y-86200228D01*
X194096412Y-86199839D01*
X194089244Y-86198348D01*
X194081927Y-86198546D01*
X194011423Y-86200454D01*
X194008014Y-86200500D01*
X186827953Y-86200500D01*
X186759832Y-86180498D01*
X186729324Y-86149464D01*
X186727875Y-86150612D01*
X186723332Y-86144880D01*
X186719478Y-86138652D01*
X186632891Y-86052216D01*
X186598812Y-85989934D01*
X186603815Y-85919114D01*
X186632736Y-85874025D01*
X186715134Y-85791483D01*
X186720305Y-85786303D01*
X186755808Y-85728707D01*
X186809275Y-85641968D01*
X186809276Y-85641966D01*
X186813115Y-85635738D01*
X186853727Y-85513297D01*
X186866632Y-85474389D01*
X186866632Y-85474387D01*
X186868797Y-85467861D01*
X186879500Y-85363400D01*
X186879500Y-84562600D01*
X186878434Y-84552327D01*
X186869238Y-84463692D01*
X186869237Y-84463688D01*
X186868526Y-84456834D01*
X186812550Y-84289054D01*
X186719478Y-84138652D01*
X186594303Y-84013695D01*
X186588072Y-84009854D01*
X186493384Y-83951487D01*
X186445890Y-83898714D01*
X186433500Y-83844227D01*
X186433500Y-83358780D01*
X186453502Y-83290659D01*
X186486332Y-83256201D01*
X186546652Y-83213176D01*
X186546663Y-83213167D01*
X186550860Y-83210173D01*
X186709096Y-83052489D01*
X186768594Y-82969689D01*
X186836435Y-82875277D01*
X186839453Y-82871077D01*
X186860320Y-82828857D01*
X186936136Y-82675453D01*
X186936137Y-82675451D01*
X186938430Y-82670811D01*
X187003370Y-82457069D01*
X187032529Y-82235590D01*
X187034156Y-82169000D01*
X187015852Y-81946361D01*
X186961431Y-81729702D01*
X186872354Y-81524840D01*
X186751014Y-81337277D01*
X186600670Y-81172051D01*
X186558006Y-81138357D01*
X186516944Y-81080441D01*
X186513712Y-81009518D01*
X186549337Y-80948107D01*
X186582647Y-80925376D01*
X186588007Y-80922865D01*
X186594946Y-80920550D01*
X186745348Y-80827478D01*
X186870305Y-80702303D01*
X186963115Y-80551738D01*
X187018797Y-80383861D01*
X187020328Y-80368924D01*
X187029172Y-80282598D01*
X187029500Y-80279400D01*
X187029500Y-78978600D01*
X187024408Y-78929520D01*
X187019238Y-78879692D01*
X187019237Y-78879688D01*
X187018526Y-78872834D01*
X186984598Y-78771138D01*
X186964868Y-78712002D01*
X186962550Y-78705054D01*
X186869478Y-78554652D01*
X186744303Y-78429695D01*
X186738072Y-78425854D01*
X186599968Y-78340725D01*
X186599966Y-78340724D01*
X186593738Y-78336885D01*
X186433254Y-78283655D01*
X186432389Y-78283368D01*
X186432387Y-78283368D01*
X186425861Y-78281203D01*
X186419025Y-78280503D01*
X186419022Y-78280502D01*
X186367535Y-78275227D01*
X186321400Y-78270500D01*
X185020600Y-78270500D01*
X185017354Y-78270837D01*
X185017350Y-78270837D01*
X184921692Y-78280762D01*
X184921688Y-78280763D01*
X184914834Y-78281474D01*
X184908298Y-78283655D01*
X184908296Y-78283655D01*
X184845631Y-78304562D01*
X184747054Y-78337450D01*
X184596652Y-78430522D01*
X184591479Y-78435704D01*
X184535762Y-78491518D01*
X184471695Y-78555697D01*
X184467855Y-78561927D01*
X184467854Y-78561928D01*
X184422272Y-78635876D01*
X184378885Y-78706262D01*
X184376579Y-78713213D01*
X184374561Y-78717542D01*
X184327644Y-78770828D01*
X184259367Y-78790290D01*
X184191407Y-78769749D01*
X184167172Y-78749094D01*
X184064152Y-78635876D01*
X184064142Y-78635867D01*
X184060670Y-78632051D01*
X184056619Y-78628852D01*
X184056615Y-78628848D01*
X183889414Y-78496800D01*
X183889410Y-78496798D01*
X183885359Y-78493598D01*
X183689789Y-78385638D01*
X183684920Y-78383914D01*
X183684916Y-78383912D01*
X183484087Y-78312795D01*
X183484083Y-78312794D01*
X183479212Y-78311069D01*
X183474119Y-78310162D01*
X183474116Y-78310161D01*
X183264373Y-78272800D01*
X183264367Y-78272799D01*
X183259284Y-78271894D01*
X183185452Y-78270992D01*
X183041081Y-78269228D01*
X183041079Y-78269228D01*
X183035911Y-78269165D01*
X182815091Y-78302955D01*
X182602756Y-78372357D01*
X182524455Y-78413118D01*
X182482678Y-78434866D01*
X182404607Y-78475507D01*
X182400474Y-78478610D01*
X182400471Y-78478612D01*
X182230100Y-78606530D01*
X182225965Y-78609635D01*
X182170353Y-78667830D01*
X182080748Y-78761596D01*
X182071629Y-78771138D01*
X181991175Y-78889080D01*
X181963898Y-78929066D01*
X181908987Y-78974069D01*
X181838462Y-78982240D01*
X181774715Y-78950986D01*
X181754017Y-78926501D01*
X181724062Y-78880197D01*
X181713377Y-78870995D01*
X181703812Y-78875398D01*
X180680095Y-79899115D01*
X180617783Y-79933141D01*
X180546968Y-79928076D01*
X180501905Y-79899115D01*
X179480849Y-78878059D01*
X179469313Y-78871759D01*
X179457028Y-78881384D01*
X179424192Y-78929520D01*
X179369281Y-78974523D01*
X179298756Y-78982694D01*
X179235009Y-78951440D01*
X179214311Y-78926955D01*
X179184062Y-78880197D01*
X179173377Y-78870995D01*
X179163812Y-78875398D01*
X178140095Y-79899115D01*
X178077783Y-79933141D01*
X178006968Y-79928076D01*
X177961905Y-79899115D01*
X176940849Y-78878059D01*
X176929313Y-78871759D01*
X176917028Y-78881384D01*
X176884192Y-78929520D01*
X176829281Y-78974523D01*
X176758756Y-78982694D01*
X176695009Y-78951440D01*
X176674311Y-78926955D01*
X176644062Y-78880197D01*
X176633377Y-78870995D01*
X176623812Y-78875398D01*
X175600095Y-79899115D01*
X175537783Y-79933141D01*
X175466968Y-79928076D01*
X175421905Y-79899115D01*
X174400849Y-78878059D01*
X174389313Y-78871759D01*
X174377028Y-78881384D01*
X174344192Y-78929520D01*
X174289281Y-78974523D01*
X174218756Y-78982694D01*
X174155009Y-78951440D01*
X174134311Y-78926955D01*
X174104062Y-78880197D01*
X174093377Y-78870995D01*
X174083812Y-78875398D01*
X173060095Y-79899115D01*
X172997783Y-79933141D01*
X172926968Y-79928076D01*
X172881905Y-79899115D01*
X171860849Y-78878059D01*
X171849313Y-78871759D01*
X171837028Y-78881384D01*
X171804192Y-78929520D01*
X171749281Y-78974523D01*
X171678756Y-78982694D01*
X171615009Y-78951440D01*
X171594311Y-78926955D01*
X171564062Y-78880197D01*
X171553377Y-78870995D01*
X171543812Y-78875398D01*
X170520095Y-79899115D01*
X170457783Y-79933141D01*
X170386968Y-79928076D01*
X170341905Y-79899115D01*
X169320849Y-78878059D01*
X169309313Y-78871759D01*
X169297028Y-78881384D01*
X169264192Y-78929520D01*
X169209281Y-78974523D01*
X169138756Y-78982694D01*
X169075009Y-78951440D01*
X169054311Y-78926955D01*
X169024062Y-78880197D01*
X169013377Y-78870995D01*
X169003812Y-78875398D01*
X167980095Y-79899115D01*
X167917783Y-79933141D01*
X167846968Y-79928076D01*
X167801905Y-79899115D01*
X166780849Y-78878059D01*
X166769313Y-78871759D01*
X166757028Y-78881384D01*
X166724192Y-78929520D01*
X166669281Y-78974523D01*
X166598756Y-78982694D01*
X166535009Y-78951440D01*
X166514311Y-78926955D01*
X166484062Y-78880197D01*
X166473377Y-78870995D01*
X166463812Y-78875398D01*
X165440095Y-79899115D01*
X165377783Y-79933141D01*
X165306968Y-79928076D01*
X165261905Y-79899115D01*
X164240849Y-78878059D01*
X164229313Y-78871759D01*
X164217028Y-78881384D01*
X164184192Y-78929520D01*
X164129281Y-78974523D01*
X164058756Y-78982694D01*
X163995009Y-78951440D01*
X163974311Y-78926955D01*
X163944062Y-78880197D01*
X163933377Y-78870995D01*
X163923812Y-78875398D01*
X162900095Y-79899115D01*
X162837783Y-79933141D01*
X162766968Y-79928076D01*
X162721905Y-79899115D01*
X161700849Y-78878059D01*
X161689313Y-78871759D01*
X161677028Y-78881384D01*
X161644192Y-78929520D01*
X161589281Y-78974523D01*
X161518756Y-78982694D01*
X161455009Y-78951440D01*
X161434311Y-78926955D01*
X161404062Y-78880197D01*
X161393377Y-78870995D01*
X161383812Y-78875398D01*
X160360095Y-79899115D01*
X160297783Y-79933141D01*
X160226968Y-79928076D01*
X160181905Y-79899115D01*
X159160849Y-78878059D01*
X159149313Y-78871759D01*
X159137028Y-78881384D01*
X159104192Y-78929520D01*
X159049281Y-78974523D01*
X158978756Y-78982694D01*
X158915009Y-78951440D01*
X158894311Y-78926955D01*
X158864062Y-78880197D01*
X158853377Y-78870995D01*
X158843812Y-78875398D01*
X157820095Y-79899115D01*
X157757783Y-79933141D01*
X157686968Y-79928076D01*
X157641905Y-79899115D01*
X156620849Y-78878059D01*
X156609313Y-78871759D01*
X156597028Y-78881384D01*
X156564192Y-78929520D01*
X156509281Y-78974523D01*
X156438756Y-78982694D01*
X156375009Y-78951440D01*
X156354311Y-78926955D01*
X156324062Y-78880197D01*
X156313377Y-78870995D01*
X156303812Y-78875398D01*
X154437737Y-80741473D01*
X154430977Y-80753853D01*
X154436258Y-80760907D01*
X154482969Y-80788203D01*
X154531693Y-80839841D01*
X154544764Y-80909624D01*
X154518033Y-80975396D01*
X154477584Y-81008752D01*
X154464607Y-81015507D01*
X154460474Y-81018610D01*
X154460471Y-81018612D01*
X154290100Y-81146530D01*
X154285965Y-81149635D01*
X154282393Y-81153373D01*
X154140748Y-81301596D01*
X154131629Y-81311138D01*
X154024201Y-81468621D01*
X153969293Y-81513621D01*
X153898768Y-81521792D01*
X153835021Y-81490538D01*
X153814324Y-81466054D01*
X153733822Y-81341617D01*
X153733820Y-81341614D01*
X153731014Y-81337277D01*
X153580670Y-81172051D01*
X153576616Y-81168849D01*
X153576615Y-81168848D01*
X153409414Y-81036800D01*
X153409410Y-81036798D01*
X153405359Y-81033598D01*
X153363569Y-81010529D01*
X153313598Y-80960097D01*
X153298826Y-80890654D01*
X153323942Y-80824248D01*
X153351293Y-80797642D01*
X153400247Y-80762723D01*
X153408648Y-80752023D01*
X153401660Y-80738870D01*
X152663812Y-80001022D01*
X152649868Y-79993408D01*
X152648035Y-79993539D01*
X152641420Y-79997790D01*
X151897737Y-80741473D01*
X151890977Y-80753853D01*
X151896258Y-80760907D01*
X151942969Y-80788203D01*
X151991693Y-80839841D01*
X152004764Y-80909624D01*
X151978033Y-80975396D01*
X151937584Y-81008752D01*
X151924607Y-81015507D01*
X151920474Y-81018610D01*
X151920471Y-81018612D01*
X151750100Y-81146530D01*
X151745965Y-81149635D01*
X151742393Y-81153373D01*
X151600748Y-81301596D01*
X151591629Y-81311138D01*
X151484201Y-81468621D01*
X151429293Y-81513621D01*
X151358768Y-81521792D01*
X151295021Y-81490538D01*
X151274324Y-81466054D01*
X151193822Y-81341617D01*
X151193820Y-81341614D01*
X151191014Y-81337277D01*
X151040670Y-81172051D01*
X151036616Y-81168849D01*
X151036615Y-81168848D01*
X150869414Y-81036800D01*
X150869410Y-81036798D01*
X150865359Y-81033598D01*
X150823569Y-81010529D01*
X150773598Y-80960097D01*
X150758826Y-80890654D01*
X150783942Y-80824248D01*
X150811293Y-80797642D01*
X150860247Y-80762723D01*
X150868648Y-80752023D01*
X150861660Y-80738870D01*
X150123812Y-80001022D01*
X150109868Y-79993408D01*
X150108035Y-79993539D01*
X150101420Y-79997790D01*
X149357737Y-80741473D01*
X149350977Y-80753853D01*
X149356258Y-80760907D01*
X149402969Y-80788203D01*
X149451693Y-80839841D01*
X149464764Y-80909624D01*
X149438033Y-80975396D01*
X149397584Y-81008752D01*
X149384607Y-81015507D01*
X149380474Y-81018610D01*
X149380471Y-81018612D01*
X149210100Y-81146530D01*
X149205965Y-81149635D01*
X149202393Y-81153373D01*
X149060748Y-81301596D01*
X149051629Y-81311138D01*
X148944201Y-81468621D01*
X148889293Y-81513621D01*
X148818768Y-81521792D01*
X148755021Y-81490538D01*
X148734324Y-81466054D01*
X148653822Y-81341617D01*
X148653820Y-81341614D01*
X148651014Y-81337277D01*
X148500670Y-81172051D01*
X148496616Y-81168849D01*
X148496615Y-81168848D01*
X148329414Y-81036800D01*
X148329410Y-81036798D01*
X148325359Y-81033598D01*
X148283569Y-81010529D01*
X148233598Y-80960097D01*
X148218826Y-80890654D01*
X148243942Y-80824248D01*
X148271293Y-80797642D01*
X148320247Y-80762723D01*
X148328648Y-80752023D01*
X148321660Y-80738870D01*
X147583812Y-80001022D01*
X147569868Y-79993408D01*
X147568035Y-79993539D01*
X147561420Y-79997790D01*
X146817737Y-80741473D01*
X146810977Y-80753853D01*
X146816258Y-80760907D01*
X146862969Y-80788203D01*
X146911693Y-80839841D01*
X146924764Y-80909624D01*
X146898033Y-80975396D01*
X146857584Y-81008752D01*
X146844607Y-81015507D01*
X146840474Y-81018610D01*
X146840471Y-81018612D01*
X146670100Y-81146530D01*
X146665965Y-81149635D01*
X146662393Y-81153373D01*
X146520748Y-81301596D01*
X146511629Y-81311138D01*
X146404201Y-81468621D01*
X146349293Y-81513621D01*
X146278768Y-81521792D01*
X146215021Y-81490538D01*
X146194324Y-81466054D01*
X146113822Y-81341617D01*
X146113820Y-81341614D01*
X146111014Y-81337277D01*
X145960670Y-81172051D01*
X145956616Y-81168849D01*
X145956615Y-81168848D01*
X145789414Y-81036800D01*
X145789410Y-81036798D01*
X145785359Y-81033598D01*
X145743569Y-81010529D01*
X145693598Y-80960097D01*
X145678826Y-80890654D01*
X145703942Y-80824248D01*
X145731293Y-80797642D01*
X145780247Y-80762723D01*
X145788648Y-80752023D01*
X145781660Y-80738870D01*
X145043812Y-80001022D01*
X145029868Y-79993408D01*
X145028035Y-79993539D01*
X145021420Y-79997790D01*
X144277737Y-80741473D01*
X144270977Y-80753853D01*
X144276258Y-80760907D01*
X144322969Y-80788203D01*
X144371693Y-80839841D01*
X144384764Y-80909624D01*
X144358033Y-80975396D01*
X144317584Y-81008752D01*
X144304607Y-81015507D01*
X144300474Y-81018610D01*
X144300471Y-81018612D01*
X144130100Y-81146530D01*
X144125965Y-81149635D01*
X144122393Y-81153373D01*
X143980748Y-81301596D01*
X143971629Y-81311138D01*
X143845743Y-81495680D01*
X143751688Y-81698305D01*
X143691989Y-81913570D01*
X143668251Y-82135695D01*
X143668548Y-82140848D01*
X143668548Y-82140851D01*
X143674011Y-82235590D01*
X143681110Y-82358715D01*
X143682247Y-82363761D01*
X143682248Y-82363767D01*
X143697330Y-82430687D01*
X143730222Y-82576639D01*
X143814266Y-82783616D01*
X143865019Y-82866438D01*
X143928291Y-82969688D01*
X143930987Y-82974088D01*
X144077250Y-83142938D01*
X144222987Y-83263931D01*
X144262620Y-83322831D01*
X144268500Y-83360873D01*
X144268500Y-83860165D01*
X144248498Y-83928286D01*
X144208804Y-83967308D01*
X144106652Y-84030522D01*
X143981695Y-84155697D01*
X143977855Y-84161927D01*
X143977854Y-84161928D01*
X143898748Y-84290262D01*
X143888885Y-84306262D01*
X143872331Y-84356171D01*
X143836242Y-84464978D01*
X143833203Y-84474139D01*
X143822500Y-84578600D01*
X143822500Y-85379400D01*
X143822837Y-85382646D01*
X143822837Y-85382650D01*
X143832356Y-85474389D01*
X143833474Y-85485166D01*
X143889450Y-85652946D01*
X143982522Y-85803348D01*
X143987704Y-85808521D01*
X144069109Y-85889784D01*
X144103188Y-85952066D01*
X144098185Y-86022886D01*
X144069264Y-86067975D01*
X144003874Y-86133479D01*
X143981695Y-86155697D01*
X143977853Y-86161929D01*
X143973318Y-86167672D01*
X143970934Y-86165789D01*
X143928365Y-86204105D01*
X143873869Y-86216500D01*
X131906376Y-86216500D01*
X131887426Y-86215067D01*
X131873027Y-86212876D01*
X131873021Y-86212876D01*
X131865792Y-86211776D01*
X131858500Y-86212369D01*
X131858497Y-86212369D01*
X131812817Y-86216085D01*
X131802602Y-86216500D01*
X131794475Y-86216500D01*
X131790839Y-86216924D01*
X131790837Y-86216924D01*
X131787385Y-86217327D01*
X131766076Y-86219811D01*
X131761756Y-86220238D01*
X131688574Y-86226191D01*
X131681612Y-86228447D01*
X131675624Y-86229643D01*
X131669667Y-86231051D01*
X131662393Y-86231899D01*
X131655511Y-86234397D01*
X131655507Y-86234398D01*
X131593393Y-86256945D01*
X131589289Y-86258355D01*
X131519425Y-86280987D01*
X131513162Y-86284787D01*
X131507620Y-86287325D01*
X131502144Y-86290067D01*
X131495259Y-86292566D01*
X131489135Y-86296581D01*
X131433868Y-86332815D01*
X131430200Y-86335130D01*
X131367419Y-86373227D01*
X131363212Y-86376943D01*
X131363208Y-86376946D01*
X131358995Y-86380668D01*
X131358969Y-86380638D01*
X131356041Y-86383236D01*
X131352687Y-86386040D01*
X131346565Y-86390054D01*
X131341532Y-86395367D01*
X131292995Y-86446604D01*
X131290617Y-86449046D01*
X128865485Y-88874177D01*
X128802588Y-88908328D01*
X128753176Y-88918831D01*
X128753167Y-88918834D01*
X128746712Y-88920206D01*
X128740682Y-88922891D01*
X128740681Y-88922891D01*
X128578278Y-88995197D01*
X128578276Y-88995198D01*
X128572248Y-88997882D01*
X128566907Y-89001762D01*
X128566906Y-89001763D01*
X128526353Y-89031227D01*
X128417747Y-89110134D01*
X128413326Y-89115044D01*
X128413325Y-89115045D01*
X128296664Y-89244611D01*
X128289960Y-89252056D01*
X128286659Y-89257774D01*
X128216556Y-89379196D01*
X128194473Y-89417444D01*
X128135458Y-89599072D01*
X128134768Y-89605633D01*
X128134768Y-89605635D01*
X128121685Y-89730114D01*
X128115496Y-89789000D01*
X128116186Y-89795565D01*
X128134091Y-89965917D01*
X128135458Y-89978928D01*
X128194473Y-90160556D01*
X128197776Y-90166278D01*
X128197777Y-90166279D01*
X128217903Y-90201138D01*
X128245392Y-90248749D01*
X128249619Y-90256071D01*
X128266500Y-90319071D01*
X128266500Y-94884972D01*
X128246498Y-94953093D01*
X128229595Y-94974067D01*
X126372067Y-96831595D01*
X126309755Y-96865621D01*
X126282972Y-96868500D01*
X126121953Y-96868500D01*
X126053832Y-96848498D01*
X126023324Y-96817464D01*
X126021875Y-96818612D01*
X126017332Y-96812880D01*
X126013478Y-96806652D01*
X125926891Y-96720216D01*
X125892812Y-96657934D01*
X125897815Y-96587114D01*
X125926736Y-96542025D01*
X126009134Y-96459483D01*
X126014305Y-96454303D01*
X126107115Y-96303738D01*
X126162797Y-96135861D01*
X126173500Y-96031400D01*
X126173500Y-95230600D01*
X126173163Y-95227350D01*
X126163238Y-95131692D01*
X126163237Y-95131688D01*
X126162526Y-95124834D01*
X126137242Y-95049047D01*
X126108868Y-94964002D01*
X126106550Y-94957054D01*
X126013478Y-94806652D01*
X125888303Y-94681695D01*
X125856120Y-94661857D01*
X125787384Y-94619487D01*
X125739890Y-94566714D01*
X125727500Y-94512227D01*
X125727500Y-89119491D01*
X125747502Y-89051370D01*
X125780332Y-89016912D01*
X125931718Y-88908930D01*
X125931720Y-88908928D01*
X125935922Y-88905931D01*
X126110535Y-88731927D01*
X126254384Y-88531740D01*
X126260434Y-88519500D01*
X126361311Y-88315389D01*
X126361312Y-88315387D01*
X126363605Y-88310747D01*
X126421050Y-88121673D01*
X126433764Y-88079827D01*
X126433764Y-88079826D01*
X126435266Y-88074883D01*
X126437028Y-88061498D01*
X126467005Y-87833804D01*
X126467006Y-87833798D01*
X126467442Y-87830482D01*
X126468131Y-87802303D01*
X126469156Y-87760365D01*
X126469156Y-87760360D01*
X126469238Y-87757000D01*
X126457722Y-87616926D01*
X126449463Y-87516470D01*
X126449462Y-87516464D01*
X126449039Y-87511319D01*
X126419012Y-87391777D01*
X126390245Y-87277247D01*
X126390244Y-87277243D01*
X126388986Y-87272236D01*
X126386045Y-87265472D01*
X126292750Y-87050908D01*
X126292748Y-87050905D01*
X126290690Y-87046171D01*
X126156792Y-86839196D01*
X125990888Y-86656870D01*
X125986837Y-86653671D01*
X125986833Y-86653667D01*
X125801486Y-86507289D01*
X125797433Y-86504088D01*
X125792917Y-86501595D01*
X125792914Y-86501593D01*
X125586144Y-86387450D01*
X125586141Y-86387449D01*
X125581622Y-86384954D01*
X125391449Y-86317611D01*
X125354123Y-86304393D01*
X125354120Y-86304392D01*
X125349251Y-86302668D01*
X125344162Y-86301761D01*
X125344160Y-86301761D01*
X125266754Y-86287973D01*
X125106561Y-86259438D01*
X125014634Y-86258315D01*
X124865240Y-86256489D01*
X124865238Y-86256489D01*
X124860070Y-86256426D01*
X124616396Y-86293714D01*
X124382084Y-86370298D01*
X124315382Y-86405021D01*
X124249272Y-86439436D01*
X124163427Y-86484124D01*
X124159294Y-86487227D01*
X124159291Y-86487229D01*
X124011732Y-86598020D01*
X123966297Y-86632134D01*
X123962725Y-86635872D01*
X123817358Y-86787990D01*
X123795988Y-86810352D01*
X123657073Y-87013994D01*
X123642137Y-87046171D01*
X123555460Y-87232898D01*
X123555458Y-87232903D01*
X123553283Y-87237589D01*
X123487406Y-87475134D01*
X123461211Y-87720248D01*
X123461508Y-87725400D01*
X123461508Y-87725404D01*
X123464329Y-87774328D01*
X123475401Y-87966349D01*
X123476536Y-87971386D01*
X123476537Y-87971392D01*
X123524590Y-88184619D01*
X123529595Y-88206829D01*
X123531539Y-88211615D01*
X123531540Y-88211620D01*
X123573677Y-88315389D01*
X123622338Y-88435227D01*
X123625043Y-88439642D01*
X123625044Y-88439643D01*
X123651531Y-88482866D01*
X123751140Y-88645411D01*
X123912540Y-88831737D01*
X124102205Y-88989200D01*
X124106662Y-88991804D01*
X124106667Y-88991808D01*
X124140070Y-89011327D01*
X124188794Y-89062965D01*
X124202500Y-89120115D01*
X124202500Y-94512165D01*
X124182498Y-94580286D01*
X124142804Y-94619308D01*
X124040652Y-94682522D01*
X123915695Y-94807697D01*
X123911855Y-94813927D01*
X123911854Y-94813928D01*
X123840082Y-94930364D01*
X123822885Y-94958262D01*
X123820581Y-94965209D01*
X123820580Y-94965212D01*
X123814537Y-94983430D01*
X123774107Y-95041791D01*
X123708543Y-95069028D01*
X123638661Y-95056495D01*
X123586649Y-95008171D01*
X123575421Y-94983641D01*
X123568871Y-94964007D01*
X123568867Y-94963997D01*
X123566550Y-94957054D01*
X123473478Y-94806652D01*
X123348303Y-94681695D01*
X123316120Y-94661857D01*
X123247384Y-94619487D01*
X123199890Y-94566714D01*
X123187500Y-94512227D01*
X123187500Y-91659491D01*
X123207502Y-91591370D01*
X123240332Y-91556912D01*
X123391718Y-91448930D01*
X123391720Y-91448928D01*
X123395922Y-91445931D01*
X123570535Y-91271927D01*
X123587062Y-91248928D01*
X123632703Y-91185411D01*
X123714384Y-91071740D01*
X123720681Y-91059000D01*
X123821311Y-90855389D01*
X123821312Y-90855387D01*
X123823605Y-90850747D01*
X123895266Y-90614883D01*
X123904687Y-90543326D01*
X123927005Y-90373804D01*
X123927006Y-90373798D01*
X123927442Y-90370482D01*
X123927524Y-90367130D01*
X123929156Y-90300365D01*
X123929156Y-90300360D01*
X123929238Y-90297000D01*
X123917504Y-90154274D01*
X123909463Y-90056470D01*
X123909462Y-90056464D01*
X123909039Y-90051319D01*
X123878058Y-89927977D01*
X123850245Y-89817247D01*
X123850244Y-89817243D01*
X123848986Y-89812236D01*
X123845651Y-89804565D01*
X123752750Y-89590908D01*
X123752748Y-89590905D01*
X123750690Y-89586171D01*
X123641536Y-89417444D01*
X123619602Y-89383539D01*
X123619600Y-89383536D01*
X123616792Y-89379196D01*
X123551820Y-89307792D01*
X123454366Y-89200692D01*
X123454364Y-89200690D01*
X123450888Y-89196870D01*
X123446837Y-89193671D01*
X123446833Y-89193667D01*
X123268552Y-89052869D01*
X123257433Y-89044088D01*
X123252917Y-89041595D01*
X123252914Y-89041593D01*
X123046144Y-88927450D01*
X123046141Y-88927449D01*
X123041622Y-88924954D01*
X122878969Y-88867356D01*
X122814123Y-88844393D01*
X122814120Y-88844392D01*
X122809251Y-88842668D01*
X122804162Y-88841761D01*
X122804160Y-88841761D01*
X122747885Y-88831737D01*
X122566561Y-88799438D01*
X122474634Y-88798315D01*
X122325240Y-88796489D01*
X122325238Y-88796489D01*
X122320070Y-88796426D01*
X122076396Y-88833714D01*
X121842084Y-88910298D01*
X121623427Y-89024124D01*
X121619294Y-89027227D01*
X121619291Y-89027229D01*
X121430432Y-89169029D01*
X121426297Y-89172134D01*
X121422725Y-89175872D01*
X121277358Y-89327990D01*
X121255988Y-89350352D01*
X121117073Y-89553994D01*
X121102137Y-89586171D01*
X121015460Y-89772898D01*
X121015458Y-89772903D01*
X121013283Y-89777589D01*
X120947406Y-90015134D01*
X120921211Y-90260248D01*
X120921508Y-90265400D01*
X120921508Y-90265404D01*
X120926122Y-90345417D01*
X120935401Y-90506349D01*
X120936536Y-90511386D01*
X120936537Y-90511392D01*
X120988457Y-90741780D01*
X120989595Y-90746829D01*
X120991539Y-90751615D01*
X120991540Y-90751620D01*
X121041898Y-90875635D01*
X121082338Y-90975227D01*
X121085043Y-90979642D01*
X121085044Y-90979643D01*
X121113265Y-91025695D01*
X121211140Y-91185411D01*
X121372540Y-91371737D01*
X121562205Y-91529200D01*
X121566662Y-91531804D01*
X121566667Y-91531808D01*
X121600070Y-91551327D01*
X121648794Y-91602965D01*
X121662500Y-91660115D01*
X121662500Y-94512165D01*
X121642498Y-94580286D01*
X121602804Y-94619308D01*
X121500652Y-94682522D01*
X121375695Y-94807697D01*
X121371855Y-94813927D01*
X121371854Y-94813928D01*
X121300082Y-94930364D01*
X121282885Y-94958262D01*
X121280581Y-94965209D01*
X121280580Y-94965212D01*
X121274537Y-94983430D01*
X121234107Y-95041791D01*
X121168543Y-95069028D01*
X121098661Y-95056495D01*
X121046649Y-95008171D01*
X121035421Y-94983641D01*
X121028871Y-94964007D01*
X121028867Y-94963997D01*
X121026550Y-94957054D01*
X120933478Y-94806652D01*
X120808303Y-94681695D01*
X120776120Y-94661857D01*
X120707384Y-94619487D01*
X120659890Y-94566714D01*
X120647500Y-94512227D01*
X120647500Y-90364368D01*
X120648933Y-90345417D01*
X120651123Y-90331024D01*
X120651123Y-90331022D01*
X120652223Y-90323792D01*
X120647915Y-90270825D01*
X120647500Y-90260611D01*
X120647500Y-90252475D01*
X120644190Y-90224084D01*
X120643757Y-90219709D01*
X120638403Y-90153872D01*
X120638402Y-90153869D01*
X120637809Y-90146573D01*
X120635554Y-90139611D01*
X120634354Y-90133607D01*
X120632948Y-90127660D01*
X120632101Y-90120393D01*
X120607053Y-90051387D01*
X120605625Y-90047227D01*
X120585268Y-89984387D01*
X120585266Y-89984382D01*
X120583012Y-89977425D01*
X120579218Y-89971173D01*
X120576666Y-89965598D01*
X120573930Y-89960135D01*
X120571434Y-89953259D01*
X120541542Y-89907666D01*
X120531181Y-89891863D01*
X120528834Y-89888144D01*
X120515196Y-89865669D01*
X120490772Y-89825419D01*
X120483332Y-89816994D01*
X120483360Y-89816969D01*
X120480766Y-89814044D01*
X120477961Y-89810690D01*
X120473946Y-89804565D01*
X120440708Y-89773078D01*
X120417414Y-89751012D01*
X120414972Y-89748634D01*
X118850323Y-88183985D01*
X118816297Y-88121673D01*
X118816268Y-88075015D01*
X118815266Y-88074883D01*
X118847005Y-87833804D01*
X118847006Y-87833798D01*
X118847442Y-87830482D01*
X118848131Y-87802303D01*
X118849156Y-87760365D01*
X118849156Y-87760360D01*
X118849238Y-87757000D01*
X118837722Y-87616926D01*
X118829463Y-87516470D01*
X118829462Y-87516464D01*
X118829039Y-87511319D01*
X118799012Y-87391777D01*
X118770245Y-87277247D01*
X118770244Y-87277243D01*
X118768986Y-87272236D01*
X118766045Y-87265472D01*
X118672750Y-87050908D01*
X118672748Y-87050905D01*
X118670690Y-87046171D01*
X118536792Y-86839196D01*
X118370888Y-86656870D01*
X118366837Y-86653671D01*
X118366833Y-86653667D01*
X118181486Y-86507289D01*
X118177433Y-86504088D01*
X118172917Y-86501595D01*
X118172914Y-86501593D01*
X117966144Y-86387450D01*
X117966141Y-86387449D01*
X117961622Y-86384954D01*
X117771449Y-86317611D01*
X117734123Y-86304393D01*
X117734120Y-86304392D01*
X117729251Y-86302668D01*
X117724162Y-86301761D01*
X117724160Y-86301761D01*
X117646754Y-86287973D01*
X117486561Y-86259438D01*
X117394634Y-86258315D01*
X117245240Y-86256489D01*
X117245238Y-86256489D01*
X117240070Y-86256426D01*
X116996396Y-86293714D01*
X116762084Y-86370298D01*
X116695382Y-86405021D01*
X116629272Y-86439436D01*
X116543427Y-86484124D01*
X116539294Y-86487227D01*
X116539291Y-86487229D01*
X116391732Y-86598020D01*
X116346297Y-86632134D01*
X116342725Y-86635872D01*
X116197358Y-86787990D01*
X116175988Y-86810352D01*
X116037073Y-87013994D01*
X116022137Y-87046171D01*
X115935460Y-87232898D01*
X115935458Y-87232903D01*
X115933283Y-87237589D01*
X115867406Y-87475134D01*
X115841211Y-87720248D01*
X115841508Y-87725400D01*
X115841508Y-87725404D01*
X115844329Y-87774328D01*
X115855401Y-87966349D01*
X115856536Y-87971386D01*
X115856537Y-87971392D01*
X115904590Y-88184619D01*
X115909595Y-88206829D01*
X115911539Y-88211615D01*
X115911540Y-88211620D01*
X115953677Y-88315389D01*
X116002338Y-88435227D01*
X116005043Y-88439642D01*
X116005044Y-88439643D01*
X116031531Y-88482866D01*
X116131140Y-88645411D01*
X116292540Y-88831737D01*
X116482205Y-88989200D01*
X116486657Y-88991802D01*
X116486662Y-88991805D01*
X116679334Y-89104393D01*
X116695040Y-89113571D01*
X116925331Y-89201510D01*
X116930397Y-89202541D01*
X116930398Y-89202541D01*
X116957663Y-89208088D01*
X117166892Y-89250656D01*
X117305935Y-89255754D01*
X117408073Y-89259500D01*
X117408077Y-89259500D01*
X117413237Y-89259689D01*
X117418357Y-89259033D01*
X117418359Y-89259033D01*
X117652624Y-89229024D01*
X117652630Y-89229023D01*
X117657749Y-89228367D01*
X117658076Y-89228269D01*
X117727467Y-89233560D01*
X117771974Y-89262312D01*
X119085595Y-90575933D01*
X119119621Y-90638245D01*
X119122500Y-90665028D01*
X119122500Y-94512165D01*
X119102498Y-94580286D01*
X119062804Y-94619308D01*
X118960652Y-94682522D01*
X118835695Y-94807697D01*
X118831855Y-94813927D01*
X118831854Y-94813928D01*
X118760082Y-94930364D01*
X118742885Y-94958262D01*
X118740581Y-94965209D01*
X118740580Y-94965212D01*
X118734537Y-94983430D01*
X118694107Y-95041791D01*
X118628543Y-95069028D01*
X118558661Y-95056495D01*
X118506649Y-95008171D01*
X118495421Y-94983641D01*
X118488871Y-94964007D01*
X118488867Y-94963997D01*
X118486550Y-94957054D01*
X118393478Y-94806652D01*
X118268303Y-94681695D01*
X118236120Y-94661857D01*
X118167384Y-94619487D01*
X118119890Y-94566714D01*
X118107500Y-94512227D01*
X118107500Y-94199491D01*
X118127502Y-94131370D01*
X118160332Y-94096912D01*
X118311718Y-93988930D01*
X118311720Y-93988928D01*
X118315922Y-93985931D01*
X118490535Y-93811927D01*
X118634384Y-93611740D01*
X118682084Y-93515227D01*
X118741311Y-93395389D01*
X118741312Y-93395387D01*
X118743605Y-93390747D01*
X118815266Y-93154883D01*
X118845441Y-92925680D01*
X118847005Y-92913804D01*
X118847006Y-92913798D01*
X118847442Y-92910482D01*
X118849238Y-92837000D01*
X118837722Y-92696926D01*
X118829463Y-92596470D01*
X118829462Y-92596464D01*
X118829039Y-92591319D01*
X118799000Y-92471729D01*
X118770245Y-92357247D01*
X118770244Y-92357243D01*
X118768986Y-92352236D01*
X118766927Y-92347500D01*
X118672750Y-92130908D01*
X118672748Y-92130905D01*
X118670690Y-92126171D01*
X118566106Y-91964508D01*
X118539602Y-91923539D01*
X118539600Y-91923536D01*
X118536792Y-91919196D01*
X118470405Y-91846237D01*
X118374366Y-91740692D01*
X118374364Y-91740690D01*
X118370888Y-91736870D01*
X118366837Y-91733671D01*
X118366833Y-91733667D01*
X118188552Y-91592869D01*
X118177433Y-91584088D01*
X118172917Y-91581595D01*
X118172914Y-91581593D01*
X117966144Y-91467450D01*
X117966141Y-91467449D01*
X117961622Y-91464954D01*
X117798969Y-91407356D01*
X117734123Y-91384393D01*
X117734120Y-91384392D01*
X117729251Y-91382668D01*
X117724162Y-91381761D01*
X117724160Y-91381761D01*
X117667885Y-91371737D01*
X117486561Y-91339438D01*
X117394634Y-91338315D01*
X117245240Y-91336489D01*
X117245238Y-91336489D01*
X117240070Y-91336426D01*
X116996396Y-91373714D01*
X116762084Y-91450298D01*
X116721500Y-91471425D01*
X116619160Y-91524700D01*
X116543427Y-91564124D01*
X116539294Y-91567227D01*
X116539291Y-91567229D01*
X116350432Y-91709029D01*
X116346297Y-91712134D01*
X116319006Y-91740692D01*
X116197358Y-91867990D01*
X116175988Y-91890352D01*
X116037073Y-92093994D01*
X116022137Y-92126171D01*
X115935460Y-92312898D01*
X115935458Y-92312903D01*
X115933283Y-92317589D01*
X115867406Y-92555134D01*
X115841211Y-92800248D01*
X115841508Y-92805400D01*
X115841508Y-92805404D01*
X115846749Y-92896294D01*
X115855401Y-93046349D01*
X115856536Y-93051386D01*
X115856537Y-93051392D01*
X115893245Y-93214279D01*
X115909595Y-93286829D01*
X115911539Y-93291615D01*
X115911540Y-93291620D01*
X115942647Y-93368226D01*
X116002338Y-93515227D01*
X116131140Y-93725411D01*
X116292540Y-93911737D01*
X116482205Y-94069200D01*
X116486662Y-94071804D01*
X116486667Y-94071808D01*
X116520070Y-94091327D01*
X116568794Y-94142965D01*
X116582500Y-94200115D01*
X116582500Y-94512165D01*
X116562498Y-94580286D01*
X116522804Y-94619308D01*
X116420652Y-94682522D01*
X116295695Y-94807697D01*
X116291855Y-94813927D01*
X116291854Y-94813928D01*
X116220082Y-94930364D01*
X116202885Y-94958262D01*
X116200581Y-94965209D01*
X116200580Y-94965212D01*
X116194537Y-94983430D01*
X116154107Y-95041791D01*
X116088543Y-95069028D01*
X116018661Y-95056495D01*
X115966649Y-95008171D01*
X115955421Y-94983641D01*
X115948871Y-94964007D01*
X115948867Y-94963997D01*
X115946550Y-94957054D01*
X115853478Y-94806652D01*
X115728303Y-94681695D01*
X115696120Y-94661857D01*
X115627384Y-94619487D01*
X115579890Y-94566714D01*
X115567500Y-94512227D01*
X115567500Y-89348368D01*
X115568933Y-89329417D01*
X115571123Y-89315024D01*
X115571123Y-89315022D01*
X115572223Y-89307792D01*
X115567915Y-89254825D01*
X115567500Y-89244611D01*
X115567500Y-89236475D01*
X115564190Y-89208084D01*
X115563757Y-89203709D01*
X115558403Y-89137872D01*
X115558402Y-89137869D01*
X115557809Y-89130573D01*
X115555554Y-89123611D01*
X115554354Y-89117607D01*
X115552948Y-89111660D01*
X115552101Y-89104393D01*
X115527053Y-89035387D01*
X115525625Y-89031227D01*
X115505268Y-88968387D01*
X115505266Y-88968382D01*
X115503012Y-88961425D01*
X115499218Y-88955173D01*
X115496666Y-88949598D01*
X115493930Y-88944135D01*
X115491434Y-88937259D01*
X115468505Y-88902287D01*
X115451181Y-88875863D01*
X115448834Y-88872144D01*
X115434744Y-88848924D01*
X115410772Y-88809419D01*
X115403332Y-88800994D01*
X115403360Y-88800969D01*
X115400766Y-88798044D01*
X115397961Y-88794690D01*
X115393946Y-88788565D01*
X115337413Y-88735011D01*
X115334972Y-88732634D01*
X113867810Y-87265472D01*
X113855423Y-87251059D01*
X113846795Y-87239335D01*
X113842454Y-87233436D01*
X113801945Y-87199021D01*
X113794429Y-87192091D01*
X113788685Y-87186347D01*
X113785811Y-87184073D01*
X113785804Y-87184067D01*
X113766289Y-87168628D01*
X113762885Y-87165837D01*
X113712528Y-87123055D01*
X113712524Y-87123052D01*
X113706949Y-87118316D01*
X113700432Y-87114988D01*
X113695368Y-87111611D01*
X113690144Y-87108384D01*
X113684400Y-87103840D01*
X113658109Y-87091552D01*
X113617918Y-87072768D01*
X113613967Y-87070837D01*
X113565661Y-87046171D01*
X113548596Y-87037457D01*
X113541481Y-87035716D01*
X113535735Y-87033579D01*
X113529952Y-87031655D01*
X113523321Y-87028556D01*
X113451443Y-87013606D01*
X113447171Y-87012639D01*
X113375888Y-86995196D01*
X113370289Y-86994849D01*
X113370285Y-86994848D01*
X113364670Y-86994500D01*
X113364672Y-86994461D01*
X113360771Y-86994228D01*
X113356412Y-86993839D01*
X113349244Y-86992348D01*
X113341927Y-86992546D01*
X113271423Y-86994454D01*
X113268014Y-86994500D01*
X111085818Y-86994500D01*
X111017697Y-86974498D01*
X110980026Y-86936940D01*
X110919602Y-86843539D01*
X110919600Y-86843536D01*
X110916792Y-86839196D01*
X110750888Y-86656870D01*
X110746837Y-86653671D01*
X110746833Y-86653667D01*
X110561486Y-86507289D01*
X110557433Y-86504088D01*
X110552917Y-86501595D01*
X110552914Y-86501593D01*
X110346144Y-86387450D01*
X110346141Y-86387449D01*
X110341622Y-86384954D01*
X110151449Y-86317611D01*
X110114123Y-86304393D01*
X110114120Y-86304392D01*
X110109251Y-86302668D01*
X110104162Y-86301761D01*
X110104160Y-86301761D01*
X110026754Y-86287973D01*
X109866561Y-86259438D01*
X109774634Y-86258315D01*
X109625240Y-86256489D01*
X109625238Y-86256489D01*
X109620070Y-86256426D01*
X109376396Y-86293714D01*
X109142084Y-86370298D01*
X109075382Y-86405021D01*
X109009272Y-86439436D01*
X108923427Y-86484124D01*
X108919294Y-86487227D01*
X108919291Y-86487229D01*
X108771732Y-86598020D01*
X108726297Y-86632134D01*
X108722725Y-86635872D01*
X108577358Y-86787990D01*
X108555988Y-86810352D01*
X108417073Y-87013994D01*
X108402137Y-87046171D01*
X108315460Y-87232898D01*
X108315458Y-87232903D01*
X108313283Y-87237589D01*
X108247406Y-87475134D01*
X108221211Y-87720248D01*
X108221508Y-87725400D01*
X108221508Y-87725404D01*
X108224329Y-87774328D01*
X108235401Y-87966349D01*
X108236536Y-87971386D01*
X108236537Y-87971392D01*
X108284590Y-88184619D01*
X108289595Y-88206829D01*
X108291539Y-88211615D01*
X108291540Y-88211620D01*
X108333677Y-88315389D01*
X108382338Y-88435227D01*
X108385043Y-88439642D01*
X108385044Y-88439643D01*
X108411531Y-88482866D01*
X108511140Y-88645411D01*
X108672540Y-88831737D01*
X108862205Y-88989200D01*
X108866657Y-88991802D01*
X108866662Y-88991805D01*
X109059334Y-89104393D01*
X109075040Y-89113571D01*
X109305331Y-89201510D01*
X109310397Y-89202541D01*
X109310398Y-89202541D01*
X109337663Y-89208088D01*
X109546892Y-89250656D01*
X109685935Y-89255754D01*
X109788073Y-89259500D01*
X109788077Y-89259500D01*
X109793237Y-89259689D01*
X109798357Y-89259033D01*
X109798359Y-89259033D01*
X109891137Y-89247148D01*
X110037749Y-89228367D01*
X110042698Y-89226882D01*
X110042704Y-89226881D01*
X110180136Y-89185649D01*
X110273862Y-89157530D01*
X110446408Y-89073000D01*
X111405796Y-89073000D01*
X111412540Y-89085329D01*
X112252189Y-89924979D01*
X112266132Y-89932592D01*
X112267966Y-89932461D01*
X112274580Y-89928210D01*
X113118501Y-89084288D01*
X113125518Y-89071437D01*
X113117745Y-89060767D01*
X113101210Y-89047708D01*
X113092629Y-89042008D01*
X112885942Y-88927911D01*
X112876543Y-88923686D01*
X112653998Y-88844879D01*
X112644027Y-88842245D01*
X112411604Y-88800845D01*
X112401350Y-88799875D01*
X112165275Y-88796990D01*
X112154991Y-88797710D01*
X111921625Y-88833420D01*
X111911597Y-88835809D01*
X111687197Y-88909154D01*
X111677688Y-88913151D01*
X111468284Y-89022160D01*
X111459559Y-89027654D01*
X111414250Y-89061673D01*
X111405796Y-89073000D01*
X110446408Y-89073000D01*
X110495234Y-89049080D01*
X110499437Y-89046082D01*
X110499442Y-89046079D01*
X110691718Y-88908930D01*
X110691720Y-88908928D01*
X110695922Y-88905931D01*
X110870535Y-88731927D01*
X110873551Y-88727730D01*
X110873558Y-88727722D01*
X110985474Y-88571974D01*
X111041468Y-88528326D01*
X111087796Y-88519500D01*
X112912972Y-88519500D01*
X112981093Y-88539502D01*
X113002067Y-88556405D01*
X114005595Y-89559933D01*
X114039621Y-89622245D01*
X114042500Y-89649028D01*
X114042500Y-94512165D01*
X114022498Y-94580286D01*
X113982804Y-94619308D01*
X113880652Y-94682522D01*
X113755695Y-94807697D01*
X113751855Y-94813927D01*
X113751854Y-94813928D01*
X113680082Y-94930364D01*
X113662885Y-94958262D01*
X113607203Y-95126139D01*
X113606503Y-95132975D01*
X113606502Y-95132978D01*
X113602091Y-95176031D01*
X113596500Y-95230600D01*
X113596500Y-96031400D01*
X113596837Y-96034646D01*
X113596837Y-96034650D01*
X113604744Y-96110851D01*
X113607474Y-96137166D01*
X113663450Y-96304946D01*
X113756522Y-96455348D01*
X113842921Y-96541596D01*
X113843109Y-96541784D01*
X113877188Y-96604066D01*
X113872185Y-96674886D01*
X113843264Y-96719975D01*
X113814460Y-96748829D01*
X113755695Y-96807697D01*
X113751855Y-96813927D01*
X113751854Y-96813928D01*
X113674334Y-96939689D01*
X113662885Y-96958262D01*
X113660581Y-96965209D01*
X113611582Y-97112938D01*
X113607203Y-97126139D01*
X113596500Y-97230600D01*
X113596500Y-98031400D01*
X113596837Y-98034646D01*
X113596837Y-98034650D01*
X113597704Y-98043000D01*
X113607474Y-98137166D01*
X113609655Y-98143702D01*
X113609655Y-98143704D01*
X113616231Y-98163414D01*
X113663450Y-98304946D01*
X113756522Y-98455348D01*
X113881697Y-98580305D01*
X113887927Y-98584145D01*
X113887928Y-98584146D01*
X114025090Y-98668694D01*
X114032262Y-98673115D01*
X114112005Y-98699564D01*
X114193611Y-98726632D01*
X114193613Y-98726632D01*
X114200139Y-98728797D01*
X114206975Y-98729497D01*
X114206978Y-98729498D01*
X114250031Y-98733909D01*
X114304600Y-98739500D01*
X115305400Y-98739500D01*
X115308646Y-98739163D01*
X115308650Y-98739163D01*
X115404308Y-98729238D01*
X115404312Y-98729237D01*
X115411166Y-98728526D01*
X115417702Y-98726345D01*
X115417704Y-98726345D01*
X115549806Y-98682272D01*
X115578946Y-98672550D01*
X115729348Y-98579478D01*
X115854305Y-98454303D01*
X115858147Y-98448071D01*
X115862682Y-98442328D01*
X115865066Y-98444211D01*
X115907635Y-98405895D01*
X115962131Y-98393500D01*
X116188047Y-98393500D01*
X116256168Y-98413502D01*
X116286676Y-98444536D01*
X116288125Y-98443388D01*
X116292668Y-98449120D01*
X116296522Y-98455348D01*
X116421697Y-98580305D01*
X116427927Y-98584145D01*
X116427928Y-98584146D01*
X116565090Y-98668694D01*
X116572262Y-98673115D01*
X116652005Y-98699564D01*
X116733611Y-98726632D01*
X116733613Y-98726632D01*
X116740139Y-98728797D01*
X116746975Y-98729497D01*
X116746978Y-98729498D01*
X116790031Y-98733909D01*
X116844600Y-98739500D01*
X117845400Y-98739500D01*
X117848646Y-98739163D01*
X117848650Y-98739163D01*
X117944308Y-98729238D01*
X117944312Y-98729237D01*
X117951166Y-98728526D01*
X117957702Y-98726345D01*
X117957704Y-98726345D01*
X118089806Y-98682272D01*
X118118946Y-98672550D01*
X118269348Y-98579478D01*
X118394305Y-98454303D01*
X118398147Y-98448071D01*
X118402682Y-98442328D01*
X118405066Y-98444211D01*
X118447635Y-98405895D01*
X118502131Y-98393500D01*
X118728047Y-98393500D01*
X118796168Y-98413502D01*
X118826676Y-98444536D01*
X118828125Y-98443388D01*
X118832668Y-98449120D01*
X118836522Y-98455348D01*
X118961697Y-98580305D01*
X118967927Y-98584145D01*
X118967928Y-98584146D01*
X119105090Y-98668694D01*
X119112262Y-98673115D01*
X119192005Y-98699564D01*
X119273611Y-98726632D01*
X119273613Y-98726632D01*
X119280139Y-98728797D01*
X119286975Y-98729497D01*
X119286978Y-98729498D01*
X119330031Y-98733909D01*
X119384600Y-98739500D01*
X120385400Y-98739500D01*
X120388646Y-98739163D01*
X120388650Y-98739163D01*
X120484308Y-98729238D01*
X120484312Y-98729237D01*
X120491166Y-98728526D01*
X120497702Y-98726345D01*
X120497704Y-98726345D01*
X120629806Y-98682272D01*
X120658946Y-98672550D01*
X120809348Y-98579478D01*
X120934305Y-98454303D01*
X120938147Y-98448071D01*
X120942682Y-98442328D01*
X120945066Y-98444211D01*
X120987635Y-98405895D01*
X121042131Y-98393500D01*
X121268047Y-98393500D01*
X121336168Y-98413502D01*
X121366676Y-98444536D01*
X121368125Y-98443388D01*
X121372668Y-98449120D01*
X121376522Y-98455348D01*
X121501697Y-98580305D01*
X121507927Y-98584145D01*
X121507928Y-98584146D01*
X121645090Y-98668694D01*
X121652262Y-98673115D01*
X121732005Y-98699564D01*
X121813611Y-98726632D01*
X121813613Y-98726632D01*
X121820139Y-98728797D01*
X121826975Y-98729497D01*
X121826978Y-98729498D01*
X121870031Y-98733909D01*
X121924600Y-98739500D01*
X122925400Y-98739500D01*
X122928646Y-98739163D01*
X122928650Y-98739163D01*
X123024308Y-98729238D01*
X123024312Y-98729237D01*
X123031166Y-98728526D01*
X123037702Y-98726345D01*
X123037704Y-98726345D01*
X123169806Y-98682272D01*
X123198946Y-98672550D01*
X123349348Y-98579478D01*
X123474305Y-98454303D01*
X123478147Y-98448071D01*
X123482682Y-98442328D01*
X123485066Y-98444211D01*
X123527635Y-98405895D01*
X123582131Y-98393500D01*
X123808047Y-98393500D01*
X123876168Y-98413502D01*
X123906676Y-98444536D01*
X123908125Y-98443388D01*
X123912668Y-98449120D01*
X123916522Y-98455348D01*
X124041697Y-98580305D01*
X124047927Y-98584145D01*
X124047928Y-98584146D01*
X124185090Y-98668694D01*
X124192262Y-98673115D01*
X124272005Y-98699564D01*
X124353611Y-98726632D01*
X124353613Y-98726632D01*
X124360139Y-98728797D01*
X124366975Y-98729497D01*
X124366978Y-98729498D01*
X124410031Y-98733909D01*
X124464600Y-98739500D01*
X125465400Y-98739500D01*
X125468646Y-98739163D01*
X125468650Y-98739163D01*
X125564308Y-98729238D01*
X125564312Y-98729237D01*
X125571166Y-98728526D01*
X125577702Y-98726345D01*
X125577704Y-98726345D01*
X125709806Y-98682272D01*
X125738946Y-98672550D01*
X125889348Y-98579478D01*
X126014305Y-98454303D01*
X126018147Y-98448071D01*
X126022682Y-98442328D01*
X126025066Y-98444211D01*
X126067635Y-98405895D01*
X126122131Y-98393500D01*
X126583624Y-98393500D01*
X126602574Y-98394933D01*
X126616973Y-98397124D01*
X126616979Y-98397124D01*
X126624208Y-98398224D01*
X126631500Y-98397631D01*
X126631503Y-98397631D01*
X126677183Y-98393915D01*
X126687398Y-98393500D01*
X126695525Y-98393500D01*
X126699161Y-98393076D01*
X126699163Y-98393076D01*
X126702615Y-98392673D01*
X126723924Y-98390189D01*
X126728244Y-98389762D01*
X126801426Y-98383809D01*
X126808388Y-98381553D01*
X126814376Y-98380357D01*
X126820333Y-98378949D01*
X126827607Y-98378101D01*
X126834489Y-98375603D01*
X126834493Y-98375602D01*
X126896607Y-98353055D01*
X126900711Y-98351645D01*
X126970575Y-98329013D01*
X126976838Y-98325213D01*
X126982380Y-98322675D01*
X126987856Y-98319933D01*
X126994741Y-98317434D01*
X127056132Y-98277185D01*
X127059800Y-98274870D01*
X127122581Y-98236773D01*
X127126786Y-98233059D01*
X127126789Y-98233057D01*
X127131005Y-98229333D01*
X127131031Y-98229362D01*
X127133962Y-98226762D01*
X127137316Y-98223958D01*
X127143435Y-98219946D01*
X127196989Y-98163413D01*
X127199366Y-98160972D01*
X129520528Y-95839810D01*
X129534941Y-95827423D01*
X129546665Y-95818795D01*
X129552564Y-95814454D01*
X129586979Y-95773945D01*
X129593909Y-95766429D01*
X129599653Y-95760685D01*
X129601927Y-95757811D01*
X129601933Y-95757804D01*
X129617372Y-95738289D01*
X129620163Y-95734885D01*
X129662945Y-95684528D01*
X129662948Y-95684524D01*
X129667684Y-95678949D01*
X129671012Y-95672432D01*
X129674389Y-95667368D01*
X129677616Y-95662144D01*
X129682160Y-95656400D01*
X129713242Y-95589896D01*
X129715147Y-95585999D01*
X129748543Y-95520596D01*
X129750284Y-95513482D01*
X129752416Y-95507748D01*
X129754344Y-95501952D01*
X129757444Y-95495320D01*
X129772395Y-95423440D01*
X129773365Y-95419156D01*
X129789469Y-95353342D01*
X129790804Y-95347888D01*
X129791500Y-95336670D01*
X129791537Y-95336672D01*
X129791773Y-95332773D01*
X129792163Y-95328402D01*
X129793652Y-95321243D01*
X129791546Y-95243423D01*
X129791500Y-95240014D01*
X129791500Y-90319071D01*
X129808381Y-90256071D01*
X129812609Y-90248749D01*
X129840097Y-90201138D01*
X129860223Y-90166279D01*
X129860224Y-90166278D01*
X129863527Y-90160556D01*
X129915665Y-90000093D01*
X129946403Y-89949935D01*
X132117933Y-87778405D01*
X132180245Y-87744379D01*
X132207028Y-87741500D01*
X143874047Y-87741500D01*
X143942168Y-87761502D01*
X143972676Y-87792536D01*
X143974125Y-87791388D01*
X143978668Y-87797120D01*
X143982522Y-87803348D01*
X144107697Y-87928305D01*
X144113927Y-87932145D01*
X144113928Y-87932146D01*
X144251090Y-88016694D01*
X144258262Y-88021115D01*
X144310098Y-88038308D01*
X144419611Y-88074632D01*
X144419613Y-88074632D01*
X144426139Y-88076797D01*
X144432975Y-88077497D01*
X144432978Y-88077498D01*
X144476031Y-88081909D01*
X144530600Y-88087500D01*
X145531400Y-88087500D01*
X145534646Y-88087163D01*
X145534650Y-88087163D01*
X145630308Y-88077238D01*
X145630312Y-88077237D01*
X145637166Y-88076526D01*
X145643702Y-88074345D01*
X145643704Y-88074345D01*
X145793499Y-88024369D01*
X145804946Y-88020550D01*
X145955348Y-87927478D01*
X146080305Y-87802303D01*
X146084147Y-87796071D01*
X146088682Y-87790328D01*
X146091066Y-87792211D01*
X146133635Y-87753895D01*
X146188131Y-87741500D01*
X146414047Y-87741500D01*
X146482168Y-87761502D01*
X146512676Y-87792536D01*
X146514125Y-87791388D01*
X146518668Y-87797120D01*
X146522522Y-87803348D01*
X146647697Y-87928305D01*
X146653927Y-87932145D01*
X146653928Y-87932146D01*
X146791090Y-88016694D01*
X146798262Y-88021115D01*
X146850098Y-88038308D01*
X146959611Y-88074632D01*
X146959613Y-88074632D01*
X146966139Y-88076797D01*
X146972975Y-88077497D01*
X146972978Y-88077498D01*
X147016031Y-88081909D01*
X147070600Y-88087500D01*
X148071400Y-88087500D01*
X148074646Y-88087163D01*
X148074650Y-88087163D01*
X148170308Y-88077238D01*
X148170312Y-88077237D01*
X148177166Y-88076526D01*
X148183702Y-88074345D01*
X148183704Y-88074345D01*
X148333499Y-88024369D01*
X148344946Y-88020550D01*
X148495348Y-87927478D01*
X148620305Y-87802303D01*
X148624147Y-87796071D01*
X148628682Y-87790328D01*
X148631066Y-87792211D01*
X148673635Y-87753895D01*
X148728131Y-87741500D01*
X148954047Y-87741500D01*
X149022168Y-87761502D01*
X149052676Y-87792536D01*
X149054125Y-87791388D01*
X149058668Y-87797120D01*
X149062522Y-87803348D01*
X149187697Y-87928305D01*
X149193927Y-87932145D01*
X149193928Y-87932146D01*
X149331090Y-88016694D01*
X149338262Y-88021115D01*
X149390098Y-88038308D01*
X149499611Y-88074632D01*
X149499613Y-88074632D01*
X149506139Y-88076797D01*
X149512975Y-88077497D01*
X149512978Y-88077498D01*
X149556031Y-88081909D01*
X149610600Y-88087500D01*
X150611400Y-88087500D01*
X150614646Y-88087163D01*
X150614650Y-88087163D01*
X150710308Y-88077238D01*
X150710312Y-88077237D01*
X150717166Y-88076526D01*
X150723702Y-88074345D01*
X150723704Y-88074345D01*
X150873499Y-88024369D01*
X150884946Y-88020550D01*
X151035348Y-87927478D01*
X151160305Y-87802303D01*
X151164147Y-87796071D01*
X151168682Y-87790328D01*
X151171066Y-87792211D01*
X151213635Y-87753895D01*
X151268131Y-87741500D01*
X151494047Y-87741500D01*
X151562168Y-87761502D01*
X151592676Y-87792536D01*
X151594125Y-87791388D01*
X151598668Y-87797120D01*
X151602522Y-87803348D01*
X151727697Y-87928305D01*
X151733927Y-87932145D01*
X151733928Y-87932146D01*
X151871090Y-88016694D01*
X151878262Y-88021115D01*
X151930098Y-88038308D01*
X152039611Y-88074632D01*
X152039613Y-88074632D01*
X152046139Y-88076797D01*
X152052975Y-88077497D01*
X152052978Y-88077498D01*
X152096031Y-88081909D01*
X152150600Y-88087500D01*
X153151400Y-88087500D01*
X153154646Y-88087163D01*
X153154650Y-88087163D01*
X153250308Y-88077238D01*
X153250312Y-88077237D01*
X153257166Y-88076526D01*
X153263702Y-88074345D01*
X153263704Y-88074345D01*
X153413499Y-88024369D01*
X153424946Y-88020550D01*
X153575348Y-87927478D01*
X153700305Y-87802303D01*
X153704147Y-87796071D01*
X153708682Y-87790328D01*
X153711066Y-87792211D01*
X153753635Y-87753895D01*
X153808131Y-87741500D01*
X154034047Y-87741500D01*
X154102168Y-87761502D01*
X154132676Y-87792536D01*
X154134125Y-87791388D01*
X154138668Y-87797120D01*
X154142522Y-87803348D01*
X154267697Y-87928305D01*
X154273927Y-87932145D01*
X154273928Y-87932146D01*
X154411090Y-88016694D01*
X154418262Y-88021115D01*
X154470098Y-88038308D01*
X154579611Y-88074632D01*
X154579613Y-88074632D01*
X154586139Y-88076797D01*
X154592975Y-88077497D01*
X154592978Y-88077498D01*
X154636031Y-88081909D01*
X154690600Y-88087500D01*
X155691400Y-88087500D01*
X155694646Y-88087163D01*
X155694650Y-88087163D01*
X155790308Y-88077238D01*
X155790312Y-88077237D01*
X155797166Y-88076526D01*
X155803702Y-88074345D01*
X155803704Y-88074345D01*
X155953499Y-88024369D01*
X155964946Y-88020550D01*
X156115348Y-87927478D01*
X156240305Y-87802303D01*
X156244147Y-87796071D01*
X156248682Y-87790328D01*
X156251066Y-87792211D01*
X156293635Y-87753895D01*
X156348131Y-87741500D01*
X156574047Y-87741500D01*
X156642168Y-87761502D01*
X156672676Y-87792536D01*
X156674125Y-87791388D01*
X156678668Y-87797120D01*
X156682522Y-87803348D01*
X156807697Y-87928305D01*
X156813927Y-87932145D01*
X156813928Y-87932146D01*
X156951090Y-88016694D01*
X156958262Y-88021115D01*
X157010098Y-88038308D01*
X157119611Y-88074632D01*
X157119613Y-88074632D01*
X157126139Y-88076797D01*
X157132975Y-88077497D01*
X157132978Y-88077498D01*
X157176031Y-88081909D01*
X157230600Y-88087500D01*
X158231400Y-88087500D01*
X158234646Y-88087163D01*
X158234650Y-88087163D01*
X158330308Y-88077238D01*
X158330312Y-88077237D01*
X158337166Y-88076526D01*
X158343702Y-88074345D01*
X158343704Y-88074345D01*
X158493499Y-88024369D01*
X158504946Y-88020550D01*
X158655348Y-87927478D01*
X158780305Y-87802303D01*
X158784147Y-87796071D01*
X158788682Y-87790328D01*
X158791066Y-87792211D01*
X158833635Y-87753895D01*
X158888131Y-87741500D01*
X159114047Y-87741500D01*
X159182168Y-87761502D01*
X159212676Y-87792536D01*
X159214125Y-87791388D01*
X159218668Y-87797120D01*
X159222522Y-87803348D01*
X159347697Y-87928305D01*
X159353927Y-87932145D01*
X159353928Y-87932146D01*
X159491090Y-88016694D01*
X159498262Y-88021115D01*
X159550098Y-88038308D01*
X159659611Y-88074632D01*
X159659613Y-88074632D01*
X159666139Y-88076797D01*
X159672975Y-88077497D01*
X159672978Y-88077498D01*
X159716031Y-88081909D01*
X159770600Y-88087500D01*
X160771400Y-88087500D01*
X160774646Y-88087163D01*
X160774650Y-88087163D01*
X160870308Y-88077238D01*
X160870312Y-88077237D01*
X160877166Y-88076526D01*
X160883702Y-88074345D01*
X160883704Y-88074345D01*
X161033499Y-88024369D01*
X161044946Y-88020550D01*
X161195348Y-87927478D01*
X161320305Y-87802303D01*
X161324147Y-87796071D01*
X161328682Y-87790328D01*
X161331066Y-87792211D01*
X161373635Y-87753895D01*
X161428131Y-87741500D01*
X161654047Y-87741500D01*
X161722168Y-87761502D01*
X161752676Y-87792536D01*
X161754125Y-87791388D01*
X161758668Y-87797120D01*
X161762522Y-87803348D01*
X161887697Y-87928305D01*
X161893927Y-87932145D01*
X161893928Y-87932146D01*
X162031090Y-88016694D01*
X162038262Y-88021115D01*
X162090098Y-88038308D01*
X162199611Y-88074632D01*
X162199613Y-88074632D01*
X162206139Y-88076797D01*
X162212975Y-88077497D01*
X162212978Y-88077498D01*
X162256031Y-88081909D01*
X162310600Y-88087500D01*
X163311400Y-88087500D01*
X163314646Y-88087163D01*
X163314650Y-88087163D01*
X163410308Y-88077238D01*
X163410312Y-88077237D01*
X163417166Y-88076526D01*
X163423702Y-88074345D01*
X163423704Y-88074345D01*
X163573499Y-88024369D01*
X163584946Y-88020550D01*
X163735348Y-87927478D01*
X163860305Y-87802303D01*
X163864147Y-87796071D01*
X163868682Y-87790328D01*
X163871066Y-87792211D01*
X163913635Y-87753895D01*
X163968131Y-87741500D01*
X164194047Y-87741500D01*
X164262168Y-87761502D01*
X164292676Y-87792536D01*
X164294125Y-87791388D01*
X164298668Y-87797120D01*
X164302522Y-87803348D01*
X164427697Y-87928305D01*
X164433927Y-87932145D01*
X164433928Y-87932146D01*
X164571090Y-88016694D01*
X164578262Y-88021115D01*
X164630098Y-88038308D01*
X164739611Y-88074632D01*
X164739613Y-88074632D01*
X164746139Y-88076797D01*
X164752975Y-88077497D01*
X164752978Y-88077498D01*
X164796031Y-88081909D01*
X164850600Y-88087500D01*
X165851400Y-88087500D01*
X165854646Y-88087163D01*
X165854650Y-88087163D01*
X165950308Y-88077238D01*
X165950312Y-88077237D01*
X165957166Y-88076526D01*
X165963702Y-88074345D01*
X165963704Y-88074345D01*
X166113499Y-88024369D01*
X166124946Y-88020550D01*
X166275348Y-87927478D01*
X166400305Y-87802303D01*
X166404147Y-87796071D01*
X166408682Y-87790328D01*
X166411066Y-87792211D01*
X166453635Y-87753895D01*
X166508131Y-87741500D01*
X166734047Y-87741500D01*
X166802168Y-87761502D01*
X166832676Y-87792536D01*
X166834125Y-87791388D01*
X166838668Y-87797120D01*
X166842522Y-87803348D01*
X166967697Y-87928305D01*
X166973927Y-87932145D01*
X166973928Y-87932146D01*
X167111090Y-88016694D01*
X167118262Y-88021115D01*
X167170098Y-88038308D01*
X167279611Y-88074632D01*
X167279613Y-88074632D01*
X167286139Y-88076797D01*
X167292975Y-88077497D01*
X167292978Y-88077498D01*
X167336031Y-88081909D01*
X167390600Y-88087500D01*
X168391400Y-88087500D01*
X168394646Y-88087163D01*
X168394650Y-88087163D01*
X168490308Y-88077238D01*
X168490312Y-88077237D01*
X168497166Y-88076526D01*
X168503702Y-88074345D01*
X168503704Y-88074345D01*
X168653499Y-88024369D01*
X168664946Y-88020550D01*
X168815348Y-87927478D01*
X168940305Y-87802303D01*
X168944147Y-87796071D01*
X168948682Y-87790328D01*
X168951066Y-87792211D01*
X168993635Y-87753895D01*
X169048131Y-87741500D01*
X169274047Y-87741500D01*
X169342168Y-87761502D01*
X169372676Y-87792536D01*
X169374125Y-87791388D01*
X169378668Y-87797120D01*
X169382522Y-87803348D01*
X169507697Y-87928305D01*
X169513927Y-87932145D01*
X169513928Y-87932146D01*
X169651090Y-88016694D01*
X169658262Y-88021115D01*
X169710098Y-88038308D01*
X169819611Y-88074632D01*
X169819613Y-88074632D01*
X169826139Y-88076797D01*
X169832975Y-88077497D01*
X169832978Y-88077498D01*
X169876031Y-88081909D01*
X169930600Y-88087500D01*
X170931400Y-88087500D01*
X170934646Y-88087163D01*
X170934650Y-88087163D01*
X171030308Y-88077238D01*
X171030312Y-88077237D01*
X171037166Y-88076526D01*
X171043702Y-88074345D01*
X171043704Y-88074345D01*
X171193499Y-88024369D01*
X171204946Y-88020550D01*
X171355348Y-87927478D01*
X171480305Y-87802303D01*
X171484147Y-87796071D01*
X171488682Y-87790328D01*
X171491066Y-87792211D01*
X171533635Y-87753895D01*
X171588131Y-87741500D01*
X171814047Y-87741500D01*
X171882168Y-87761502D01*
X171912676Y-87792536D01*
X171914125Y-87791388D01*
X171918668Y-87797120D01*
X171922522Y-87803348D01*
X172047697Y-87928305D01*
X172053927Y-87932145D01*
X172053928Y-87932146D01*
X172148616Y-87990513D01*
X172196110Y-88043286D01*
X172208500Y-88097773D01*
X172208500Y-92306929D01*
X172191619Y-92369928D01*
X172136473Y-92465444D01*
X172077458Y-92647072D01*
X172057496Y-92837000D01*
X172058186Y-92843565D01*
X172066817Y-92925680D01*
X172077458Y-93026928D01*
X172136473Y-93208556D01*
X172231960Y-93373944D01*
X172236378Y-93378851D01*
X172236379Y-93378852D01*
X172247089Y-93390747D01*
X172359747Y-93515866D01*
X172514248Y-93628118D01*
X172520276Y-93630802D01*
X172520278Y-93630803D01*
X172682681Y-93703109D01*
X172688712Y-93705794D01*
X172781002Y-93725411D01*
X172869056Y-93744128D01*
X172869061Y-93744128D01*
X172875513Y-93745500D01*
X173066487Y-93745500D01*
X173072939Y-93744128D01*
X173072944Y-93744128D01*
X173160998Y-93725411D01*
X173253288Y-93705794D01*
X173259319Y-93703109D01*
X173421722Y-93630803D01*
X173421724Y-93630802D01*
X173427752Y-93628118D01*
X173582253Y-93515866D01*
X173694911Y-93390747D01*
X173705621Y-93378852D01*
X173705622Y-93378851D01*
X173710040Y-93373944D01*
X173805527Y-93208556D01*
X173864542Y-93026928D01*
X173875184Y-92925680D01*
X173883814Y-92843565D01*
X173884504Y-92837000D01*
X173864542Y-92647072D01*
X173805527Y-92465444D01*
X173750381Y-92369928D01*
X173733500Y-92306929D01*
X173733500Y-90331161D01*
X177619393Y-90331161D01*
X177628687Y-90343175D01*
X177669088Y-90371464D01*
X177678584Y-90376947D01*
X177868113Y-90465326D01*
X177878405Y-90469072D01*
X178080401Y-90523196D01*
X178091196Y-90525099D01*
X178299525Y-90543326D01*
X178310475Y-90543326D01*
X178518804Y-90525099D01*
X178529599Y-90523196D01*
X178731595Y-90469072D01*
X178741887Y-90465326D01*
X178931416Y-90376947D01*
X178940912Y-90371464D01*
X178982148Y-90342590D01*
X178990523Y-90332112D01*
X178983457Y-90318668D01*
X178317811Y-89653021D01*
X178303868Y-89645408D01*
X178302034Y-89645539D01*
X178295420Y-89649790D01*
X177625820Y-90319391D01*
X177619393Y-90331161D01*
X173733500Y-90331161D01*
X173733500Y-89286475D01*
X177042674Y-89286475D01*
X177060901Y-89494804D01*
X177062804Y-89505599D01*
X177116928Y-89707595D01*
X177120674Y-89717887D01*
X177209054Y-89907417D01*
X177214534Y-89916907D01*
X177243411Y-89958149D01*
X177253887Y-89966523D01*
X177267334Y-89959455D01*
X177932979Y-89293811D01*
X177939356Y-89282132D01*
X178669408Y-89282132D01*
X178669539Y-89283966D01*
X178673790Y-89290580D01*
X179343391Y-89960180D01*
X179355161Y-89966607D01*
X179367176Y-89957311D01*
X179395466Y-89916907D01*
X179400946Y-89907417D01*
X179460529Y-89779640D01*
X179507446Y-89726355D01*
X179575724Y-89706894D01*
X179643684Y-89727436D01*
X179688919Y-89779640D01*
X179748618Y-89907666D01*
X179748621Y-89907671D01*
X179750944Y-89912653D01*
X179754100Y-89917160D01*
X179754101Y-89917162D01*
X179865123Y-90075717D01*
X179877251Y-90093038D01*
X180032962Y-90248749D01*
X180037471Y-90251906D01*
X180037473Y-90251908D01*
X180097081Y-90293646D01*
X180213346Y-90375056D01*
X180412924Y-90468120D01*
X180625629Y-90525115D01*
X180845000Y-90544307D01*
X181064371Y-90525115D01*
X181277076Y-90468120D01*
X181476654Y-90375056D01*
X181592919Y-90293646D01*
X181652527Y-90251908D01*
X181652529Y-90251906D01*
X181657038Y-90248749D01*
X181812749Y-90093038D01*
X181824878Y-90075717D01*
X181897287Y-89972305D01*
X181952744Y-89927977D01*
X182023363Y-89920668D01*
X182086724Y-89952699D01*
X182122709Y-90013900D01*
X182126500Y-90044576D01*
X182126500Y-90079134D01*
X182133255Y-90141316D01*
X182184385Y-90277705D01*
X182271739Y-90394261D01*
X182388295Y-90481615D01*
X182524684Y-90532745D01*
X182586866Y-90539500D01*
X184183134Y-90539500D01*
X184245316Y-90532745D01*
X184381705Y-90481615D01*
X184498261Y-90394261D01*
X184585615Y-90277705D01*
X184636745Y-90141316D01*
X184643500Y-90079134D01*
X184643500Y-88482866D01*
X184636745Y-88420684D01*
X184585615Y-88284295D01*
X184498261Y-88167739D01*
X184381705Y-88080385D01*
X184245316Y-88029255D01*
X184183134Y-88022500D01*
X182586866Y-88022500D01*
X182524684Y-88029255D01*
X182388295Y-88080385D01*
X182271739Y-88167739D01*
X182184385Y-88284295D01*
X182133255Y-88420684D01*
X182126500Y-88482866D01*
X182126500Y-88517424D01*
X182106498Y-88585545D01*
X182052842Y-88632038D01*
X181982568Y-88642142D01*
X181917988Y-88612648D01*
X181897287Y-88589695D01*
X181815908Y-88473473D01*
X181815906Y-88473470D01*
X181812749Y-88468962D01*
X181657038Y-88313251D01*
X181646392Y-88305796D01*
X181525722Y-88221302D01*
X181476654Y-88186944D01*
X181277076Y-88093880D01*
X181064371Y-88036885D01*
X180845000Y-88017693D01*
X180625629Y-88036885D01*
X180412924Y-88093880D01*
X180378728Y-88109826D01*
X180218334Y-88184618D01*
X180218329Y-88184621D01*
X180213347Y-88186944D01*
X180208840Y-88190100D01*
X180208838Y-88190101D01*
X180037473Y-88310092D01*
X180037470Y-88310094D01*
X180032962Y-88313251D01*
X179877251Y-88468962D01*
X179874094Y-88473470D01*
X179874092Y-88473473D01*
X179755989Y-88642142D01*
X179750944Y-88649347D01*
X179748621Y-88654329D01*
X179748618Y-88654334D01*
X179688919Y-88782360D01*
X179642002Y-88835645D01*
X179573724Y-88855106D01*
X179505764Y-88834564D01*
X179460529Y-88782360D01*
X179400946Y-88654583D01*
X179395466Y-88645093D01*
X179366589Y-88603851D01*
X179356113Y-88595477D01*
X179342666Y-88602545D01*
X178677021Y-89268189D01*
X178669408Y-89282132D01*
X177939356Y-89282132D01*
X177940592Y-89279868D01*
X177940461Y-89278034D01*
X177936210Y-89271420D01*
X177266609Y-88601820D01*
X177254839Y-88595393D01*
X177242824Y-88604689D01*
X177214534Y-88645093D01*
X177209054Y-88654583D01*
X177120674Y-88844113D01*
X177116928Y-88854405D01*
X177062804Y-89056401D01*
X177060901Y-89067196D01*
X177042674Y-89275525D01*
X177042674Y-89286475D01*
X173733500Y-89286475D01*
X173733500Y-88097835D01*
X173753502Y-88029714D01*
X173793197Y-87990691D01*
X173837469Y-87963295D01*
X173895348Y-87927478D01*
X174020305Y-87802303D01*
X174020656Y-87802653D01*
X174074693Y-87764344D01*
X174115655Y-87757500D01*
X174366354Y-87757500D01*
X174434475Y-87777502D01*
X174461893Y-87802332D01*
X174462522Y-87803348D01*
X174587697Y-87928305D01*
X174593927Y-87932145D01*
X174593928Y-87932146D01*
X174731090Y-88016694D01*
X174738262Y-88021115D01*
X174790098Y-88038308D01*
X174899611Y-88074632D01*
X174899613Y-88074632D01*
X174906139Y-88076797D01*
X174912975Y-88077497D01*
X174912978Y-88077498D01*
X174956031Y-88081909D01*
X175010600Y-88087500D01*
X176011400Y-88087500D01*
X176014646Y-88087163D01*
X176014650Y-88087163D01*
X176110308Y-88077238D01*
X176110312Y-88077237D01*
X176117166Y-88076526D01*
X176123702Y-88074345D01*
X176123704Y-88074345D01*
X176273499Y-88024369D01*
X176284946Y-88020550D01*
X176435348Y-87927478D01*
X176560305Y-87802303D01*
X176564147Y-87796071D01*
X176568682Y-87790328D01*
X176571066Y-87792211D01*
X176613635Y-87753895D01*
X176668131Y-87741500D01*
X176894047Y-87741500D01*
X176962168Y-87761502D01*
X176992676Y-87792536D01*
X176994125Y-87791388D01*
X176998668Y-87797120D01*
X177002522Y-87803348D01*
X177127697Y-87928305D01*
X177133927Y-87932145D01*
X177133928Y-87932146D01*
X177271090Y-88016694D01*
X177278262Y-88021115D01*
X177330098Y-88038308D01*
X177439611Y-88074632D01*
X177439613Y-88074632D01*
X177446139Y-88076797D01*
X177452977Y-88077498D01*
X177452979Y-88077498D01*
X177481158Y-88080385D01*
X177506535Y-88082985D01*
X177572263Y-88109826D01*
X177613045Y-88167941D01*
X177619023Y-88221302D01*
X177618355Y-88227753D01*
X177626545Y-88243334D01*
X178292189Y-88908979D01*
X178306132Y-88916592D01*
X178307966Y-88916461D01*
X178314580Y-88912210D01*
X178984180Y-88242609D01*
X178990607Y-88230839D01*
X178981313Y-88218825D01*
X178940912Y-88190536D01*
X178931413Y-88185052D01*
X178930515Y-88184633D01*
X178930186Y-88184344D01*
X178926652Y-88182303D01*
X178927062Y-88181593D01*
X178877232Y-88137714D01*
X178857773Y-88069436D01*
X178878317Y-88001477D01*
X178917464Y-87963298D01*
X178975348Y-87927478D01*
X179100305Y-87802303D01*
X179104147Y-87796071D01*
X179108682Y-87790328D01*
X179111066Y-87792211D01*
X179153635Y-87753895D01*
X179208131Y-87741500D01*
X184526354Y-87741500D01*
X184594475Y-87761502D01*
X184621893Y-87786332D01*
X184622522Y-87787348D01*
X184627701Y-87792518D01*
X184642693Y-87807484D01*
X184747697Y-87912305D01*
X184753927Y-87916145D01*
X184753928Y-87916146D01*
X184891090Y-88000694D01*
X184898262Y-88005115D01*
X184968471Y-88028402D01*
X185059611Y-88058632D01*
X185059613Y-88058632D01*
X185066139Y-88060797D01*
X185072975Y-88061497D01*
X185072978Y-88061498D01*
X185116031Y-88065909D01*
X185170600Y-88071500D01*
X186171400Y-88071500D01*
X186174646Y-88071163D01*
X186174650Y-88071163D01*
X186270308Y-88061238D01*
X186270312Y-88061237D01*
X186277166Y-88060526D01*
X186283702Y-88058345D01*
X186283704Y-88058345D01*
X186415806Y-88014272D01*
X186444946Y-88004550D01*
X186595348Y-87911478D01*
X186720305Y-87786303D01*
X186724147Y-87780071D01*
X186728682Y-87774328D01*
X186731066Y-87776211D01*
X186773635Y-87737895D01*
X186828131Y-87725500D01*
X193652972Y-87725500D01*
X193721093Y-87745502D01*
X193742067Y-87762405D01*
X201815903Y-95836241D01*
X201849929Y-95898553D01*
X201852095Y-95938723D01*
X201834251Y-96105695D01*
X201834548Y-96110848D01*
X201834548Y-96110851D01*
X201846029Y-96309968D01*
X201847110Y-96328715D01*
X201848247Y-96333761D01*
X201848248Y-96333767D01*
X201872304Y-96440508D01*
X201896222Y-96546639D01*
X201980266Y-96753616D01*
X202020745Y-96819672D01*
X202048903Y-96865621D01*
X202096987Y-96944088D01*
X202243250Y-97112938D01*
X202247225Y-97116238D01*
X202247231Y-97116244D01*
X202252425Y-97120556D01*
X202292059Y-97179460D01*
X202293555Y-97250441D01*
X202256439Y-97310962D01*
X202216168Y-97335480D01*
X202108946Y-97375676D01*
X202093351Y-97384214D01*
X201991276Y-97460715D01*
X201978715Y-97473276D01*
X201902214Y-97575351D01*
X201893676Y-97590946D01*
X201848522Y-97711394D01*
X201844895Y-97726649D01*
X201839369Y-97777514D01*
X201839000Y-97784328D01*
X201839000Y-98406885D01*
X201843475Y-98422124D01*
X201844865Y-98423329D01*
X201852548Y-98425000D01*
X203325000Y-98425000D01*
X203393121Y-98445002D01*
X203439614Y-98498658D01*
X203451000Y-98551000D01*
X203451000Y-100018884D01*
X203455475Y-100034123D01*
X203456865Y-100035328D01*
X203464548Y-100036999D01*
X204087000Y-100036999D01*
X204155121Y-100057001D01*
X204201614Y-100110657D01*
X204213000Y-100162999D01*
X204213000Y-102363000D01*
X204192998Y-102431121D01*
X204139342Y-102477614D01*
X204087000Y-102489000D01*
X157485702Y-102489000D01*
X157484932Y-102488998D01*
X157411284Y-102488548D01*
X157411283Y-102488548D01*
X157407348Y-102488524D01*
X157406004Y-102488908D01*
X157404659Y-102489000D01*
X156969000Y-102489000D01*
X156969000Y-102988298D01*
X156968998Y-102989068D01*
X156968524Y-103066652D01*
X156968908Y-103067996D01*
X156969000Y-103069341D01*
X156969000Y-108077106D01*
X156948998Y-108145227D01*
X156895342Y-108191720D01*
X156825068Y-108201824D01*
X156760488Y-108172330D01*
X156727451Y-108127349D01*
X156648419Y-107945590D01*
X156646354Y-107940840D01*
X156525014Y-107753277D01*
X156374670Y-107588051D01*
X156370619Y-107584852D01*
X156370615Y-107584848D01*
X156203414Y-107452800D01*
X156203410Y-107452798D01*
X156199359Y-107449598D01*
X156163028Y-107429542D01*
X156100418Y-107394980D01*
X156003789Y-107341638D01*
X155998920Y-107339914D01*
X155998916Y-107339912D01*
X155798087Y-107268795D01*
X155798083Y-107268794D01*
X155793212Y-107267069D01*
X155788119Y-107266162D01*
X155788116Y-107266161D01*
X155578373Y-107228800D01*
X155578367Y-107228799D01*
X155573284Y-107227894D01*
X155499452Y-107226992D01*
X155355081Y-107225228D01*
X155355079Y-107225228D01*
X155349911Y-107225165D01*
X155129091Y-107258955D01*
X154916756Y-107328357D01*
X154718607Y-107431507D01*
X154714474Y-107434610D01*
X154714471Y-107434612D01*
X154544100Y-107562530D01*
X154539965Y-107565635D01*
X154385629Y-107727138D01*
X154278201Y-107884621D01*
X154223293Y-107929621D01*
X154152768Y-107937792D01*
X154089021Y-107906538D01*
X154068324Y-107882054D01*
X153987822Y-107757617D01*
X153987820Y-107757614D01*
X153985014Y-107753277D01*
X153834670Y-107588051D01*
X153830619Y-107584852D01*
X153830615Y-107584848D01*
X153663414Y-107452800D01*
X153663410Y-107452798D01*
X153659359Y-107449598D01*
X153623028Y-107429542D01*
X153560418Y-107394980D01*
X153463789Y-107341638D01*
X153458920Y-107339914D01*
X153458916Y-107339912D01*
X153258087Y-107268795D01*
X153258083Y-107268794D01*
X153253212Y-107267069D01*
X153248119Y-107266162D01*
X153248116Y-107266161D01*
X153038373Y-107228800D01*
X153038367Y-107228799D01*
X153033284Y-107227894D01*
X152959452Y-107226992D01*
X152815081Y-107225228D01*
X152815079Y-107225228D01*
X152809911Y-107225165D01*
X152589091Y-107258955D01*
X152376756Y-107328357D01*
X152178607Y-107431507D01*
X152174474Y-107434610D01*
X152174471Y-107434612D01*
X152004100Y-107562530D01*
X151999965Y-107565635D01*
X151845629Y-107727138D01*
X151738201Y-107884621D01*
X151683293Y-107929621D01*
X151612768Y-107937792D01*
X151549021Y-107906538D01*
X151528324Y-107882054D01*
X151447822Y-107757617D01*
X151447820Y-107757614D01*
X151445014Y-107753277D01*
X151294670Y-107588051D01*
X151290619Y-107584852D01*
X151290615Y-107584848D01*
X151123414Y-107452800D01*
X151123410Y-107452798D01*
X151119359Y-107449598D01*
X151083028Y-107429542D01*
X151020418Y-107394980D01*
X150923789Y-107341638D01*
X150918920Y-107339914D01*
X150918916Y-107339912D01*
X150718087Y-107268795D01*
X150718083Y-107268794D01*
X150713212Y-107267069D01*
X150708119Y-107266162D01*
X150708116Y-107266161D01*
X150498373Y-107228800D01*
X150498367Y-107228799D01*
X150493284Y-107227894D01*
X150419452Y-107226992D01*
X150275081Y-107225228D01*
X150275079Y-107225228D01*
X150269911Y-107225165D01*
X150049091Y-107258955D01*
X149836756Y-107328357D01*
X149638607Y-107431507D01*
X149634474Y-107434610D01*
X149634471Y-107434612D01*
X149464100Y-107562530D01*
X149459965Y-107565635D01*
X149305629Y-107727138D01*
X149198204Y-107884618D01*
X149197898Y-107885066D01*
X149142987Y-107930069D01*
X149072462Y-107938240D01*
X149008715Y-107906986D01*
X148988018Y-107882502D01*
X148907426Y-107757926D01*
X148901136Y-107749757D01*
X148757806Y-107592240D01*
X148750273Y-107585215D01*
X148583139Y-107453222D01*
X148574552Y-107447517D01*
X148388117Y-107344599D01*
X148378705Y-107340369D01*
X148177959Y-107269280D01*
X148167988Y-107266646D01*
X148096837Y-107253972D01*
X148083540Y-107255432D01*
X148079000Y-107269989D01*
X148079000Y-112443517D01*
X148083064Y-112457359D01*
X148096478Y-112459393D01*
X148103184Y-112458534D01*
X148113262Y-112456392D01*
X148317255Y-112395191D01*
X148326842Y-112391433D01*
X148518095Y-112297739D01*
X148526945Y-112292464D01*
X148700328Y-112168792D01*
X148708200Y-112162139D01*
X148859052Y-112011812D01*
X148865730Y-112003965D01*
X148993022Y-111826819D01*
X148994279Y-111827722D01*
X149041373Y-111784362D01*
X149111311Y-111772145D01*
X149176751Y-111799678D01*
X149204579Y-111831511D01*
X149264987Y-111930088D01*
X149411250Y-112098938D01*
X149583126Y-112241632D01*
X149776000Y-112354338D01*
X149984692Y-112434030D01*
X149989760Y-112435061D01*
X149989763Y-112435062D01*
X150084862Y-112454410D01*
X150203597Y-112478567D01*
X150208772Y-112478757D01*
X150208774Y-112478757D01*
X150421673Y-112486564D01*
X150421677Y-112486564D01*
X150426837Y-112486753D01*
X150431957Y-112486097D01*
X150431959Y-112486097D01*
X150643288Y-112459025D01*
X150643289Y-112459025D01*
X150648416Y-112458368D01*
X150653366Y-112456883D01*
X150857429Y-112395661D01*
X150857434Y-112395659D01*
X150862384Y-112394174D01*
X151062994Y-112295896D01*
X151244860Y-112166173D01*
X151403096Y-112008489D01*
X151533453Y-111827077D01*
X151534776Y-111828028D01*
X151581645Y-111784857D01*
X151651580Y-111772625D01*
X151717026Y-111800144D01*
X151744875Y-111831994D01*
X151804987Y-111930088D01*
X151951250Y-112098938D01*
X152123126Y-112241632D01*
X152316000Y-112354338D01*
X152524692Y-112434030D01*
X152529760Y-112435061D01*
X152529763Y-112435062D01*
X152624862Y-112454410D01*
X152743597Y-112478567D01*
X152748772Y-112478757D01*
X152748774Y-112478757D01*
X152961673Y-112486564D01*
X152961677Y-112486564D01*
X152966837Y-112486753D01*
X152971957Y-112486097D01*
X152971959Y-112486097D01*
X153183288Y-112459025D01*
X153183289Y-112459025D01*
X153188416Y-112458368D01*
X153193366Y-112456883D01*
X153397429Y-112395661D01*
X153397434Y-112395659D01*
X153402384Y-112394174D01*
X153602994Y-112295896D01*
X153784860Y-112166173D01*
X153943096Y-112008489D01*
X154073453Y-111827077D01*
X154074776Y-111828028D01*
X154121645Y-111784857D01*
X154191580Y-111772625D01*
X154257026Y-111800144D01*
X154284875Y-111831994D01*
X154344987Y-111930088D01*
X154491250Y-112098938D01*
X154663126Y-112241632D01*
X154856000Y-112354338D01*
X155064692Y-112434030D01*
X155069760Y-112435061D01*
X155069763Y-112435062D01*
X155164862Y-112454410D01*
X155283597Y-112478567D01*
X155288772Y-112478757D01*
X155288774Y-112478757D01*
X155501673Y-112486564D01*
X155501677Y-112486564D01*
X155506837Y-112486753D01*
X155511957Y-112486097D01*
X155511959Y-112486097D01*
X155723288Y-112459025D01*
X155723289Y-112459025D01*
X155728416Y-112458368D01*
X155733366Y-112456883D01*
X155937429Y-112395661D01*
X155937434Y-112395659D01*
X155942384Y-112394174D01*
X156142994Y-112295896D01*
X156324860Y-112166173D01*
X156483096Y-112008489D01*
X156613453Y-111827077D01*
X156626995Y-111799678D01*
X156710136Y-111631453D01*
X156710137Y-111631451D01*
X156712430Y-111626811D01*
X156722442Y-111593858D01*
X156761383Y-111534494D01*
X156826237Y-111505607D01*
X156896413Y-111516369D01*
X156949631Y-111563362D01*
X156969000Y-111630487D01*
X156969000Y-115571000D01*
X156948998Y-115639121D01*
X156895342Y-115685614D01*
X156843000Y-115697000D01*
X93849000Y-115697000D01*
X93780879Y-115676998D01*
X93734386Y-115623342D01*
X93723000Y-115571000D01*
X93723000Y-108551695D01*
X100742251Y-108551695D01*
X100755110Y-108774715D01*
X100756247Y-108779761D01*
X100756248Y-108779767D01*
X100777275Y-108873069D01*
X100804222Y-108992639D01*
X100888266Y-109199616D01*
X100939019Y-109282438D01*
X101002291Y-109385688D01*
X101004987Y-109390088D01*
X101151250Y-109558938D01*
X101155230Y-109562242D01*
X101159981Y-109566187D01*
X101199616Y-109625090D01*
X101201113Y-109696071D01*
X101163997Y-109756593D01*
X101123725Y-109781112D01*
X101083638Y-109796140D01*
X101008295Y-109824385D01*
X100891739Y-109911739D01*
X100804385Y-110028295D01*
X100753255Y-110164684D01*
X100746500Y-110226866D01*
X100746500Y-112023134D01*
X100753255Y-112085316D01*
X100804385Y-112221705D01*
X100891739Y-112338261D01*
X101008295Y-112425615D01*
X101144684Y-112476745D01*
X101206866Y-112483500D01*
X103003134Y-112483500D01*
X103065316Y-112476745D01*
X103201705Y-112425615D01*
X103318261Y-112338261D01*
X103405615Y-112221705D01*
X103427799Y-112162529D01*
X103449598Y-112104382D01*
X103492240Y-112047618D01*
X103558802Y-112022918D01*
X103628150Y-112038126D01*
X103662817Y-112066114D01*
X103691250Y-112098938D01*
X103863126Y-112241632D01*
X104056000Y-112354338D01*
X104264692Y-112434030D01*
X104269760Y-112435061D01*
X104269763Y-112435062D01*
X104364862Y-112454410D01*
X104483597Y-112478567D01*
X104488772Y-112478757D01*
X104488774Y-112478757D01*
X104701673Y-112486564D01*
X104701677Y-112486564D01*
X104706837Y-112486753D01*
X104711957Y-112486097D01*
X104711959Y-112486097D01*
X104923288Y-112459025D01*
X104923289Y-112459025D01*
X104928416Y-112458368D01*
X104933366Y-112456883D01*
X105137429Y-112395661D01*
X105137434Y-112395659D01*
X105142384Y-112394174D01*
X105342994Y-112295896D01*
X105524860Y-112166173D01*
X105683096Y-112008489D01*
X105813453Y-111827077D01*
X105814776Y-111828028D01*
X105861645Y-111784857D01*
X105931580Y-111772625D01*
X105997026Y-111800144D01*
X106024875Y-111831994D01*
X106084987Y-111930088D01*
X106231250Y-112098938D01*
X106403126Y-112241632D01*
X106596000Y-112354338D01*
X106804692Y-112434030D01*
X106809760Y-112435061D01*
X106809763Y-112435062D01*
X106904862Y-112454410D01*
X107023597Y-112478567D01*
X107028772Y-112478757D01*
X107028774Y-112478757D01*
X107241673Y-112486564D01*
X107241677Y-112486564D01*
X107246837Y-112486753D01*
X107251957Y-112486097D01*
X107251959Y-112486097D01*
X107463288Y-112459025D01*
X107463289Y-112459025D01*
X107468416Y-112458368D01*
X107473366Y-112456883D01*
X107677429Y-112395661D01*
X107677434Y-112395659D01*
X107682384Y-112394174D01*
X107882994Y-112295896D01*
X108064860Y-112166173D01*
X108223096Y-112008489D01*
X108353453Y-111827077D01*
X108354776Y-111828028D01*
X108401645Y-111784857D01*
X108471580Y-111772625D01*
X108537026Y-111800144D01*
X108564875Y-111831994D01*
X108624987Y-111930088D01*
X108771250Y-112098938D01*
X108943126Y-112241632D01*
X109136000Y-112354338D01*
X109344692Y-112434030D01*
X109349760Y-112435061D01*
X109349763Y-112435062D01*
X109444862Y-112454410D01*
X109563597Y-112478567D01*
X109568772Y-112478757D01*
X109568774Y-112478757D01*
X109781673Y-112486564D01*
X109781677Y-112486564D01*
X109786837Y-112486753D01*
X109791957Y-112486097D01*
X109791959Y-112486097D01*
X110003288Y-112459025D01*
X110003289Y-112459025D01*
X110008416Y-112458368D01*
X110013366Y-112456883D01*
X110217429Y-112395661D01*
X110217434Y-112395659D01*
X110222384Y-112394174D01*
X110422994Y-112295896D01*
X110604860Y-112166173D01*
X110763096Y-112008489D01*
X110893453Y-111827077D01*
X110894776Y-111828028D01*
X110941645Y-111784857D01*
X111011580Y-111772625D01*
X111077026Y-111800144D01*
X111104875Y-111831994D01*
X111164987Y-111930088D01*
X111311250Y-112098938D01*
X111483126Y-112241632D01*
X111676000Y-112354338D01*
X111884692Y-112434030D01*
X111889760Y-112435061D01*
X111889763Y-112435062D01*
X111984862Y-112454410D01*
X112103597Y-112478567D01*
X112108772Y-112478757D01*
X112108774Y-112478757D01*
X112321673Y-112486564D01*
X112321677Y-112486564D01*
X112326837Y-112486753D01*
X112331957Y-112486097D01*
X112331959Y-112486097D01*
X112543288Y-112459025D01*
X112543289Y-112459025D01*
X112548416Y-112458368D01*
X112553366Y-112456883D01*
X112757429Y-112395661D01*
X112757434Y-112395659D01*
X112762384Y-112394174D01*
X112962994Y-112295896D01*
X113144860Y-112166173D01*
X113303096Y-112008489D01*
X113433453Y-111827077D01*
X113434776Y-111828028D01*
X113481645Y-111784857D01*
X113551580Y-111772625D01*
X113617026Y-111800144D01*
X113644875Y-111831994D01*
X113704987Y-111930088D01*
X113851250Y-112098938D01*
X114023126Y-112241632D01*
X114216000Y-112354338D01*
X114424692Y-112434030D01*
X114429760Y-112435061D01*
X114429763Y-112435062D01*
X114524862Y-112454410D01*
X114643597Y-112478567D01*
X114648772Y-112478757D01*
X114648774Y-112478757D01*
X114861673Y-112486564D01*
X114861677Y-112486564D01*
X114866837Y-112486753D01*
X114871957Y-112486097D01*
X114871959Y-112486097D01*
X115083288Y-112459025D01*
X115083289Y-112459025D01*
X115088416Y-112458368D01*
X115093366Y-112456883D01*
X115297429Y-112395661D01*
X115297434Y-112395659D01*
X115302384Y-112394174D01*
X115502994Y-112295896D01*
X115684860Y-112166173D01*
X115843096Y-112008489D01*
X115973453Y-111827077D01*
X115974640Y-111827930D01*
X116021960Y-111784362D01*
X116091897Y-111772145D01*
X116157338Y-111799678D01*
X116185166Y-111831511D01*
X116242694Y-111925388D01*
X116248777Y-111933699D01*
X116388213Y-112094667D01*
X116395580Y-112101883D01*
X116559434Y-112237916D01*
X116567881Y-112243831D01*
X116751756Y-112351279D01*
X116761042Y-112355729D01*
X116960001Y-112431703D01*
X116969899Y-112434579D01*
X117073250Y-112455606D01*
X117087299Y-112454410D01*
X117091000Y-112444065D01*
X117091000Y-112443517D01*
X117599000Y-112443517D01*
X117603064Y-112457359D01*
X117616478Y-112459393D01*
X117623184Y-112458534D01*
X117633262Y-112456392D01*
X117837255Y-112395191D01*
X117846842Y-112391433D01*
X118038095Y-112297739D01*
X118046945Y-112292464D01*
X118220328Y-112168792D01*
X118228200Y-112162139D01*
X118379052Y-112011812D01*
X118385730Y-112003965D01*
X118513022Y-111826819D01*
X118514279Y-111827722D01*
X118561373Y-111784362D01*
X118631311Y-111772145D01*
X118696751Y-111799678D01*
X118724579Y-111831511D01*
X118784987Y-111930088D01*
X118931250Y-112098938D01*
X119103126Y-112241632D01*
X119296000Y-112354338D01*
X119504692Y-112434030D01*
X119509760Y-112435061D01*
X119509763Y-112435062D01*
X119604862Y-112454410D01*
X119723597Y-112478567D01*
X119728772Y-112478757D01*
X119728774Y-112478757D01*
X119941673Y-112486564D01*
X119941677Y-112486564D01*
X119946837Y-112486753D01*
X119951957Y-112486097D01*
X119951959Y-112486097D01*
X120163288Y-112459025D01*
X120163289Y-112459025D01*
X120168416Y-112458368D01*
X120173366Y-112456883D01*
X120377429Y-112395661D01*
X120377434Y-112395659D01*
X120382384Y-112394174D01*
X120582994Y-112295896D01*
X120764860Y-112166173D01*
X120923096Y-112008489D01*
X121053453Y-111827077D01*
X121054776Y-111828028D01*
X121101645Y-111784857D01*
X121171580Y-111772625D01*
X121237026Y-111800144D01*
X121264875Y-111831994D01*
X121324987Y-111930088D01*
X121471250Y-112098938D01*
X121643126Y-112241632D01*
X121836000Y-112354338D01*
X122044692Y-112434030D01*
X122049760Y-112435061D01*
X122049763Y-112435062D01*
X122144862Y-112454410D01*
X122263597Y-112478567D01*
X122268772Y-112478757D01*
X122268774Y-112478757D01*
X122481673Y-112486564D01*
X122481677Y-112486564D01*
X122486837Y-112486753D01*
X122491957Y-112486097D01*
X122491959Y-112486097D01*
X122703288Y-112459025D01*
X122703289Y-112459025D01*
X122708416Y-112458368D01*
X122713366Y-112456883D01*
X122917429Y-112395661D01*
X122917434Y-112395659D01*
X122922384Y-112394174D01*
X123122994Y-112295896D01*
X123304860Y-112166173D01*
X123463096Y-112008489D01*
X123593453Y-111827077D01*
X123594776Y-111828028D01*
X123641645Y-111784857D01*
X123711580Y-111772625D01*
X123777026Y-111800144D01*
X123804875Y-111831994D01*
X123864987Y-111930088D01*
X124011250Y-112098938D01*
X124183126Y-112241632D01*
X124376000Y-112354338D01*
X124584692Y-112434030D01*
X124589760Y-112435061D01*
X124589763Y-112435062D01*
X124684862Y-112454410D01*
X124803597Y-112478567D01*
X124808772Y-112478757D01*
X124808774Y-112478757D01*
X125021673Y-112486564D01*
X125021677Y-112486564D01*
X125026837Y-112486753D01*
X125031957Y-112486097D01*
X125031959Y-112486097D01*
X125243288Y-112459025D01*
X125243289Y-112459025D01*
X125248416Y-112458368D01*
X125253366Y-112456883D01*
X125457429Y-112395661D01*
X125457434Y-112395659D01*
X125462384Y-112394174D01*
X125662994Y-112295896D01*
X125844860Y-112166173D01*
X126003096Y-112008489D01*
X126133453Y-111827077D01*
X126134640Y-111827930D01*
X126181960Y-111784362D01*
X126251897Y-111772145D01*
X126317338Y-111799678D01*
X126345166Y-111831511D01*
X126402694Y-111925388D01*
X126408777Y-111933699D01*
X126548213Y-112094667D01*
X126555580Y-112101883D01*
X126719434Y-112237916D01*
X126727881Y-112243831D01*
X126911756Y-112351279D01*
X126921042Y-112355729D01*
X127120001Y-112431703D01*
X127129899Y-112434579D01*
X127233250Y-112455606D01*
X127247299Y-112454410D01*
X127251000Y-112444065D01*
X127251000Y-112443517D01*
X127759000Y-112443517D01*
X127763064Y-112457359D01*
X127776478Y-112459393D01*
X127783184Y-112458534D01*
X127793262Y-112456392D01*
X127997255Y-112395191D01*
X128006842Y-112391433D01*
X128198095Y-112297739D01*
X128206945Y-112292464D01*
X128380328Y-112168792D01*
X128388200Y-112162139D01*
X128539052Y-112011812D01*
X128545730Y-112003965D01*
X128673022Y-111826819D01*
X128674279Y-111827722D01*
X128721373Y-111784362D01*
X128791311Y-111772145D01*
X128856751Y-111799678D01*
X128884579Y-111831511D01*
X128944987Y-111930088D01*
X129091250Y-112098938D01*
X129263126Y-112241632D01*
X129456000Y-112354338D01*
X129664692Y-112434030D01*
X129669760Y-112435061D01*
X129669763Y-112435062D01*
X129764862Y-112454410D01*
X129883597Y-112478567D01*
X129888772Y-112478757D01*
X129888774Y-112478757D01*
X130101673Y-112486564D01*
X130101677Y-112486564D01*
X130106837Y-112486753D01*
X130111957Y-112486097D01*
X130111959Y-112486097D01*
X130323288Y-112459025D01*
X130323289Y-112459025D01*
X130328416Y-112458368D01*
X130333366Y-112456883D01*
X130537429Y-112395661D01*
X130537434Y-112395659D01*
X130542384Y-112394174D01*
X130742994Y-112295896D01*
X130924860Y-112166173D01*
X131083096Y-112008489D01*
X131213453Y-111827077D01*
X131214776Y-111828028D01*
X131261645Y-111784857D01*
X131331580Y-111772625D01*
X131397026Y-111800144D01*
X131424875Y-111831994D01*
X131484987Y-111930088D01*
X131631250Y-112098938D01*
X131803126Y-112241632D01*
X131996000Y-112354338D01*
X132204692Y-112434030D01*
X132209760Y-112435061D01*
X132209763Y-112435062D01*
X132304862Y-112454410D01*
X132423597Y-112478567D01*
X132428772Y-112478757D01*
X132428774Y-112478757D01*
X132641673Y-112486564D01*
X132641677Y-112486564D01*
X132646837Y-112486753D01*
X132651957Y-112486097D01*
X132651959Y-112486097D01*
X132863288Y-112459025D01*
X132863289Y-112459025D01*
X132868416Y-112458368D01*
X132873366Y-112456883D01*
X133077429Y-112395661D01*
X133077434Y-112395659D01*
X133082384Y-112394174D01*
X133282994Y-112295896D01*
X133464860Y-112166173D01*
X133623096Y-112008489D01*
X133753453Y-111827077D01*
X133754776Y-111828028D01*
X133801645Y-111784857D01*
X133871580Y-111772625D01*
X133937026Y-111800144D01*
X133964875Y-111831994D01*
X134024987Y-111930088D01*
X134171250Y-112098938D01*
X134343126Y-112241632D01*
X134536000Y-112354338D01*
X134744692Y-112434030D01*
X134749760Y-112435061D01*
X134749763Y-112435062D01*
X134844862Y-112454410D01*
X134963597Y-112478567D01*
X134968772Y-112478757D01*
X134968774Y-112478757D01*
X135181673Y-112486564D01*
X135181677Y-112486564D01*
X135186837Y-112486753D01*
X135191957Y-112486097D01*
X135191959Y-112486097D01*
X135403288Y-112459025D01*
X135403289Y-112459025D01*
X135408416Y-112458368D01*
X135413366Y-112456883D01*
X135617429Y-112395661D01*
X135617434Y-112395659D01*
X135622384Y-112394174D01*
X135822994Y-112295896D01*
X136004860Y-112166173D01*
X136163096Y-112008489D01*
X136293453Y-111827077D01*
X136294640Y-111827930D01*
X136341960Y-111784362D01*
X136411897Y-111772145D01*
X136477338Y-111799678D01*
X136505166Y-111831511D01*
X136562694Y-111925388D01*
X136568777Y-111933699D01*
X136708213Y-112094667D01*
X136715580Y-112101883D01*
X136879434Y-112237916D01*
X136887881Y-112243831D01*
X137071756Y-112351279D01*
X137081042Y-112355729D01*
X137280001Y-112431703D01*
X137289899Y-112434579D01*
X137393250Y-112455606D01*
X137407299Y-112454410D01*
X137411000Y-112444065D01*
X137411000Y-112443517D01*
X137919000Y-112443517D01*
X137923064Y-112457359D01*
X137936478Y-112459393D01*
X137943184Y-112458534D01*
X137953262Y-112456392D01*
X138157255Y-112395191D01*
X138166842Y-112391433D01*
X138358095Y-112297739D01*
X138366945Y-112292464D01*
X138540328Y-112168792D01*
X138548200Y-112162139D01*
X138699052Y-112011812D01*
X138705730Y-112003965D01*
X138833022Y-111826819D01*
X138834279Y-111827722D01*
X138881373Y-111784362D01*
X138951311Y-111772145D01*
X139016751Y-111799678D01*
X139044579Y-111831511D01*
X139104987Y-111930088D01*
X139251250Y-112098938D01*
X139423126Y-112241632D01*
X139616000Y-112354338D01*
X139824692Y-112434030D01*
X139829760Y-112435061D01*
X139829763Y-112435062D01*
X139924862Y-112454410D01*
X140043597Y-112478567D01*
X140048772Y-112478757D01*
X140048774Y-112478757D01*
X140261673Y-112486564D01*
X140261677Y-112486564D01*
X140266837Y-112486753D01*
X140271957Y-112486097D01*
X140271959Y-112486097D01*
X140483288Y-112459025D01*
X140483289Y-112459025D01*
X140488416Y-112458368D01*
X140493366Y-112456883D01*
X140697429Y-112395661D01*
X140697434Y-112395659D01*
X140702384Y-112394174D01*
X140902994Y-112295896D01*
X141084860Y-112166173D01*
X141243096Y-112008489D01*
X141373453Y-111827077D01*
X141374776Y-111828028D01*
X141421645Y-111784857D01*
X141491580Y-111772625D01*
X141557026Y-111800144D01*
X141584875Y-111831994D01*
X141644987Y-111930088D01*
X141791250Y-112098938D01*
X141963126Y-112241632D01*
X142156000Y-112354338D01*
X142364692Y-112434030D01*
X142369760Y-112435061D01*
X142369763Y-112435062D01*
X142464862Y-112454410D01*
X142583597Y-112478567D01*
X142588772Y-112478757D01*
X142588774Y-112478757D01*
X142801673Y-112486564D01*
X142801677Y-112486564D01*
X142806837Y-112486753D01*
X142811957Y-112486097D01*
X142811959Y-112486097D01*
X143023288Y-112459025D01*
X143023289Y-112459025D01*
X143028416Y-112458368D01*
X143033366Y-112456883D01*
X143237429Y-112395661D01*
X143237434Y-112395659D01*
X143242384Y-112394174D01*
X143442994Y-112295896D01*
X143624860Y-112166173D01*
X143783096Y-112008489D01*
X143913453Y-111827077D01*
X143914776Y-111828028D01*
X143961645Y-111784857D01*
X144031580Y-111772625D01*
X144097026Y-111800144D01*
X144124875Y-111831994D01*
X144184987Y-111930088D01*
X144331250Y-112098938D01*
X144503126Y-112241632D01*
X144696000Y-112354338D01*
X144904692Y-112434030D01*
X144909760Y-112435061D01*
X144909763Y-112435062D01*
X145004862Y-112454410D01*
X145123597Y-112478567D01*
X145128772Y-112478757D01*
X145128774Y-112478757D01*
X145341673Y-112486564D01*
X145341677Y-112486564D01*
X145346837Y-112486753D01*
X145351957Y-112486097D01*
X145351959Y-112486097D01*
X145563288Y-112459025D01*
X145563289Y-112459025D01*
X145568416Y-112458368D01*
X145573366Y-112456883D01*
X145777429Y-112395661D01*
X145777434Y-112395659D01*
X145782384Y-112394174D01*
X145982994Y-112295896D01*
X146164860Y-112166173D01*
X146323096Y-112008489D01*
X146453453Y-111827077D01*
X146454640Y-111827930D01*
X146501960Y-111784362D01*
X146571897Y-111772145D01*
X146637338Y-111799678D01*
X146665166Y-111831511D01*
X146722694Y-111925388D01*
X146728777Y-111933699D01*
X146868213Y-112094667D01*
X146875580Y-112101883D01*
X147039434Y-112237916D01*
X147047881Y-112243831D01*
X147231756Y-112351279D01*
X147241042Y-112355729D01*
X147440001Y-112431703D01*
X147449899Y-112434579D01*
X147553250Y-112455606D01*
X147567299Y-112454410D01*
X147571000Y-112444065D01*
X147571000Y-107268102D01*
X147567082Y-107254758D01*
X147552806Y-107252771D01*
X147514324Y-107258660D01*
X147504288Y-107261051D01*
X147301868Y-107327212D01*
X147292359Y-107331209D01*
X147103463Y-107429542D01*
X147094738Y-107435036D01*
X146924433Y-107562905D01*
X146916726Y-107569748D01*
X146769590Y-107723717D01*
X146763109Y-107731722D01*
X146658498Y-107885074D01*
X146603587Y-107930076D01*
X146533062Y-107938247D01*
X146469315Y-107906993D01*
X146448618Y-107882509D01*
X146367822Y-107757617D01*
X146367820Y-107757614D01*
X146365014Y-107753277D01*
X146214670Y-107588051D01*
X146210619Y-107584852D01*
X146210615Y-107584848D01*
X146043414Y-107452800D01*
X146043410Y-107452798D01*
X146039359Y-107449598D01*
X146003028Y-107429542D01*
X145940418Y-107394980D01*
X145843789Y-107341638D01*
X145838920Y-107339914D01*
X145838916Y-107339912D01*
X145638087Y-107268795D01*
X145638083Y-107268794D01*
X145633212Y-107267069D01*
X145628119Y-107266162D01*
X145628116Y-107266161D01*
X145418373Y-107228800D01*
X145418367Y-107228799D01*
X145413284Y-107227894D01*
X145339452Y-107226992D01*
X145195081Y-107225228D01*
X145195079Y-107225228D01*
X145189911Y-107225165D01*
X144969091Y-107258955D01*
X144756756Y-107328357D01*
X144558607Y-107431507D01*
X144554474Y-107434610D01*
X144554471Y-107434612D01*
X144384100Y-107562530D01*
X144379965Y-107565635D01*
X144225629Y-107727138D01*
X144118201Y-107884621D01*
X144063293Y-107929621D01*
X143992768Y-107937792D01*
X143929021Y-107906538D01*
X143908324Y-107882054D01*
X143827822Y-107757617D01*
X143827820Y-107757614D01*
X143825014Y-107753277D01*
X143674670Y-107588051D01*
X143670619Y-107584852D01*
X143670615Y-107584848D01*
X143503414Y-107452800D01*
X143503410Y-107452798D01*
X143499359Y-107449598D01*
X143463028Y-107429542D01*
X143400418Y-107394980D01*
X143303789Y-107341638D01*
X143298920Y-107339914D01*
X143298916Y-107339912D01*
X143098087Y-107268795D01*
X143098083Y-107268794D01*
X143093212Y-107267069D01*
X143088119Y-107266162D01*
X143088116Y-107266161D01*
X142878373Y-107228800D01*
X142878367Y-107228799D01*
X142873284Y-107227894D01*
X142799452Y-107226992D01*
X142655081Y-107225228D01*
X142655079Y-107225228D01*
X142649911Y-107225165D01*
X142429091Y-107258955D01*
X142216756Y-107328357D01*
X142018607Y-107431507D01*
X142014474Y-107434610D01*
X142014471Y-107434612D01*
X141844100Y-107562530D01*
X141839965Y-107565635D01*
X141685629Y-107727138D01*
X141578201Y-107884621D01*
X141523293Y-107929621D01*
X141452768Y-107937792D01*
X141389021Y-107906538D01*
X141368324Y-107882054D01*
X141287822Y-107757617D01*
X141287820Y-107757614D01*
X141285014Y-107753277D01*
X141134670Y-107588051D01*
X141130619Y-107584852D01*
X141130615Y-107584848D01*
X140963414Y-107452800D01*
X140963410Y-107452798D01*
X140959359Y-107449598D01*
X140923028Y-107429542D01*
X140860418Y-107394980D01*
X140763789Y-107341638D01*
X140758920Y-107339914D01*
X140758916Y-107339912D01*
X140558087Y-107268795D01*
X140558083Y-107268794D01*
X140553212Y-107267069D01*
X140548119Y-107266162D01*
X140548116Y-107266161D01*
X140338373Y-107228800D01*
X140338367Y-107228799D01*
X140333284Y-107227894D01*
X140259452Y-107226992D01*
X140115081Y-107225228D01*
X140115079Y-107225228D01*
X140109911Y-107225165D01*
X139889091Y-107258955D01*
X139676756Y-107328357D01*
X139478607Y-107431507D01*
X139474474Y-107434610D01*
X139474471Y-107434612D01*
X139304100Y-107562530D01*
X139299965Y-107565635D01*
X139145629Y-107727138D01*
X139038204Y-107884618D01*
X139037898Y-107885066D01*
X138982987Y-107930069D01*
X138912462Y-107938240D01*
X138848715Y-107906986D01*
X138828018Y-107882502D01*
X138747426Y-107757926D01*
X138741136Y-107749757D01*
X138597806Y-107592240D01*
X138590273Y-107585215D01*
X138423139Y-107453222D01*
X138414552Y-107447517D01*
X138228117Y-107344599D01*
X138218705Y-107340369D01*
X138017959Y-107269280D01*
X138007988Y-107266646D01*
X137936837Y-107253972D01*
X137923540Y-107255432D01*
X137919000Y-107269989D01*
X137919000Y-112443517D01*
X137411000Y-112443517D01*
X137411000Y-107268102D01*
X137407082Y-107254758D01*
X137392806Y-107252771D01*
X137354324Y-107258660D01*
X137344288Y-107261051D01*
X137141868Y-107327212D01*
X137132359Y-107331209D01*
X136943463Y-107429542D01*
X136934738Y-107435036D01*
X136764433Y-107562905D01*
X136756726Y-107569748D01*
X136609590Y-107723717D01*
X136603109Y-107731722D01*
X136498498Y-107885074D01*
X136443587Y-107930076D01*
X136373062Y-107938247D01*
X136309315Y-107906993D01*
X136288618Y-107882509D01*
X136207822Y-107757617D01*
X136207820Y-107757614D01*
X136205014Y-107753277D01*
X136054670Y-107588051D01*
X136050619Y-107584852D01*
X136050615Y-107584848D01*
X135883414Y-107452800D01*
X135883410Y-107452798D01*
X135879359Y-107449598D01*
X135843028Y-107429542D01*
X135780418Y-107394980D01*
X135683789Y-107341638D01*
X135678920Y-107339914D01*
X135678916Y-107339912D01*
X135478087Y-107268795D01*
X135478083Y-107268794D01*
X135473212Y-107267069D01*
X135468119Y-107266162D01*
X135468116Y-107266161D01*
X135258373Y-107228800D01*
X135258367Y-107228799D01*
X135253284Y-107227894D01*
X135179452Y-107226992D01*
X135035081Y-107225228D01*
X135035079Y-107225228D01*
X135029911Y-107225165D01*
X134809091Y-107258955D01*
X134596756Y-107328357D01*
X134398607Y-107431507D01*
X134394474Y-107434610D01*
X134394471Y-107434612D01*
X134224100Y-107562530D01*
X134219965Y-107565635D01*
X134065629Y-107727138D01*
X133958201Y-107884621D01*
X133903293Y-107929621D01*
X133832768Y-107937792D01*
X133769021Y-107906538D01*
X133748324Y-107882054D01*
X133667822Y-107757617D01*
X133667820Y-107757614D01*
X133665014Y-107753277D01*
X133514670Y-107588051D01*
X133510619Y-107584852D01*
X133510615Y-107584848D01*
X133343414Y-107452800D01*
X133343410Y-107452798D01*
X133339359Y-107449598D01*
X133303028Y-107429542D01*
X133240418Y-107394980D01*
X133143789Y-107341638D01*
X133138920Y-107339914D01*
X133138916Y-107339912D01*
X132938087Y-107268795D01*
X132938083Y-107268794D01*
X132933212Y-107267069D01*
X132928119Y-107266162D01*
X132928116Y-107266161D01*
X132718373Y-107228800D01*
X132718367Y-107228799D01*
X132713284Y-107227894D01*
X132639452Y-107226992D01*
X132495081Y-107225228D01*
X132495079Y-107225228D01*
X132489911Y-107225165D01*
X132269091Y-107258955D01*
X132056756Y-107328357D01*
X131858607Y-107431507D01*
X131854474Y-107434610D01*
X131854471Y-107434612D01*
X131684100Y-107562530D01*
X131679965Y-107565635D01*
X131525629Y-107727138D01*
X131418201Y-107884621D01*
X131363293Y-107929621D01*
X131292768Y-107937792D01*
X131229021Y-107906538D01*
X131208324Y-107882054D01*
X131127822Y-107757617D01*
X131127820Y-107757614D01*
X131125014Y-107753277D01*
X130974670Y-107588051D01*
X130970619Y-107584852D01*
X130970615Y-107584848D01*
X130803414Y-107452800D01*
X130803410Y-107452798D01*
X130799359Y-107449598D01*
X130763028Y-107429542D01*
X130700418Y-107394980D01*
X130603789Y-107341638D01*
X130598920Y-107339914D01*
X130598916Y-107339912D01*
X130398087Y-107268795D01*
X130398083Y-107268794D01*
X130393212Y-107267069D01*
X130388119Y-107266162D01*
X130388116Y-107266161D01*
X130178373Y-107228800D01*
X130178367Y-107228799D01*
X130173284Y-107227894D01*
X130099452Y-107226992D01*
X129955081Y-107225228D01*
X129955079Y-107225228D01*
X129949911Y-107225165D01*
X129729091Y-107258955D01*
X129516756Y-107328357D01*
X129318607Y-107431507D01*
X129314474Y-107434610D01*
X129314471Y-107434612D01*
X129144100Y-107562530D01*
X129139965Y-107565635D01*
X128985629Y-107727138D01*
X128878204Y-107884618D01*
X128877898Y-107885066D01*
X128822987Y-107930069D01*
X128752462Y-107938240D01*
X128688715Y-107906986D01*
X128668018Y-107882502D01*
X128587426Y-107757926D01*
X128581136Y-107749757D01*
X128437806Y-107592240D01*
X128430273Y-107585215D01*
X128263139Y-107453222D01*
X128254552Y-107447517D01*
X128068117Y-107344599D01*
X128058705Y-107340369D01*
X127857959Y-107269280D01*
X127847988Y-107266646D01*
X127776837Y-107253972D01*
X127763540Y-107255432D01*
X127759000Y-107269989D01*
X127759000Y-112443517D01*
X127251000Y-112443517D01*
X127251000Y-107268102D01*
X127247082Y-107254758D01*
X127232806Y-107252771D01*
X127194324Y-107258660D01*
X127184288Y-107261051D01*
X126981868Y-107327212D01*
X126972359Y-107331209D01*
X126783463Y-107429542D01*
X126774738Y-107435036D01*
X126604433Y-107562905D01*
X126596726Y-107569748D01*
X126449590Y-107723717D01*
X126443109Y-107731722D01*
X126338498Y-107885074D01*
X126283587Y-107930076D01*
X126213062Y-107938247D01*
X126149315Y-107906993D01*
X126128618Y-107882509D01*
X126047822Y-107757617D01*
X126047820Y-107757614D01*
X126045014Y-107753277D01*
X125894670Y-107588051D01*
X125890619Y-107584852D01*
X125890615Y-107584848D01*
X125723414Y-107452800D01*
X125723410Y-107452798D01*
X125719359Y-107449598D01*
X125683028Y-107429542D01*
X125620418Y-107394980D01*
X125523789Y-107341638D01*
X125518920Y-107339914D01*
X125518916Y-107339912D01*
X125318087Y-107268795D01*
X125318083Y-107268794D01*
X125313212Y-107267069D01*
X125308119Y-107266162D01*
X125308116Y-107266161D01*
X125098373Y-107228800D01*
X125098367Y-107228799D01*
X125093284Y-107227894D01*
X125019452Y-107226992D01*
X124875081Y-107225228D01*
X124875079Y-107225228D01*
X124869911Y-107225165D01*
X124649091Y-107258955D01*
X124436756Y-107328357D01*
X124238607Y-107431507D01*
X124234474Y-107434610D01*
X124234471Y-107434612D01*
X124064100Y-107562530D01*
X124059965Y-107565635D01*
X123905629Y-107727138D01*
X123798201Y-107884621D01*
X123743293Y-107929621D01*
X123672768Y-107937792D01*
X123609021Y-107906538D01*
X123588324Y-107882054D01*
X123507822Y-107757617D01*
X123507820Y-107757614D01*
X123505014Y-107753277D01*
X123354670Y-107588051D01*
X123350619Y-107584852D01*
X123350615Y-107584848D01*
X123183414Y-107452800D01*
X123183410Y-107452798D01*
X123179359Y-107449598D01*
X123143028Y-107429542D01*
X123080418Y-107394980D01*
X122983789Y-107341638D01*
X122978920Y-107339914D01*
X122978916Y-107339912D01*
X122778087Y-107268795D01*
X122778083Y-107268794D01*
X122773212Y-107267069D01*
X122768119Y-107266162D01*
X122768116Y-107266161D01*
X122558373Y-107228800D01*
X122558367Y-107228799D01*
X122553284Y-107227894D01*
X122479452Y-107226992D01*
X122335081Y-107225228D01*
X122335079Y-107225228D01*
X122329911Y-107225165D01*
X122109091Y-107258955D01*
X121896756Y-107328357D01*
X121698607Y-107431507D01*
X121694474Y-107434610D01*
X121694471Y-107434612D01*
X121524100Y-107562530D01*
X121519965Y-107565635D01*
X121365629Y-107727138D01*
X121258201Y-107884621D01*
X121203293Y-107929621D01*
X121132768Y-107937792D01*
X121069021Y-107906538D01*
X121048324Y-107882054D01*
X120967822Y-107757617D01*
X120967820Y-107757614D01*
X120965014Y-107753277D01*
X120814670Y-107588051D01*
X120810619Y-107584852D01*
X120810615Y-107584848D01*
X120643414Y-107452800D01*
X120643410Y-107452798D01*
X120639359Y-107449598D01*
X120603028Y-107429542D01*
X120540418Y-107394980D01*
X120443789Y-107341638D01*
X120438920Y-107339914D01*
X120438916Y-107339912D01*
X120238087Y-107268795D01*
X120238083Y-107268794D01*
X120233212Y-107267069D01*
X120228119Y-107266162D01*
X120228116Y-107266161D01*
X120018373Y-107228800D01*
X120018367Y-107228799D01*
X120013284Y-107227894D01*
X119939452Y-107226992D01*
X119795081Y-107225228D01*
X119795079Y-107225228D01*
X119789911Y-107225165D01*
X119569091Y-107258955D01*
X119356756Y-107328357D01*
X119158607Y-107431507D01*
X119154474Y-107434610D01*
X119154471Y-107434612D01*
X118984100Y-107562530D01*
X118979965Y-107565635D01*
X118825629Y-107727138D01*
X118718204Y-107884618D01*
X118717898Y-107885066D01*
X118662987Y-107930069D01*
X118592462Y-107938240D01*
X118528715Y-107906986D01*
X118508018Y-107882502D01*
X118427426Y-107757926D01*
X118421136Y-107749757D01*
X118277806Y-107592240D01*
X118270273Y-107585215D01*
X118103139Y-107453222D01*
X118094552Y-107447517D01*
X117908117Y-107344599D01*
X117898705Y-107340369D01*
X117697959Y-107269280D01*
X117687988Y-107266646D01*
X117616837Y-107253972D01*
X117603540Y-107255432D01*
X117599000Y-107269989D01*
X117599000Y-112443517D01*
X117091000Y-112443517D01*
X117091000Y-107268102D01*
X117087082Y-107254758D01*
X117072806Y-107252771D01*
X117034324Y-107258660D01*
X117024288Y-107261051D01*
X116821868Y-107327212D01*
X116812359Y-107331209D01*
X116623463Y-107429542D01*
X116614738Y-107435036D01*
X116444433Y-107562905D01*
X116436726Y-107569748D01*
X116289590Y-107723717D01*
X116283109Y-107731722D01*
X116178498Y-107885074D01*
X116123587Y-107930076D01*
X116053062Y-107938247D01*
X115989315Y-107906993D01*
X115968618Y-107882509D01*
X115887822Y-107757617D01*
X115887820Y-107757614D01*
X115885014Y-107753277D01*
X115734670Y-107588051D01*
X115730619Y-107584852D01*
X115730615Y-107584848D01*
X115563414Y-107452800D01*
X115563410Y-107452798D01*
X115559359Y-107449598D01*
X115523028Y-107429542D01*
X115460418Y-107394980D01*
X115363789Y-107341638D01*
X115358920Y-107339914D01*
X115358916Y-107339912D01*
X115158087Y-107268795D01*
X115158083Y-107268794D01*
X115153212Y-107267069D01*
X115148119Y-107266162D01*
X115148116Y-107266161D01*
X114938373Y-107228800D01*
X114938367Y-107228799D01*
X114933284Y-107227894D01*
X114859452Y-107226992D01*
X114715081Y-107225228D01*
X114715079Y-107225228D01*
X114709911Y-107225165D01*
X114489091Y-107258955D01*
X114276756Y-107328357D01*
X114078607Y-107431507D01*
X114074474Y-107434610D01*
X114074471Y-107434612D01*
X113904100Y-107562530D01*
X113899965Y-107565635D01*
X113745629Y-107727138D01*
X113638201Y-107884621D01*
X113583293Y-107929621D01*
X113512768Y-107937792D01*
X113449021Y-107906538D01*
X113428324Y-107882054D01*
X113347822Y-107757617D01*
X113347820Y-107757614D01*
X113345014Y-107753277D01*
X113194670Y-107588051D01*
X113190619Y-107584852D01*
X113190615Y-107584848D01*
X113023414Y-107452800D01*
X113023410Y-107452798D01*
X113019359Y-107449598D01*
X112983028Y-107429542D01*
X112920418Y-107394980D01*
X112823789Y-107341638D01*
X112818920Y-107339914D01*
X112818916Y-107339912D01*
X112618087Y-107268795D01*
X112618083Y-107268794D01*
X112613212Y-107267069D01*
X112608119Y-107266162D01*
X112608116Y-107266161D01*
X112398373Y-107228800D01*
X112398367Y-107228799D01*
X112393284Y-107227894D01*
X112319452Y-107226992D01*
X112175081Y-107225228D01*
X112175079Y-107225228D01*
X112169911Y-107225165D01*
X111949091Y-107258955D01*
X111736756Y-107328357D01*
X111538607Y-107431507D01*
X111534474Y-107434610D01*
X111534471Y-107434612D01*
X111364100Y-107562530D01*
X111359965Y-107565635D01*
X111205629Y-107727138D01*
X111098201Y-107884621D01*
X111043293Y-107929621D01*
X110972768Y-107937792D01*
X110909021Y-107906538D01*
X110888324Y-107882054D01*
X110807822Y-107757617D01*
X110807820Y-107757614D01*
X110805014Y-107753277D01*
X110654670Y-107588051D01*
X110650619Y-107584852D01*
X110650615Y-107584848D01*
X110483414Y-107452800D01*
X110483410Y-107452798D01*
X110479359Y-107449598D01*
X110443028Y-107429542D01*
X110380418Y-107394980D01*
X110283789Y-107341638D01*
X110278920Y-107339914D01*
X110278916Y-107339912D01*
X110078087Y-107268795D01*
X110078083Y-107268794D01*
X110073212Y-107267069D01*
X110068119Y-107266162D01*
X110068116Y-107266161D01*
X109858373Y-107228800D01*
X109858367Y-107228799D01*
X109853284Y-107227894D01*
X109779452Y-107226992D01*
X109635081Y-107225228D01*
X109635079Y-107225228D01*
X109629911Y-107225165D01*
X109409091Y-107258955D01*
X109196756Y-107328357D01*
X108998607Y-107431507D01*
X108994474Y-107434610D01*
X108994471Y-107434612D01*
X108824100Y-107562530D01*
X108819965Y-107565635D01*
X108665629Y-107727138D01*
X108558201Y-107884621D01*
X108503293Y-107929621D01*
X108432768Y-107937792D01*
X108369021Y-107906538D01*
X108348324Y-107882054D01*
X108267822Y-107757617D01*
X108267820Y-107757614D01*
X108265014Y-107753277D01*
X108114670Y-107588051D01*
X108110619Y-107584852D01*
X108110615Y-107584848D01*
X107943414Y-107452800D01*
X107943410Y-107452798D01*
X107939359Y-107449598D01*
X107903028Y-107429542D01*
X107840418Y-107394980D01*
X107743789Y-107341638D01*
X107738920Y-107339914D01*
X107738916Y-107339912D01*
X107538087Y-107268795D01*
X107538083Y-107268794D01*
X107533212Y-107267069D01*
X107528119Y-107266162D01*
X107528116Y-107266161D01*
X107318373Y-107228800D01*
X107318367Y-107228799D01*
X107313284Y-107227894D01*
X107239452Y-107226992D01*
X107095081Y-107225228D01*
X107095079Y-107225228D01*
X107089911Y-107225165D01*
X106869091Y-107258955D01*
X106656756Y-107328357D01*
X106458607Y-107431507D01*
X106454474Y-107434610D01*
X106454471Y-107434612D01*
X106284100Y-107562530D01*
X106279965Y-107565635D01*
X106125629Y-107727138D01*
X106018201Y-107884621D01*
X105963293Y-107929621D01*
X105892768Y-107937792D01*
X105829021Y-107906538D01*
X105808324Y-107882054D01*
X105727822Y-107757617D01*
X105727820Y-107757614D01*
X105725014Y-107753277D01*
X105574670Y-107588051D01*
X105570619Y-107584852D01*
X105570615Y-107584848D01*
X105403414Y-107452800D01*
X105403410Y-107452798D01*
X105399359Y-107449598D01*
X105363028Y-107429542D01*
X105300418Y-107394980D01*
X105203789Y-107341638D01*
X105198920Y-107339914D01*
X105198916Y-107339912D01*
X104998087Y-107268795D01*
X104998083Y-107268794D01*
X104993212Y-107267069D01*
X104988119Y-107266162D01*
X104988116Y-107266161D01*
X104778373Y-107228800D01*
X104778367Y-107228799D01*
X104773284Y-107227894D01*
X104699452Y-107226992D01*
X104555081Y-107225228D01*
X104555079Y-107225228D01*
X104549911Y-107225165D01*
X104329091Y-107258955D01*
X104116756Y-107328357D01*
X103918607Y-107431507D01*
X103914474Y-107434610D01*
X103914471Y-107434612D01*
X103744100Y-107562530D01*
X103739965Y-107565635D01*
X103585629Y-107727138D01*
X103478201Y-107884621D01*
X103423293Y-107929621D01*
X103352768Y-107937792D01*
X103289021Y-107906538D01*
X103268324Y-107882054D01*
X103187822Y-107757617D01*
X103187820Y-107757614D01*
X103185014Y-107753277D01*
X103034670Y-107588051D01*
X103030615Y-107584848D01*
X102915407Y-107493862D01*
X102874345Y-107435944D01*
X102867500Y-107394980D01*
X102867500Y-106667028D01*
X102887502Y-106598907D01*
X102904405Y-106577933D01*
X108479933Y-101002405D01*
X108542245Y-100968379D01*
X108569028Y-100965500D01*
X118077919Y-100965500D01*
X118146040Y-100985502D01*
X118151980Y-100989564D01*
X118158248Y-100994118D01*
X118164276Y-100996802D01*
X118164278Y-100996803D01*
X118326681Y-101069109D01*
X118332712Y-101071794D01*
X118426113Y-101091647D01*
X118513056Y-101110128D01*
X118513061Y-101110128D01*
X118519513Y-101111500D01*
X118710487Y-101111500D01*
X118716939Y-101110128D01*
X118716944Y-101110128D01*
X118803888Y-101091647D01*
X118897288Y-101071794D01*
X118903319Y-101069109D01*
X119065722Y-100996803D01*
X119065724Y-100996802D01*
X119071752Y-100994118D01*
X119078020Y-100989564D01*
X119078646Y-100989340D01*
X119082811Y-100986936D01*
X119083251Y-100987698D01*
X119144887Y-100965706D01*
X119152081Y-100965500D01*
X144963624Y-100965500D01*
X144982574Y-100966933D01*
X144996973Y-100969124D01*
X144996979Y-100969124D01*
X145004208Y-100970224D01*
X145011500Y-100969631D01*
X145011503Y-100969631D01*
X145057183Y-100965915D01*
X145067398Y-100965500D01*
X145075525Y-100965500D01*
X145079161Y-100965076D01*
X145079163Y-100965076D01*
X145082615Y-100964673D01*
X145103924Y-100962189D01*
X145108244Y-100961762D01*
X145181426Y-100955809D01*
X145188388Y-100953553D01*
X145194376Y-100952357D01*
X145200333Y-100950949D01*
X145207607Y-100950101D01*
X145214489Y-100947603D01*
X145214493Y-100947602D01*
X145276607Y-100925055D01*
X145280711Y-100923645D01*
X145350575Y-100901013D01*
X145356838Y-100897213D01*
X145362380Y-100894675D01*
X145367856Y-100891933D01*
X145374741Y-100889434D01*
X145436132Y-100849185D01*
X145439800Y-100846870D01*
X145502581Y-100808773D01*
X145506786Y-100805059D01*
X145506789Y-100805057D01*
X145511005Y-100801333D01*
X145511031Y-100801362D01*
X145513962Y-100798762D01*
X145517316Y-100795958D01*
X145523435Y-100791946D01*
X145576989Y-100735413D01*
X145579366Y-100732972D01*
X146738669Y-99573669D01*
X201839001Y-99573669D01*
X201839371Y-99580490D01*
X201844895Y-99631352D01*
X201848521Y-99646604D01*
X201893676Y-99767054D01*
X201902214Y-99782649D01*
X201978715Y-99884724D01*
X201991276Y-99897285D01*
X202093351Y-99973786D01*
X202108946Y-99982324D01*
X202229394Y-100027478D01*
X202244649Y-100031105D01*
X202295514Y-100036631D01*
X202302328Y-100037000D01*
X202924885Y-100037000D01*
X202940124Y-100032525D01*
X202941329Y-100031135D01*
X202943000Y-100023452D01*
X202943000Y-98951115D01*
X202938525Y-98935876D01*
X202937135Y-98934671D01*
X202929452Y-98933000D01*
X201857116Y-98933000D01*
X201841877Y-98937475D01*
X201840672Y-98938865D01*
X201839001Y-98946548D01*
X201839001Y-99573669D01*
X146738669Y-99573669D01*
X154338515Y-91973823D01*
X154401412Y-91939672D01*
X154450824Y-91929169D01*
X154450833Y-91929166D01*
X154457288Y-91927794D01*
X154485193Y-91915370D01*
X154625722Y-91852803D01*
X154625724Y-91852802D01*
X154631752Y-91850118D01*
X154786253Y-91737866D01*
X154790675Y-91732955D01*
X154909621Y-91600852D01*
X154909622Y-91600851D01*
X154914040Y-91595944D01*
X154988226Y-91467450D01*
X155006223Y-91436279D01*
X155006224Y-91436278D01*
X155009527Y-91430556D01*
X155068542Y-91248928D01*
X155074808Y-91189316D01*
X155087814Y-91065565D01*
X155088504Y-91059000D01*
X155068542Y-90869072D01*
X155009527Y-90687444D01*
X154998891Y-90669021D01*
X154964674Y-90609757D01*
X154914040Y-90522056D01*
X154899898Y-90506349D01*
X154790675Y-90385045D01*
X154790674Y-90385044D01*
X154786253Y-90380134D01*
X154658644Y-90287420D01*
X154637094Y-90271763D01*
X154637093Y-90271762D01*
X154631752Y-90267882D01*
X154625724Y-90265198D01*
X154625722Y-90265197D01*
X154463319Y-90192891D01*
X154463318Y-90192891D01*
X154457288Y-90190206D01*
X154344721Y-90166279D01*
X154276944Y-90151872D01*
X154276939Y-90151872D01*
X154270487Y-90150500D01*
X154079513Y-90150500D01*
X154073061Y-90151872D01*
X154073056Y-90151872D01*
X154005279Y-90166279D01*
X153892712Y-90190206D01*
X153886682Y-90192891D01*
X153886681Y-90192891D01*
X153724278Y-90265197D01*
X153724276Y-90265198D01*
X153718248Y-90267882D01*
X153712907Y-90271762D01*
X153712906Y-90271763D01*
X153691356Y-90287420D01*
X153563747Y-90380134D01*
X153559326Y-90385044D01*
X153559325Y-90385045D01*
X153450103Y-90506349D01*
X153435960Y-90522056D01*
X153385326Y-90609757D01*
X153351110Y-90669021D01*
X153340473Y-90687444D01*
X153319669Y-90751472D01*
X153288335Y-90847907D01*
X153257597Y-90898065D01*
X144752067Y-99403595D01*
X144689755Y-99437621D01*
X144662972Y-99440500D01*
X119152081Y-99440500D01*
X119083960Y-99420498D01*
X119078020Y-99416436D01*
X119077094Y-99415763D01*
X119077093Y-99415762D01*
X119071752Y-99411882D01*
X119065724Y-99409198D01*
X119065722Y-99409197D01*
X118903319Y-99336891D01*
X118903318Y-99336891D01*
X118897288Y-99334206D01*
X118803888Y-99314353D01*
X118716944Y-99295872D01*
X118716939Y-99295872D01*
X118710487Y-99294500D01*
X118519513Y-99294500D01*
X118513061Y-99295872D01*
X118513056Y-99295872D01*
X118426113Y-99314353D01*
X118332712Y-99334206D01*
X118326682Y-99336891D01*
X118326681Y-99336891D01*
X118164278Y-99409197D01*
X118164276Y-99409198D01*
X118158248Y-99411882D01*
X118152907Y-99415762D01*
X118152906Y-99415763D01*
X118151980Y-99416436D01*
X118151354Y-99416660D01*
X118147189Y-99419064D01*
X118146749Y-99418302D01*
X118085113Y-99440294D01*
X118077919Y-99440500D01*
X108268376Y-99440500D01*
X108249426Y-99439067D01*
X108235027Y-99436876D01*
X108235021Y-99436876D01*
X108227792Y-99435776D01*
X108220500Y-99436369D01*
X108220497Y-99436369D01*
X108174817Y-99440085D01*
X108164602Y-99440500D01*
X108156475Y-99440500D01*
X108152839Y-99440924D01*
X108152837Y-99440924D01*
X108149385Y-99441327D01*
X108128076Y-99443811D01*
X108123756Y-99444238D01*
X108050574Y-99450191D01*
X108043612Y-99452447D01*
X108037624Y-99453643D01*
X108031667Y-99455051D01*
X108024393Y-99455899D01*
X108017511Y-99458397D01*
X108017507Y-99458398D01*
X107955393Y-99480945D01*
X107951289Y-99482355D01*
X107881425Y-99504987D01*
X107875162Y-99508787D01*
X107869620Y-99511325D01*
X107864144Y-99514067D01*
X107857259Y-99516566D01*
X107851135Y-99520581D01*
X107795868Y-99556815D01*
X107792200Y-99559130D01*
X107729419Y-99597227D01*
X107725214Y-99600941D01*
X107725211Y-99600943D01*
X107720995Y-99604667D01*
X107720969Y-99604638D01*
X107718038Y-99607238D01*
X107714684Y-99610042D01*
X107708565Y-99614054D01*
X107703533Y-99619366D01*
X107655012Y-99670586D01*
X107652634Y-99673028D01*
X101613472Y-105712190D01*
X101599059Y-105724577D01*
X101581436Y-105737546D01*
X101576692Y-105743129D01*
X101576693Y-105743129D01*
X101547021Y-105778055D01*
X101540091Y-105785571D01*
X101534347Y-105791315D01*
X101532073Y-105794189D01*
X101532067Y-105794196D01*
X101516628Y-105813711D01*
X101513837Y-105817115D01*
X101471055Y-105867472D01*
X101471052Y-105867476D01*
X101466316Y-105873051D01*
X101462988Y-105879568D01*
X101459611Y-105884632D01*
X101456384Y-105889856D01*
X101451840Y-105895600D01*
X101448741Y-105902231D01*
X101420768Y-105962082D01*
X101418837Y-105966033D01*
X101385457Y-106031404D01*
X101383716Y-106038519D01*
X101381579Y-106044265D01*
X101379655Y-106050048D01*
X101376556Y-106056679D01*
X101375066Y-106063843D01*
X101361608Y-106128547D01*
X101360639Y-106132829D01*
X101343196Y-106204112D01*
X101342500Y-106215330D01*
X101342461Y-106215328D01*
X101342228Y-106219229D01*
X101341839Y-106223588D01*
X101340348Y-106230756D01*
X101340546Y-106238073D01*
X101342454Y-106308577D01*
X101342500Y-106311986D01*
X101342500Y-107395658D01*
X101322498Y-107463779D01*
X101292153Y-107496418D01*
X101204100Y-107562530D01*
X101199965Y-107565635D01*
X101045629Y-107727138D01*
X100919743Y-107911680D01*
X100825688Y-108114305D01*
X100765989Y-108329570D01*
X100742251Y-108551695D01*
X93723000Y-108551695D01*
X93723000Y-98043000D01*
X93743002Y-97974879D01*
X93796658Y-97928386D01*
X93849000Y-97917000D01*
X106160298Y-97917000D01*
X106161068Y-97917002D01*
X106234716Y-97917452D01*
X106234717Y-97917452D01*
X106238652Y-97917476D01*
X106239996Y-97917092D01*
X106241341Y-97917000D01*
X106677000Y-97917000D01*
X106677000Y-97417702D01*
X106677002Y-97416932D01*
X106677452Y-97343284D01*
X106677452Y-97343283D01*
X106677476Y-97339348D01*
X106677092Y-97338004D01*
X106677000Y-97336659D01*
X106677000Y-91524700D01*
X111402543Y-91524700D01*
X111407542Y-91531739D01*
X111610799Y-91650513D01*
X111620082Y-91654960D01*
X111840645Y-91739185D01*
X111850538Y-91742059D01*
X112081873Y-91789125D01*
X112092130Y-91790348D01*
X112328050Y-91798999D01*
X112338336Y-91798532D01*
X112572516Y-91768533D01*
X112582594Y-91766391D01*
X112808725Y-91698548D01*
X112818323Y-91694787D01*
X113030342Y-91590920D01*
X113039180Y-91585651D01*
X113115054Y-91531531D01*
X113123454Y-91520831D01*
X113116468Y-91507679D01*
X112277811Y-90669021D01*
X112263868Y-90661408D01*
X112262034Y-90661539D01*
X112255420Y-90665790D01*
X111409798Y-91511413D01*
X111402543Y-91524700D01*
X106677000Y-91524700D01*
X106677000Y-90265416D01*
X110762010Y-90265416D01*
X110775600Y-90501112D01*
X110777036Y-90511332D01*
X110828937Y-90741631D01*
X110832021Y-90751472D01*
X110920844Y-90970216D01*
X110925484Y-90979402D01*
X111029210Y-91148669D01*
X111039666Y-91158129D01*
X111048444Y-91154345D01*
X111892979Y-90309811D01*
X111899356Y-90298132D01*
X112629408Y-90298132D01*
X112629539Y-90299966D01*
X112633790Y-90306580D01*
X113476227Y-91149016D01*
X113488233Y-91155572D01*
X113499972Y-91146604D01*
X113550935Y-91075680D01*
X113556246Y-91066842D01*
X113660844Y-90855204D01*
X113664642Y-90845611D01*
X113733272Y-90619723D01*
X113735450Y-90609650D01*
X113766504Y-90373775D01*
X113767023Y-90367107D01*
X113768654Y-90300365D01*
X113768460Y-90293646D01*
X113748968Y-90056552D01*
X113747285Y-90046390D01*
X113689770Y-89817408D01*
X113686452Y-89807661D01*
X113592309Y-89591147D01*
X113587442Y-89582070D01*
X113499746Y-89446515D01*
X113489060Y-89437313D01*
X113479495Y-89441716D01*
X112637021Y-90284189D01*
X112629408Y-90298132D01*
X111899356Y-90298132D01*
X111900592Y-90295868D01*
X111900461Y-90294034D01*
X111896210Y-90287420D01*
X111053661Y-89444872D01*
X111042130Y-89438576D01*
X111029845Y-89448201D01*
X110960426Y-89549966D01*
X110955333Y-89558930D01*
X110855929Y-89773078D01*
X110852372Y-89782746D01*
X110789281Y-90010245D01*
X110787350Y-90020365D01*
X110762262Y-90255127D01*
X110762010Y-90265416D01*
X106677000Y-90265416D01*
X106677000Y-82646678D01*
X107794820Y-82646678D01*
X107795064Y-82651113D01*
X107795064Y-82651117D01*
X107807401Y-82875277D01*
X107809804Y-82918946D01*
X107863001Y-83186385D01*
X107953350Y-83443661D01*
X108079048Y-83685641D01*
X108081631Y-83689256D01*
X108081635Y-83689262D01*
X108231312Y-83898714D01*
X108237587Y-83907495D01*
X108425805Y-84104797D01*
X108429301Y-84107553D01*
X108429302Y-84107554D01*
X108489046Y-84154652D01*
X108639944Y-84273611D01*
X108708117Y-84313209D01*
X108871880Y-84408331D01*
X108871886Y-84408334D01*
X108875734Y-84410569D01*
X109006888Y-84463692D01*
X109124337Y-84511264D01*
X109124340Y-84511265D01*
X109128468Y-84512937D01*
X109295575Y-84554446D01*
X109388780Y-84577599D01*
X109388785Y-84577600D01*
X109393105Y-84578673D01*
X109625664Y-84602500D01*
X109794458Y-84602500D01*
X109996998Y-84588159D01*
X110001353Y-84587221D01*
X110001356Y-84587221D01*
X110259222Y-84531704D01*
X110259224Y-84531704D01*
X110263569Y-84530768D01*
X110519395Y-84436389D01*
X110759370Y-84306906D01*
X110839136Y-84247990D01*
X110975129Y-84147543D01*
X110978706Y-84144901D01*
X111173028Y-83953608D01*
X111175730Y-83950068D01*
X111335756Y-83740385D01*
X111335759Y-83740381D01*
X111338458Y-83736844D01*
X111369345Y-83681691D01*
X111469516Y-83502822D01*
X111469519Y-83502817D01*
X111471694Y-83498932D01*
X111473305Y-83494769D01*
X111568473Y-83248776D01*
X111568475Y-83248770D01*
X111570080Y-83244621D01*
X111631651Y-82978984D01*
X111655180Y-82707322D01*
X111651843Y-82646678D01*
X123034820Y-82646678D01*
X123035064Y-82651113D01*
X123035064Y-82651117D01*
X123047401Y-82875277D01*
X123049804Y-82918946D01*
X123103001Y-83186385D01*
X123193350Y-83443661D01*
X123319048Y-83685641D01*
X123321631Y-83689256D01*
X123321635Y-83689262D01*
X123471312Y-83898714D01*
X123477587Y-83907495D01*
X123665805Y-84104797D01*
X123669301Y-84107553D01*
X123669302Y-84107554D01*
X123729046Y-84154652D01*
X123879944Y-84273611D01*
X123948117Y-84313209D01*
X124111880Y-84408331D01*
X124111886Y-84408334D01*
X124115734Y-84410569D01*
X124246888Y-84463692D01*
X124364337Y-84511264D01*
X124364340Y-84511265D01*
X124368468Y-84512937D01*
X124535575Y-84554446D01*
X124628780Y-84577599D01*
X124628785Y-84577600D01*
X124633105Y-84578673D01*
X124865664Y-84602500D01*
X125034458Y-84602500D01*
X125236998Y-84588159D01*
X125241353Y-84587221D01*
X125241356Y-84587221D01*
X125499222Y-84531704D01*
X125499224Y-84531704D01*
X125503569Y-84530768D01*
X125759395Y-84436389D01*
X125999370Y-84306906D01*
X126079136Y-84247990D01*
X126215129Y-84147543D01*
X126218706Y-84144901D01*
X126413028Y-83953608D01*
X126415730Y-83950068D01*
X126575756Y-83740385D01*
X126575759Y-83740381D01*
X126578458Y-83736844D01*
X126609345Y-83681691D01*
X126709516Y-83502822D01*
X126709519Y-83502817D01*
X126711694Y-83498932D01*
X126713305Y-83494769D01*
X126808473Y-83248776D01*
X126808475Y-83248770D01*
X126810080Y-83244621D01*
X126871651Y-82978984D01*
X126895180Y-82707322D01*
X126888471Y-82585411D01*
X126880441Y-82439497D01*
X126880440Y-82439490D01*
X126880196Y-82435054D01*
X126826999Y-82167615D01*
X126736650Y-81910339D01*
X126610952Y-81668359D01*
X126608369Y-81664744D01*
X126608365Y-81664738D01*
X126455001Y-81450126D01*
X126454998Y-81450122D01*
X126452413Y-81446505D01*
X126264195Y-81249203D01*
X126217280Y-81212218D01*
X126053551Y-81083144D01*
X126053549Y-81083142D01*
X126050056Y-81080389D01*
X125934251Y-81013124D01*
X125818120Y-80945669D01*
X125818114Y-80945666D01*
X125814266Y-80943431D01*
X125635075Y-80870851D01*
X125565663Y-80842736D01*
X125565660Y-80842735D01*
X125561532Y-80841063D01*
X125348731Y-80788203D01*
X125301220Y-80776401D01*
X125301215Y-80776400D01*
X125296895Y-80775327D01*
X125064336Y-80751500D01*
X124895542Y-80751500D01*
X124693002Y-80765841D01*
X124688647Y-80766779D01*
X124688644Y-80766779D01*
X124430778Y-80822296D01*
X124430776Y-80822296D01*
X124426431Y-80823232D01*
X124170605Y-80917611D01*
X123930630Y-81047094D01*
X123711294Y-81209099D01*
X123516972Y-81400392D01*
X123514273Y-81403929D01*
X123514270Y-81403932D01*
X123416150Y-81532500D01*
X123351542Y-81617156D01*
X123349367Y-81621040D01*
X123246621Y-81804508D01*
X123218306Y-81855068D01*
X123216698Y-81859226D01*
X123216695Y-81859231D01*
X123128304Y-82087709D01*
X123119920Y-82109379D01*
X123118916Y-82113711D01*
X123118915Y-82113714D01*
X123115010Y-82130562D01*
X123058349Y-82375016D01*
X123034820Y-82646678D01*
X111651843Y-82646678D01*
X111648471Y-82585411D01*
X111640441Y-82439497D01*
X111640440Y-82439490D01*
X111640196Y-82435054D01*
X111586999Y-82167615D01*
X111496650Y-81910339D01*
X111370952Y-81668359D01*
X111368369Y-81664744D01*
X111368365Y-81664738D01*
X111215001Y-81450126D01*
X111214998Y-81450122D01*
X111212413Y-81446505D01*
X111024195Y-81249203D01*
X110977280Y-81212218D01*
X110813551Y-81083144D01*
X110813549Y-81083142D01*
X110810056Y-81080389D01*
X110694251Y-81013124D01*
X110578120Y-80945669D01*
X110578114Y-80945666D01*
X110574266Y-80943431D01*
X110395075Y-80870851D01*
X110325663Y-80842736D01*
X110325660Y-80842735D01*
X110321532Y-80841063D01*
X110108731Y-80788203D01*
X110061220Y-80776401D01*
X110061215Y-80776400D01*
X110056895Y-80775327D01*
X109824336Y-80751500D01*
X109655542Y-80751500D01*
X109453002Y-80765841D01*
X109448647Y-80766779D01*
X109448644Y-80766779D01*
X109190778Y-80822296D01*
X109190776Y-80822296D01*
X109186431Y-80823232D01*
X108930605Y-80917611D01*
X108690630Y-81047094D01*
X108471294Y-81209099D01*
X108276972Y-81400392D01*
X108274273Y-81403929D01*
X108274270Y-81403932D01*
X108176150Y-81532500D01*
X108111542Y-81617156D01*
X108109367Y-81621040D01*
X108006621Y-81804508D01*
X107978306Y-81855068D01*
X107976698Y-81859226D01*
X107976695Y-81859231D01*
X107888304Y-82087709D01*
X107879920Y-82109379D01*
X107878916Y-82113711D01*
X107878915Y-82113714D01*
X107875010Y-82130562D01*
X107818349Y-82375016D01*
X107794820Y-82646678D01*
X106677000Y-82646678D01*
X106677000Y-79600863D01*
X143669050Y-79600863D01*
X143681309Y-79813477D01*
X143682745Y-79823697D01*
X143729565Y-80031446D01*
X143732645Y-80041275D01*
X143812770Y-80238603D01*
X143817413Y-80247794D01*
X143897460Y-80378420D01*
X143907916Y-80387880D01*
X143916694Y-80384096D01*
X144658978Y-79641812D01*
X144665356Y-79630132D01*
X145395408Y-79630132D01*
X145395539Y-79631965D01*
X145399790Y-79638580D01*
X146141474Y-80380264D01*
X146153484Y-80386823D01*
X146165223Y-80377855D01*
X146199022Y-80330819D01*
X146200149Y-80331629D01*
X146247659Y-80287881D01*
X146317596Y-80275661D01*
X146383038Y-80303191D01*
X146410870Y-80335029D01*
X146437459Y-80378419D01*
X146447916Y-80387880D01*
X146456694Y-80384096D01*
X147198978Y-79641812D01*
X147205356Y-79630132D01*
X147935408Y-79630132D01*
X147935539Y-79631965D01*
X147939790Y-79638580D01*
X148681474Y-80380264D01*
X148693484Y-80386823D01*
X148705223Y-80377855D01*
X148739022Y-80330819D01*
X148740149Y-80331629D01*
X148787659Y-80287881D01*
X148857596Y-80275661D01*
X148923038Y-80303191D01*
X148950870Y-80335029D01*
X148977459Y-80378419D01*
X148987916Y-80387880D01*
X148996694Y-80384096D01*
X149738978Y-79641812D01*
X149745356Y-79630132D01*
X150475408Y-79630132D01*
X150475539Y-79631965D01*
X150479790Y-79638580D01*
X151221474Y-80380264D01*
X151233484Y-80386823D01*
X151245223Y-80377855D01*
X151279022Y-80330819D01*
X151280149Y-80331629D01*
X151327659Y-80287881D01*
X151397596Y-80275661D01*
X151463038Y-80303191D01*
X151490870Y-80335029D01*
X151517459Y-80378419D01*
X151527916Y-80387880D01*
X151536694Y-80384096D01*
X152278978Y-79641812D01*
X152285356Y-79630132D01*
X153015408Y-79630132D01*
X153015539Y-79631965D01*
X153019790Y-79638580D01*
X153761474Y-80380264D01*
X153773484Y-80386823D01*
X153785223Y-80377855D01*
X153819022Y-80330819D01*
X153820149Y-80331629D01*
X153867659Y-80287881D01*
X153937596Y-80275661D01*
X154003038Y-80303191D01*
X154030870Y-80335029D01*
X154057459Y-80378419D01*
X154067916Y-80387880D01*
X154076694Y-80384096D01*
X154818978Y-79641812D01*
X154826592Y-79627868D01*
X154826461Y-79626035D01*
X154822210Y-79619420D01*
X154080849Y-78878059D01*
X154069313Y-78871759D01*
X154057028Y-78881384D01*
X154024192Y-78929520D01*
X153969281Y-78974523D01*
X153898756Y-78982694D01*
X153835009Y-78951440D01*
X153814311Y-78926955D01*
X153784062Y-78880197D01*
X153773377Y-78870995D01*
X153763812Y-78875398D01*
X153023022Y-79616188D01*
X153015408Y-79630132D01*
X152285356Y-79630132D01*
X152286592Y-79627868D01*
X152286461Y-79626035D01*
X152282210Y-79619420D01*
X151540849Y-78878059D01*
X151529313Y-78871759D01*
X151517028Y-78881384D01*
X151484192Y-78929520D01*
X151429281Y-78974523D01*
X151358756Y-78982694D01*
X151295009Y-78951440D01*
X151274311Y-78926955D01*
X151244062Y-78880197D01*
X151233377Y-78870995D01*
X151223812Y-78875398D01*
X150483022Y-79616188D01*
X150475408Y-79630132D01*
X149745356Y-79630132D01*
X149746592Y-79627868D01*
X149746461Y-79626035D01*
X149742210Y-79619420D01*
X149000849Y-78878059D01*
X148989313Y-78871759D01*
X148977028Y-78881384D01*
X148944192Y-78929520D01*
X148889281Y-78974523D01*
X148818756Y-78982694D01*
X148755009Y-78951440D01*
X148734311Y-78926955D01*
X148704062Y-78880197D01*
X148693377Y-78870995D01*
X148683812Y-78875398D01*
X147943022Y-79616188D01*
X147935408Y-79630132D01*
X147205356Y-79630132D01*
X147206592Y-79627868D01*
X147206461Y-79626035D01*
X147202210Y-79619420D01*
X146460849Y-78878059D01*
X146449313Y-78871759D01*
X146437028Y-78881384D01*
X146404192Y-78929520D01*
X146349281Y-78974523D01*
X146278756Y-78982694D01*
X146215009Y-78951440D01*
X146194311Y-78926955D01*
X146164062Y-78880197D01*
X146153377Y-78870995D01*
X146143812Y-78875398D01*
X145403022Y-79616188D01*
X145395408Y-79630132D01*
X144665356Y-79630132D01*
X144666592Y-79627868D01*
X144666461Y-79626035D01*
X144662210Y-79619420D01*
X143920849Y-78878059D01*
X143909313Y-78871759D01*
X143897031Y-78881382D01*
X143849089Y-78951662D01*
X143844004Y-78960613D01*
X143754338Y-79153783D01*
X143750775Y-79163470D01*
X143693864Y-79368681D01*
X143691933Y-79378800D01*
X143669302Y-79590574D01*
X143669050Y-79600863D01*
X106677000Y-79600863D01*
X106677000Y-77560248D01*
X113301211Y-77560248D01*
X113315401Y-77806349D01*
X113316536Y-77811386D01*
X113316537Y-77811392D01*
X113339860Y-77914883D01*
X113369595Y-78046829D01*
X113462338Y-78275227D01*
X113465043Y-78279642D01*
X113465044Y-78279643D01*
X113493265Y-78325695D01*
X113591140Y-78485411D01*
X113752540Y-78671737D01*
X113942205Y-78829200D01*
X113946657Y-78831802D01*
X113946662Y-78831805D01*
X114150582Y-78950966D01*
X114155040Y-78953571D01*
X114385331Y-79041510D01*
X114390397Y-79042541D01*
X114390398Y-79042541D01*
X114448204Y-79054302D01*
X114626892Y-79090656D01*
X114765935Y-79095754D01*
X114868073Y-79099500D01*
X114868077Y-79099500D01*
X114873237Y-79099689D01*
X114878357Y-79099033D01*
X114878359Y-79099033D01*
X114951790Y-79089626D01*
X115117749Y-79068367D01*
X115122698Y-79066882D01*
X115122704Y-79066881D01*
X115260136Y-79025649D01*
X115353862Y-78997530D01*
X115385073Y-78982240D01*
X115570592Y-78891354D01*
X115575234Y-78889080D01*
X115579437Y-78886082D01*
X115579442Y-78886079D01*
X115771718Y-78748930D01*
X115771720Y-78748928D01*
X115775922Y-78745931D01*
X115950535Y-78571927D01*
X115962198Y-78555697D01*
X116012703Y-78485411D01*
X116094384Y-78371740D01*
X116109426Y-78341306D01*
X116201311Y-78155389D01*
X116201312Y-78155387D01*
X116203605Y-78150747D01*
X116275266Y-77914883D01*
X116305441Y-77685680D01*
X116307005Y-77673804D01*
X116307006Y-77673798D01*
X116307442Y-77670482D01*
X116309238Y-77597000D01*
X116306216Y-77560248D01*
X118381211Y-77560248D01*
X118395401Y-77806349D01*
X118396536Y-77811386D01*
X118396537Y-77811392D01*
X118419860Y-77914883D01*
X118449595Y-78046829D01*
X118542338Y-78275227D01*
X118545043Y-78279642D01*
X118545044Y-78279643D01*
X118573265Y-78325695D01*
X118671140Y-78485411D01*
X118832540Y-78671737D01*
X119022205Y-78829200D01*
X119026657Y-78831802D01*
X119026662Y-78831805D01*
X119230582Y-78950966D01*
X119235040Y-78953571D01*
X119465331Y-79041510D01*
X119470397Y-79042541D01*
X119470398Y-79042541D01*
X119528204Y-79054302D01*
X119706892Y-79090656D01*
X119845935Y-79095754D01*
X119948073Y-79099500D01*
X119948077Y-79099500D01*
X119953237Y-79099689D01*
X119958357Y-79099033D01*
X119958359Y-79099033D01*
X120031790Y-79089626D01*
X120197749Y-79068367D01*
X120202698Y-79066882D01*
X120202704Y-79066881D01*
X120340136Y-79025649D01*
X120433862Y-78997530D01*
X120465073Y-78982240D01*
X120650592Y-78891354D01*
X120655234Y-78889080D01*
X120659437Y-78886082D01*
X120659442Y-78886079D01*
X120851718Y-78748930D01*
X120851720Y-78748928D01*
X120855922Y-78745931D01*
X121030535Y-78571927D01*
X121042198Y-78555697D01*
X121078320Y-78505427D01*
X144272223Y-78505427D01*
X144278968Y-78517758D01*
X145018188Y-79256978D01*
X145032132Y-79264592D01*
X145033965Y-79264461D01*
X145040580Y-79260210D01*
X145784389Y-78516401D01*
X145790382Y-78505427D01*
X146812223Y-78505427D01*
X146818968Y-78517758D01*
X147558188Y-79256978D01*
X147572132Y-79264592D01*
X147573965Y-79264461D01*
X147580580Y-79260210D01*
X148324389Y-78516401D01*
X148330382Y-78505427D01*
X149352223Y-78505427D01*
X149358968Y-78517758D01*
X150098188Y-79256978D01*
X150112132Y-79264592D01*
X150113965Y-79264461D01*
X150120580Y-79260210D01*
X150864389Y-78516401D01*
X150870382Y-78505427D01*
X151892223Y-78505427D01*
X151898968Y-78517758D01*
X152638188Y-79256978D01*
X152652132Y-79264592D01*
X152653965Y-79264461D01*
X152660580Y-79260210D01*
X153404389Y-78516401D01*
X153410382Y-78505427D01*
X154432223Y-78505427D01*
X154438968Y-78517758D01*
X155178188Y-79256978D01*
X155192132Y-79264592D01*
X155193965Y-79264461D01*
X155200580Y-79260210D01*
X155944389Y-78516401D01*
X155950382Y-78505427D01*
X156972223Y-78505427D01*
X156978968Y-78517758D01*
X157718188Y-79256978D01*
X157732132Y-79264592D01*
X157733965Y-79264461D01*
X157740580Y-79260210D01*
X158484389Y-78516401D01*
X158490382Y-78505427D01*
X159512223Y-78505427D01*
X159518968Y-78517758D01*
X160258188Y-79256978D01*
X160272132Y-79264592D01*
X160273965Y-79264461D01*
X160280580Y-79260210D01*
X161024389Y-78516401D01*
X161030382Y-78505427D01*
X162052223Y-78505427D01*
X162058968Y-78517758D01*
X162798188Y-79256978D01*
X162812132Y-79264592D01*
X162813965Y-79264461D01*
X162820580Y-79260210D01*
X163564389Y-78516401D01*
X163570382Y-78505427D01*
X164592223Y-78505427D01*
X164598968Y-78517758D01*
X165338188Y-79256978D01*
X165352132Y-79264592D01*
X165353965Y-79264461D01*
X165360580Y-79260210D01*
X166104389Y-78516401D01*
X166110382Y-78505427D01*
X167132223Y-78505427D01*
X167138968Y-78517758D01*
X167878188Y-79256978D01*
X167892132Y-79264592D01*
X167893965Y-79264461D01*
X167900580Y-79260210D01*
X168644389Y-78516401D01*
X168650382Y-78505427D01*
X169672223Y-78505427D01*
X169678968Y-78517758D01*
X170418188Y-79256978D01*
X170432132Y-79264592D01*
X170433965Y-79264461D01*
X170440580Y-79260210D01*
X171184389Y-78516401D01*
X171190382Y-78505427D01*
X172212223Y-78505427D01*
X172218968Y-78517758D01*
X172958188Y-79256978D01*
X172972132Y-79264592D01*
X172973965Y-79264461D01*
X172980580Y-79260210D01*
X173724389Y-78516401D01*
X173730382Y-78505427D01*
X174752223Y-78505427D01*
X174758968Y-78517758D01*
X175498188Y-79256978D01*
X175512132Y-79264592D01*
X175513965Y-79264461D01*
X175520580Y-79260210D01*
X176264389Y-78516401D01*
X176270382Y-78505427D01*
X177292223Y-78505427D01*
X177298968Y-78517758D01*
X178038188Y-79256978D01*
X178052132Y-79264592D01*
X178053965Y-79264461D01*
X178060580Y-79260210D01*
X178804389Y-78516401D01*
X178810382Y-78505427D01*
X179832223Y-78505427D01*
X179838968Y-78517758D01*
X180578188Y-79256978D01*
X180592132Y-79264592D01*
X180593965Y-79264461D01*
X180600580Y-79260210D01*
X181344389Y-78516401D01*
X181351410Y-78503544D01*
X181344611Y-78494213D01*
X181340554Y-78491518D01*
X181154117Y-78388599D01*
X181144705Y-78384369D01*
X180943959Y-78313280D01*
X180933989Y-78310646D01*
X180724327Y-78273301D01*
X180714073Y-78272331D01*
X180501116Y-78269728D01*
X180490832Y-78270448D01*
X180280321Y-78302661D01*
X180270293Y-78305050D01*
X180067868Y-78371212D01*
X180058359Y-78375209D01*
X179869466Y-78473540D01*
X179860734Y-78479039D01*
X179840677Y-78494099D01*
X179832223Y-78505427D01*
X178810382Y-78505427D01*
X178811410Y-78503544D01*
X178804611Y-78494213D01*
X178800554Y-78491518D01*
X178614117Y-78388599D01*
X178604705Y-78384369D01*
X178403959Y-78313280D01*
X178393989Y-78310646D01*
X178184327Y-78273301D01*
X178174073Y-78272331D01*
X177961116Y-78269728D01*
X177950832Y-78270448D01*
X177740321Y-78302661D01*
X177730293Y-78305050D01*
X177527868Y-78371212D01*
X177518359Y-78375209D01*
X177329466Y-78473540D01*
X177320734Y-78479039D01*
X177300677Y-78494099D01*
X177292223Y-78505427D01*
X176270382Y-78505427D01*
X176271410Y-78503544D01*
X176264611Y-78494213D01*
X176260554Y-78491518D01*
X176074117Y-78388599D01*
X176064705Y-78384369D01*
X175863959Y-78313280D01*
X175853989Y-78310646D01*
X175644327Y-78273301D01*
X175634073Y-78272331D01*
X175421116Y-78269728D01*
X175410832Y-78270448D01*
X175200321Y-78302661D01*
X175190293Y-78305050D01*
X174987868Y-78371212D01*
X174978359Y-78375209D01*
X174789466Y-78473540D01*
X174780734Y-78479039D01*
X174760677Y-78494099D01*
X174752223Y-78505427D01*
X173730382Y-78505427D01*
X173731410Y-78503544D01*
X173724611Y-78494213D01*
X173720554Y-78491518D01*
X173534117Y-78388599D01*
X173524705Y-78384369D01*
X173323959Y-78313280D01*
X173313989Y-78310646D01*
X173104327Y-78273301D01*
X173094073Y-78272331D01*
X172881116Y-78269728D01*
X172870832Y-78270448D01*
X172660321Y-78302661D01*
X172650293Y-78305050D01*
X172447868Y-78371212D01*
X172438359Y-78375209D01*
X172249466Y-78473540D01*
X172240734Y-78479039D01*
X172220677Y-78494099D01*
X172212223Y-78505427D01*
X171190382Y-78505427D01*
X171191410Y-78503544D01*
X171184611Y-78494213D01*
X171180554Y-78491518D01*
X170994117Y-78388599D01*
X170984705Y-78384369D01*
X170783959Y-78313280D01*
X170773989Y-78310646D01*
X170564327Y-78273301D01*
X170554073Y-78272331D01*
X170341116Y-78269728D01*
X170330832Y-78270448D01*
X170120321Y-78302661D01*
X170110293Y-78305050D01*
X169907868Y-78371212D01*
X169898359Y-78375209D01*
X169709466Y-78473540D01*
X169700734Y-78479039D01*
X169680677Y-78494099D01*
X169672223Y-78505427D01*
X168650382Y-78505427D01*
X168651410Y-78503544D01*
X168644611Y-78494213D01*
X168640554Y-78491518D01*
X168454117Y-78388599D01*
X168444705Y-78384369D01*
X168243959Y-78313280D01*
X168233989Y-78310646D01*
X168024327Y-78273301D01*
X168014073Y-78272331D01*
X167801116Y-78269728D01*
X167790832Y-78270448D01*
X167580321Y-78302661D01*
X167570293Y-78305050D01*
X167367868Y-78371212D01*
X167358359Y-78375209D01*
X167169466Y-78473540D01*
X167160734Y-78479039D01*
X167140677Y-78494099D01*
X167132223Y-78505427D01*
X166110382Y-78505427D01*
X166111410Y-78503544D01*
X166104611Y-78494213D01*
X166100554Y-78491518D01*
X165914117Y-78388599D01*
X165904705Y-78384369D01*
X165703959Y-78313280D01*
X165693989Y-78310646D01*
X165484327Y-78273301D01*
X165474073Y-78272331D01*
X165261116Y-78269728D01*
X165250832Y-78270448D01*
X165040321Y-78302661D01*
X165030293Y-78305050D01*
X164827868Y-78371212D01*
X164818359Y-78375209D01*
X164629466Y-78473540D01*
X164620734Y-78479039D01*
X164600677Y-78494099D01*
X164592223Y-78505427D01*
X163570382Y-78505427D01*
X163571410Y-78503544D01*
X163564611Y-78494213D01*
X163560554Y-78491518D01*
X163374117Y-78388599D01*
X163364705Y-78384369D01*
X163163959Y-78313280D01*
X163153989Y-78310646D01*
X162944327Y-78273301D01*
X162934073Y-78272331D01*
X162721116Y-78269728D01*
X162710832Y-78270448D01*
X162500321Y-78302661D01*
X162490293Y-78305050D01*
X162287868Y-78371212D01*
X162278359Y-78375209D01*
X162089466Y-78473540D01*
X162080734Y-78479039D01*
X162060677Y-78494099D01*
X162052223Y-78505427D01*
X161030382Y-78505427D01*
X161031410Y-78503544D01*
X161024611Y-78494213D01*
X161020554Y-78491518D01*
X160834117Y-78388599D01*
X160824705Y-78384369D01*
X160623959Y-78313280D01*
X160613989Y-78310646D01*
X160404327Y-78273301D01*
X160394073Y-78272331D01*
X160181116Y-78269728D01*
X160170832Y-78270448D01*
X159960321Y-78302661D01*
X159950293Y-78305050D01*
X159747868Y-78371212D01*
X159738359Y-78375209D01*
X159549466Y-78473540D01*
X159540734Y-78479039D01*
X159520677Y-78494099D01*
X159512223Y-78505427D01*
X158490382Y-78505427D01*
X158491410Y-78503544D01*
X158484611Y-78494213D01*
X158480554Y-78491518D01*
X158294117Y-78388599D01*
X158284705Y-78384369D01*
X158083959Y-78313280D01*
X158073989Y-78310646D01*
X157864327Y-78273301D01*
X157854073Y-78272331D01*
X157641116Y-78269728D01*
X157630832Y-78270448D01*
X157420321Y-78302661D01*
X157410293Y-78305050D01*
X157207868Y-78371212D01*
X157198359Y-78375209D01*
X157009466Y-78473540D01*
X157000734Y-78479039D01*
X156980677Y-78494099D01*
X156972223Y-78505427D01*
X155950382Y-78505427D01*
X155951410Y-78503544D01*
X155944611Y-78494213D01*
X155940554Y-78491518D01*
X155754117Y-78388599D01*
X155744705Y-78384369D01*
X155543959Y-78313280D01*
X155533989Y-78310646D01*
X155324327Y-78273301D01*
X155314073Y-78272331D01*
X155101116Y-78269728D01*
X155090832Y-78270448D01*
X154880321Y-78302661D01*
X154870293Y-78305050D01*
X154667868Y-78371212D01*
X154658359Y-78375209D01*
X154469466Y-78473540D01*
X154460734Y-78479039D01*
X154440677Y-78494099D01*
X154432223Y-78505427D01*
X153410382Y-78505427D01*
X153411410Y-78503544D01*
X153404611Y-78494213D01*
X153400554Y-78491518D01*
X153214117Y-78388599D01*
X153204705Y-78384369D01*
X153003959Y-78313280D01*
X152993989Y-78310646D01*
X152784327Y-78273301D01*
X152774073Y-78272331D01*
X152561116Y-78269728D01*
X152550832Y-78270448D01*
X152340321Y-78302661D01*
X152330293Y-78305050D01*
X152127868Y-78371212D01*
X152118359Y-78375209D01*
X151929466Y-78473540D01*
X151920734Y-78479039D01*
X151900677Y-78494099D01*
X151892223Y-78505427D01*
X150870382Y-78505427D01*
X150871410Y-78503544D01*
X150864611Y-78494213D01*
X150860554Y-78491518D01*
X150674117Y-78388599D01*
X150664705Y-78384369D01*
X150463959Y-78313280D01*
X150453989Y-78310646D01*
X150244327Y-78273301D01*
X150234073Y-78272331D01*
X150021116Y-78269728D01*
X150010832Y-78270448D01*
X149800321Y-78302661D01*
X149790293Y-78305050D01*
X149587868Y-78371212D01*
X149578359Y-78375209D01*
X149389466Y-78473540D01*
X149380734Y-78479039D01*
X149360677Y-78494099D01*
X149352223Y-78505427D01*
X148330382Y-78505427D01*
X148331410Y-78503544D01*
X148324611Y-78494213D01*
X148320554Y-78491518D01*
X148134117Y-78388599D01*
X148124705Y-78384369D01*
X147923959Y-78313280D01*
X147913989Y-78310646D01*
X147704327Y-78273301D01*
X147694073Y-78272331D01*
X147481116Y-78269728D01*
X147470832Y-78270448D01*
X147260321Y-78302661D01*
X147250293Y-78305050D01*
X147047868Y-78371212D01*
X147038359Y-78375209D01*
X146849466Y-78473540D01*
X146840734Y-78479039D01*
X146820677Y-78494099D01*
X146812223Y-78505427D01*
X145790382Y-78505427D01*
X145791410Y-78503544D01*
X145784611Y-78494213D01*
X145780554Y-78491518D01*
X145594117Y-78388599D01*
X145584705Y-78384369D01*
X145383959Y-78313280D01*
X145373989Y-78310646D01*
X145164327Y-78273301D01*
X145154073Y-78272331D01*
X144941116Y-78269728D01*
X144930832Y-78270448D01*
X144720321Y-78302661D01*
X144710293Y-78305050D01*
X144507868Y-78371212D01*
X144498359Y-78375209D01*
X144309466Y-78473540D01*
X144300734Y-78479039D01*
X144280677Y-78494099D01*
X144272223Y-78505427D01*
X121078320Y-78505427D01*
X121092703Y-78485411D01*
X121174384Y-78371740D01*
X121189426Y-78341306D01*
X121281311Y-78155389D01*
X121281312Y-78155387D01*
X121283605Y-78150747D01*
X121355266Y-77914883D01*
X121385441Y-77685680D01*
X121387005Y-77673804D01*
X121387006Y-77673798D01*
X121387442Y-77670482D01*
X121389238Y-77597000D01*
X121377722Y-77456926D01*
X121369463Y-77356470D01*
X121369462Y-77356464D01*
X121369039Y-77351319D01*
X121339012Y-77231777D01*
X121310245Y-77117247D01*
X121310244Y-77117243D01*
X121308986Y-77112236D01*
X121305730Y-77104747D01*
X121212750Y-76890908D01*
X121212748Y-76890905D01*
X121210690Y-76886171D01*
X121076792Y-76679196D01*
X120910888Y-76496870D01*
X120906837Y-76493671D01*
X120906833Y-76493667D01*
X120721486Y-76347289D01*
X120717433Y-76344088D01*
X120712917Y-76341595D01*
X120712914Y-76341593D01*
X120506144Y-76227450D01*
X120506141Y-76227449D01*
X120501622Y-76224954D01*
X120338969Y-76167356D01*
X120274123Y-76144393D01*
X120274120Y-76144392D01*
X120269251Y-76142668D01*
X120264162Y-76141761D01*
X120264160Y-76141761D01*
X120211417Y-76132366D01*
X120026561Y-76099438D01*
X119934634Y-76098315D01*
X119785240Y-76096489D01*
X119785238Y-76096489D01*
X119780070Y-76096426D01*
X119536396Y-76133714D01*
X119302084Y-76210298D01*
X119083427Y-76324124D01*
X119079294Y-76327227D01*
X119079291Y-76327229D01*
X119052574Y-76347289D01*
X118886297Y-76472134D01*
X118715988Y-76650352D01*
X118577073Y-76853994D01*
X118562137Y-76886171D01*
X118475460Y-77072898D01*
X118475458Y-77072903D01*
X118473283Y-77077589D01*
X118407406Y-77315134D01*
X118381211Y-77560248D01*
X116306216Y-77560248D01*
X116297722Y-77456926D01*
X116289463Y-77356470D01*
X116289462Y-77356464D01*
X116289039Y-77351319D01*
X116259012Y-77231777D01*
X116230245Y-77117247D01*
X116230244Y-77117243D01*
X116228986Y-77112236D01*
X116225730Y-77104747D01*
X116132750Y-76890908D01*
X116132748Y-76890905D01*
X116130690Y-76886171D01*
X115996792Y-76679196D01*
X115830888Y-76496870D01*
X115826837Y-76493671D01*
X115826833Y-76493667D01*
X115641486Y-76347289D01*
X115637433Y-76344088D01*
X115632917Y-76341595D01*
X115632914Y-76341593D01*
X115426144Y-76227450D01*
X115426141Y-76227449D01*
X115421622Y-76224954D01*
X115258969Y-76167356D01*
X115194123Y-76144393D01*
X115194120Y-76144392D01*
X115189251Y-76142668D01*
X115184162Y-76141761D01*
X115184160Y-76141761D01*
X115131417Y-76132366D01*
X114946561Y-76099438D01*
X114854634Y-76098315D01*
X114705240Y-76096489D01*
X114705238Y-76096489D01*
X114700070Y-76096426D01*
X114456396Y-76133714D01*
X114222084Y-76210298D01*
X114003427Y-76324124D01*
X113999294Y-76327227D01*
X113999291Y-76327229D01*
X113972574Y-76347289D01*
X113806297Y-76472134D01*
X113635988Y-76650352D01*
X113497073Y-76853994D01*
X113482137Y-76886171D01*
X113395460Y-77072898D01*
X113395458Y-77072903D01*
X113393283Y-77077589D01*
X113327406Y-77315134D01*
X113301211Y-77560248D01*
X106677000Y-77560248D01*
X106677000Y-75437000D01*
X106697002Y-75368879D01*
X106750658Y-75322386D01*
X106803000Y-75311000D01*
X204087000Y-75311000D01*
X204155121Y-75331002D01*
G37*
%TD.AperFunction*%
%TD*%
M02*
