M48
; DRILL file {KiCad 6.0.2+dfsg-1} date 2022. szept. 14., szerda, 20:22:03 CEST
; FORMAT={-:-/ absolute / inch / decimal}
; #@! TF.CreationDate,2022-09-14T20:22:03+02:00
; #@! TF.GenerationSoftware,Kicad,Pcbnew,6.0.2+dfsg-1
; #@! TF.FileFunction,Plated,1,2,PTH
FMAT,2
INCH
; #@! TA.AperFunction,Plated,PTH,ViaDrill
T1C0.0157
; #@! TA.AperFunction,Plated,PTH,ComponentDrill
T2C0.0315
; #@! TA.AperFunction,Plated,PTH,ComponentDrill
T3C0.0394
; #@! TA.AperFunction,Plated,PTH,ComponentDrill
T4C0.0520
; #@! TA.AperFunction,Plated,PTH,ComponentDrill
T5C0.1100
%
G90
G05
T1
X4.6699Y-3.945
X5.0799Y-3.535
X6.0699Y-3.585
X6.1599Y-3.295
X6.8099Y-3.655
T2
X7.0199Y-3.515
X7.1199Y-3.515
X7.2199Y-3.515
T3
X4.0199Y-4.275
X4.0199Y-4.375
X4.1199Y-4.275
X4.1199Y-4.375
X4.2199Y-4.275
X4.2199Y-4.375
X4.3199Y-4.275
X4.3199Y-4.375
X4.4199Y-4.275
X4.4199Y-4.375
X4.5199Y-4.275
X4.5199Y-4.375
X4.6199Y-4.275
X4.6199Y-4.375
X4.7199Y-4.275
X4.7199Y-4.375
X4.8199Y-4.275
X4.8199Y-4.375
X4.9199Y-4.275
X4.9199Y-4.375
X5.0199Y-4.275
X5.0199Y-4.375
X5.1199Y-4.275
X5.1199Y-4.375
X5.2199Y-4.275
X5.2199Y-4.375
X5.3199Y-4.275
X5.3199Y-4.375
X5.4199Y-4.275
X5.4199Y-4.375
X5.5199Y-4.275
X5.5199Y-4.375
X5.6199Y-4.275
X5.6199Y-4.375
X5.7099Y-3.135
X5.7099Y-3.235
X5.7199Y-4.275
X5.7199Y-4.375
X5.8099Y-3.135
X5.8099Y-3.235
X5.8199Y-4.275
X5.8199Y-4.375
X5.9099Y-3.135
X5.9099Y-3.235
X5.9199Y-4.275
X5.9199Y-4.375
X6.0099Y-3.135
X6.0099Y-3.235
X6.0199Y-4.275
X6.0199Y-4.375
X6.1099Y-3.135
X6.1099Y-3.235
X6.1199Y-4.275
X6.1199Y-4.375
X6.2099Y-3.135
X6.2099Y-3.235
X6.3099Y-3.135
X6.3099Y-3.235
X6.4099Y-3.135
X6.4099Y-3.235
X6.5099Y-3.135
X6.5099Y-3.235
X6.6099Y-3.135
X6.6099Y-3.235
X6.7099Y-3.135
X6.7099Y-3.235
X6.8099Y-3.135
X6.8099Y-3.235
X6.9099Y-3.135
X6.9099Y-3.235
X7.0099Y-3.135
X7.0099Y-3.235
X7.1099Y-3.135
X7.1099Y-3.235
X7.2099Y-3.135
X7.2099Y-3.235
X7.3099Y-3.135
X7.3099Y-3.235
X7.9999Y-3.085
X7.9999Y-3.185
X7.9999Y-3.285
X7.9999Y-3.385
X7.9999Y-3.485
X7.9999Y-3.585
X7.9999Y-3.685
X7.9999Y-3.785
X7.9999Y-3.885
T4
X4.3199Y-3.455
X4.4199Y-3.555
X4.5199Y-3.055
X4.6199Y-3.455
X4.6199Y-3.655
X4.7199Y-3.055
X4.8199Y-3.555
X4.9199Y-3.455
T5
X4.3199Y-3.255
X4.9199Y-3.255
T0
M30
