%TF.GenerationSoftware,KiCad,Pcbnew,6.0.2+dfsg-1*%
%TF.CreationDate,2022-09-14T20:22:00+02:00*%
%TF.ProjectId,interface_board,696e7465-7266-4616-9365-5f626f617264,rev?*%
%TF.SameCoordinates,Original*%
%TF.FileFunction,Legend,Top*%
%TF.FilePolarity,Positive*%
%FSLAX46Y46*%
G04 Gerber Fmt 4.6, Leading zero omitted, Abs format (unit mm)*
G04 Created by KiCad (PCBNEW 6.0.2+dfsg-1) date 2022-09-14 20:22:00*
%MOMM*%
%LPD*%
G01*
G04 APERTURE LIST*
%ADD10C,0.300000*%
%TA.AperFunction,Profile*%
%ADD11C,0.100000*%
%TD*%
%ADD12C,0.150000*%
%ADD13C,0.120000*%
%ADD14C,0.152400*%
G04 APERTURE END LIST*
D10*
X177472000Y-95291571D02*
X177472000Y-93791571D01*
X178043428Y-93791571D01*
X178186285Y-93863000D01*
X178257714Y-93934428D01*
X178329142Y-94077285D01*
X178329142Y-94291571D01*
X178257714Y-94434428D01*
X178186285Y-94505857D01*
X178043428Y-94577285D01*
X177472000Y-94577285D01*
X179829142Y-95148714D02*
X179757714Y-95220142D01*
X179543428Y-95291571D01*
X179400571Y-95291571D01*
X179186285Y-95220142D01*
X179043428Y-95077285D01*
X178972000Y-94934428D01*
X178900571Y-94648714D01*
X178900571Y-94434428D01*
X178972000Y-94148714D01*
X179043428Y-94005857D01*
X179186285Y-93863000D01*
X179400571Y-93791571D01*
X179543428Y-93791571D01*
X179757714Y-93863000D01*
X179829142Y-93934428D01*
X181400571Y-94291571D02*
X181972000Y-94291571D01*
X181614857Y-95291571D02*
X181614857Y-94005857D01*
X181686285Y-93863000D01*
X181829142Y-93791571D01*
X181972000Y-93791571D01*
X182686285Y-95291571D02*
X182543428Y-95220142D01*
X182472000Y-95077285D01*
X182472000Y-93791571D01*
X183472000Y-95291571D02*
X183329142Y-95220142D01*
X183257714Y-95148714D01*
X183186285Y-95005857D01*
X183186285Y-94577285D01*
X183257714Y-94434428D01*
X183329142Y-94363000D01*
X183472000Y-94291571D01*
X183686285Y-94291571D01*
X183829142Y-94363000D01*
X183900571Y-94434428D01*
X183972000Y-94577285D01*
X183972000Y-95005857D01*
X183900571Y-95148714D01*
X183829142Y-95220142D01*
X183686285Y-95291571D01*
X183472000Y-95291571D01*
X184614857Y-94291571D02*
X184614857Y-95791571D01*
X184614857Y-94363000D02*
X184757714Y-94291571D01*
X185043428Y-94291571D01*
X185186285Y-94363000D01*
X185257714Y-94434428D01*
X185329142Y-94577285D01*
X185329142Y-95005857D01*
X185257714Y-95148714D01*
X185186285Y-95220142D01*
X185043428Y-95291571D01*
X184757714Y-95291571D01*
X184614857Y-95220142D01*
X185972000Y-94291571D02*
X185972000Y-95791571D01*
X185972000Y-94363000D02*
X186114857Y-94291571D01*
X186400571Y-94291571D01*
X186543428Y-94363000D01*
X186614857Y-94434428D01*
X186686285Y-94577285D01*
X186686285Y-95005857D01*
X186614857Y-95148714D01*
X186543428Y-95220142D01*
X186400571Y-95291571D01*
X186114857Y-95291571D01*
X185972000Y-95220142D01*
X187186285Y-94291571D02*
X187543428Y-95291571D01*
X187900571Y-94291571D02*
X187543428Y-95291571D01*
X187400571Y-95648714D01*
X187329142Y-95720142D01*
X187186285Y-95791571D01*
X190257714Y-95291571D02*
X190257714Y-93791571D01*
X190257714Y-95220142D02*
X190114857Y-95291571D01*
X189829142Y-95291571D01*
X189686285Y-95220142D01*
X189614857Y-95148714D01*
X189543428Y-95005857D01*
X189543428Y-94577285D01*
X189614857Y-94434428D01*
X189686285Y-94363000D01*
X189829142Y-94291571D01*
X190114857Y-94291571D01*
X190257714Y-94363000D01*
X190972000Y-95291571D02*
X190972000Y-94291571D01*
X190972000Y-93791571D02*
X190900571Y-93863000D01*
X190972000Y-93934428D01*
X191043428Y-93863000D01*
X190972000Y-93791571D01*
X190972000Y-93934428D01*
X191614857Y-95220142D02*
X191757714Y-95291571D01*
X192043428Y-95291571D01*
X192186285Y-95220142D01*
X192257714Y-95077285D01*
X192257714Y-95005857D01*
X192186285Y-94863000D01*
X192043428Y-94791571D01*
X191829142Y-94791571D01*
X191686285Y-94720142D01*
X191614857Y-94577285D01*
X191614857Y-94505857D01*
X191686285Y-94363000D01*
X191829142Y-94291571D01*
X192043428Y-94291571D01*
X192186285Y-94363000D01*
X192900571Y-95291571D02*
X192900571Y-93791571D01*
X193043428Y-94720142D02*
X193472000Y-95291571D01*
X193472000Y-94291571D02*
X192900571Y-94863000D01*
X195900571Y-95291571D02*
X195900571Y-93791571D01*
X195900571Y-95220142D02*
X195757714Y-95291571D01*
X195472000Y-95291571D01*
X195329142Y-95220142D01*
X195257714Y-95148714D01*
X195186285Y-95005857D01*
X195186285Y-94577285D01*
X195257714Y-94434428D01*
X195329142Y-94363000D01*
X195472000Y-94291571D01*
X195757714Y-94291571D01*
X195900571Y-94363000D01*
X196614857Y-95291571D02*
X196614857Y-94291571D01*
X196614857Y-94577285D02*
X196686285Y-94434428D01*
X196757714Y-94363000D01*
X196900571Y-94291571D01*
X197043428Y-94291571D01*
X197543428Y-95291571D02*
X197543428Y-94291571D01*
X197543428Y-93791571D02*
X197472000Y-93863000D01*
X197543428Y-93934428D01*
X197614857Y-93863000D01*
X197543428Y-93791571D01*
X197543428Y-93934428D01*
X198114857Y-94291571D02*
X198472000Y-95291571D01*
X198829142Y-94291571D01*
X199972000Y-95220142D02*
X199829142Y-95291571D01*
X199543428Y-95291571D01*
X199400571Y-95220142D01*
X199329142Y-95077285D01*
X199329142Y-94505857D01*
X199400571Y-94363000D01*
X199543428Y-94291571D01*
X199829142Y-94291571D01*
X199972000Y-94363000D01*
X200043428Y-94505857D01*
X200043428Y-94648714D01*
X199329142Y-94791571D01*
X180364857Y-97706571D02*
X180364857Y-96706571D01*
X180364857Y-96206571D02*
X180293428Y-96278000D01*
X180364857Y-96349428D01*
X180436285Y-96278000D01*
X180364857Y-96206571D01*
X180364857Y-96349428D01*
X181079142Y-96706571D02*
X181079142Y-97706571D01*
X181079142Y-96849428D02*
X181150571Y-96778000D01*
X181293428Y-96706571D01*
X181507714Y-96706571D01*
X181650571Y-96778000D01*
X181722000Y-96920857D01*
X181722000Y-97706571D01*
X182222000Y-96706571D02*
X182793428Y-96706571D01*
X182436285Y-96206571D02*
X182436285Y-97492285D01*
X182507714Y-97635142D01*
X182650571Y-97706571D01*
X182793428Y-97706571D01*
X183864857Y-97635142D02*
X183722000Y-97706571D01*
X183436285Y-97706571D01*
X183293428Y-97635142D01*
X183222000Y-97492285D01*
X183222000Y-96920857D01*
X183293428Y-96778000D01*
X183436285Y-96706571D01*
X183722000Y-96706571D01*
X183864857Y-96778000D01*
X183936285Y-96920857D01*
X183936285Y-97063714D01*
X183222000Y-97206571D01*
X184579142Y-97706571D02*
X184579142Y-96706571D01*
X184579142Y-96992285D02*
X184650571Y-96849428D01*
X184722000Y-96778000D01*
X184864857Y-96706571D01*
X185007714Y-96706571D01*
X185293428Y-96706571D02*
X185864857Y-96706571D01*
X185507714Y-97706571D02*
X185507714Y-96420857D01*
X185579142Y-96278000D01*
X185722000Y-96206571D01*
X185864857Y-96206571D01*
X187007714Y-97706571D02*
X187007714Y-96920857D01*
X186936285Y-96778000D01*
X186793428Y-96706571D01*
X186507714Y-96706571D01*
X186364857Y-96778000D01*
X187007714Y-97635142D02*
X186864857Y-97706571D01*
X186507714Y-97706571D01*
X186364857Y-97635142D01*
X186293428Y-97492285D01*
X186293428Y-97349428D01*
X186364857Y-97206571D01*
X186507714Y-97135142D01*
X186864857Y-97135142D01*
X187007714Y-97063714D01*
X188364857Y-97635142D02*
X188222000Y-97706571D01*
X187936285Y-97706571D01*
X187793428Y-97635142D01*
X187722000Y-97563714D01*
X187650571Y-97420857D01*
X187650571Y-96992285D01*
X187722000Y-96849428D01*
X187793428Y-96778000D01*
X187936285Y-96706571D01*
X188222000Y-96706571D01*
X188364857Y-96778000D01*
X189579142Y-97635142D02*
X189436285Y-97706571D01*
X189150571Y-97706571D01*
X189007714Y-97635142D01*
X188936285Y-97492285D01*
X188936285Y-96920857D01*
X189007714Y-96778000D01*
X189150571Y-96706571D01*
X189436285Y-96706571D01*
X189579142Y-96778000D01*
X189650571Y-96920857D01*
X189650571Y-97063714D01*
X188936285Y-97206571D01*
X191436285Y-97706571D02*
X191436285Y-96206571D01*
X191436285Y-96778000D02*
X191579142Y-96706571D01*
X191864857Y-96706571D01*
X192007714Y-96778000D01*
X192079142Y-96849428D01*
X192150571Y-96992285D01*
X192150571Y-97420857D01*
X192079142Y-97563714D01*
X192007714Y-97635142D01*
X191864857Y-97706571D01*
X191579142Y-97706571D01*
X191436285Y-97635142D01*
X193007714Y-97706571D02*
X192864857Y-97635142D01*
X192793428Y-97563714D01*
X192722000Y-97420857D01*
X192722000Y-96992285D01*
X192793428Y-96849428D01*
X192864857Y-96778000D01*
X193007714Y-96706571D01*
X193222000Y-96706571D01*
X193364857Y-96778000D01*
X193436285Y-96849428D01*
X193507714Y-96992285D01*
X193507714Y-97420857D01*
X193436285Y-97563714D01*
X193364857Y-97635142D01*
X193222000Y-97706571D01*
X193007714Y-97706571D01*
X194793428Y-97706571D02*
X194793428Y-96920857D01*
X194722000Y-96778000D01*
X194579142Y-96706571D01*
X194293428Y-96706571D01*
X194150571Y-96778000D01*
X194793428Y-97635142D02*
X194650571Y-97706571D01*
X194293428Y-97706571D01*
X194150571Y-97635142D01*
X194079142Y-97492285D01*
X194079142Y-97349428D01*
X194150571Y-97206571D01*
X194293428Y-97135142D01*
X194650571Y-97135142D01*
X194793428Y-97063714D01*
X195507714Y-97706571D02*
X195507714Y-96706571D01*
X195507714Y-96992285D02*
X195579142Y-96849428D01*
X195650571Y-96778000D01*
X195793428Y-96706571D01*
X195936285Y-96706571D01*
X197079142Y-97706571D02*
X197079142Y-96206571D01*
X197079142Y-97635142D02*
X196936285Y-97706571D01*
X196650571Y-97706571D01*
X196507714Y-97635142D01*
X196436285Y-97563714D01*
X196364857Y-97420857D01*
X196364857Y-96992285D01*
X196436285Y-96849428D01*
X196507714Y-96778000D01*
X196650571Y-96706571D01*
X196936285Y-96706571D01*
X197079142Y-96778000D01*
X178150571Y-99121571D02*
X178722000Y-99121571D01*
X178364857Y-100121571D02*
X178364857Y-98835857D01*
X178436285Y-98693000D01*
X178579142Y-98621571D01*
X178722000Y-98621571D01*
X179436285Y-100121571D02*
X179293428Y-100050142D01*
X179222000Y-99978714D01*
X179150571Y-99835857D01*
X179150571Y-99407285D01*
X179222000Y-99264428D01*
X179293428Y-99193000D01*
X179436285Y-99121571D01*
X179650571Y-99121571D01*
X179793428Y-99193000D01*
X179864857Y-99264428D01*
X179936285Y-99407285D01*
X179936285Y-99835857D01*
X179864857Y-99978714D01*
X179793428Y-100050142D01*
X179650571Y-100121571D01*
X179436285Y-100121571D01*
X180579142Y-100121571D02*
X180579142Y-99121571D01*
X180579142Y-99407285D02*
X180650571Y-99264428D01*
X180722000Y-99193000D01*
X180864857Y-99121571D01*
X181007714Y-99121571D01*
X183507714Y-99978714D02*
X183436285Y-100050142D01*
X183222000Y-100121571D01*
X183079142Y-100121571D01*
X182864857Y-100050142D01*
X182722000Y-99907285D01*
X182650571Y-99764428D01*
X182579142Y-99478714D01*
X182579142Y-99264428D01*
X182650571Y-98978714D01*
X182722000Y-98835857D01*
X182864857Y-98693000D01*
X183079142Y-98621571D01*
X183222000Y-98621571D01*
X183436285Y-98693000D01*
X183507714Y-98764428D01*
X184364857Y-100121571D02*
X184222000Y-100050142D01*
X184150571Y-99978714D01*
X184079142Y-99835857D01*
X184079142Y-99407285D01*
X184150571Y-99264428D01*
X184222000Y-99193000D01*
X184364857Y-99121571D01*
X184579142Y-99121571D01*
X184722000Y-99193000D01*
X184793428Y-99264428D01*
X184864857Y-99407285D01*
X184864857Y-99835857D01*
X184793428Y-99978714D01*
X184722000Y-100050142D01*
X184579142Y-100121571D01*
X184364857Y-100121571D01*
X185507714Y-100121571D02*
X185507714Y-99121571D01*
X185507714Y-99264428D02*
X185579142Y-99193000D01*
X185722000Y-99121571D01*
X185936285Y-99121571D01*
X186079142Y-99193000D01*
X186150571Y-99335857D01*
X186150571Y-100121571D01*
X186150571Y-99335857D02*
X186222000Y-99193000D01*
X186364857Y-99121571D01*
X186579142Y-99121571D01*
X186722000Y-99193000D01*
X186793428Y-99335857D01*
X186793428Y-100121571D01*
X187507714Y-100121571D02*
X187507714Y-99121571D01*
X187507714Y-99264428D02*
X187579142Y-99193000D01*
X187722000Y-99121571D01*
X187936285Y-99121571D01*
X188079142Y-99193000D01*
X188150571Y-99335857D01*
X188150571Y-100121571D01*
X188150571Y-99335857D02*
X188222000Y-99193000D01*
X188364857Y-99121571D01*
X188579142Y-99121571D01*
X188722000Y-99193000D01*
X188793428Y-99335857D01*
X188793428Y-100121571D01*
X189722000Y-100121571D02*
X189579142Y-100050142D01*
X189507714Y-99978714D01*
X189436285Y-99835857D01*
X189436285Y-99407285D01*
X189507714Y-99264428D01*
X189579142Y-99193000D01*
X189722000Y-99121571D01*
X189936285Y-99121571D01*
X190079142Y-99193000D01*
X190150571Y-99264428D01*
X190222000Y-99407285D01*
X190222000Y-99835857D01*
X190150571Y-99978714D01*
X190079142Y-100050142D01*
X189936285Y-100121571D01*
X189722000Y-100121571D01*
X191507714Y-100121571D02*
X191507714Y-98621571D01*
X191507714Y-100050142D02*
X191364857Y-100121571D01*
X191079142Y-100121571D01*
X190936285Y-100050142D01*
X190864857Y-99978714D01*
X190793428Y-99835857D01*
X190793428Y-99407285D01*
X190864857Y-99264428D01*
X190936285Y-99193000D01*
X191079142Y-99121571D01*
X191364857Y-99121571D01*
X191507714Y-99193000D01*
X192436285Y-100121571D02*
X192293428Y-100050142D01*
X192222000Y-99978714D01*
X192150571Y-99835857D01*
X192150571Y-99407285D01*
X192222000Y-99264428D01*
X192293428Y-99193000D01*
X192436285Y-99121571D01*
X192650571Y-99121571D01*
X192793428Y-99193000D01*
X192864857Y-99264428D01*
X192936285Y-99407285D01*
X192936285Y-99835857D01*
X192864857Y-99978714D01*
X192793428Y-100050142D01*
X192650571Y-100121571D01*
X192436285Y-100121571D01*
X193579142Y-100121571D02*
X193579142Y-99121571D01*
X193579142Y-99407285D02*
X193650571Y-99264428D01*
X193722000Y-99193000D01*
X193864857Y-99121571D01*
X194007714Y-99121571D01*
X195079142Y-100050142D02*
X194936285Y-100121571D01*
X194650571Y-100121571D01*
X194507714Y-100050142D01*
X194436285Y-99907285D01*
X194436285Y-99335857D01*
X194507714Y-99193000D01*
X194650571Y-99121571D01*
X194936285Y-99121571D01*
X195079142Y-99193000D01*
X195150571Y-99335857D01*
X195150571Y-99478714D01*
X194436285Y-99621571D01*
X197579142Y-98621571D02*
X197293428Y-98621571D01*
X197150571Y-98693000D01*
X197079142Y-98764428D01*
X196936285Y-98978714D01*
X196864857Y-99264428D01*
X196864857Y-99835857D01*
X196936285Y-99978714D01*
X197007714Y-100050142D01*
X197150571Y-100121571D01*
X197436285Y-100121571D01*
X197579142Y-100050142D01*
X197650571Y-99978714D01*
X197722000Y-99835857D01*
X197722000Y-99478714D01*
X197650571Y-99335857D01*
X197579142Y-99264428D01*
X197436285Y-99193000D01*
X197150571Y-99193000D01*
X197007714Y-99264428D01*
X196936285Y-99335857D01*
X196864857Y-99478714D01*
X199007714Y-99121571D02*
X199007714Y-100121571D01*
X198650571Y-98550142D02*
X198293428Y-99621571D01*
X199222000Y-99621571D01*
D11*
X93215000Y-97409000D02*
X106169000Y-97409000D01*
X157477000Y-116205000D02*
X157477000Y-102997000D01*
X195577000Y-102997000D02*
X204721000Y-102997000D01*
X204721000Y-74803000D02*
X204721000Y-102997000D01*
X157477000Y-116205000D02*
X93215000Y-116205000D01*
X106169000Y-97409000D02*
X106169000Y-74803000D01*
X93215000Y-116205000D02*
X93215000Y-97409000D01*
X106169000Y-74803000D02*
X204721000Y-74803000D01*
X195577000Y-102997000D02*
X195577000Y-102997000D01*
X157477000Y-102997000D02*
X195577000Y-102997000D01*
D10*
X95370285Y-101897571D02*
X95370285Y-100397571D01*
X95941714Y-100397571D01*
X96084571Y-100469000D01*
X96156000Y-100540428D01*
X96227428Y-100683285D01*
X96227428Y-100897571D01*
X96156000Y-101040428D01*
X96084571Y-101111857D01*
X95941714Y-101183285D01*
X95370285Y-101183285D01*
X97084571Y-101897571D02*
X96941714Y-101826142D01*
X96870285Y-101754714D01*
X96798857Y-101611857D01*
X96798857Y-101183285D01*
X96870285Y-101040428D01*
X96941714Y-100969000D01*
X97084571Y-100897571D01*
X97298857Y-100897571D01*
X97441714Y-100969000D01*
X97513142Y-101040428D01*
X97584571Y-101183285D01*
X97584571Y-101611857D01*
X97513142Y-101754714D01*
X97441714Y-101826142D01*
X97298857Y-101897571D01*
X97084571Y-101897571D01*
X98084571Y-100897571D02*
X98370285Y-101897571D01*
X98656000Y-101183285D01*
X98941714Y-101897571D01*
X99227428Y-100897571D01*
X100370285Y-101826142D02*
X100227428Y-101897571D01*
X99941714Y-101897571D01*
X99798857Y-101826142D01*
X99727428Y-101683285D01*
X99727428Y-101111857D01*
X99798857Y-100969000D01*
X99941714Y-100897571D01*
X100227428Y-100897571D01*
X100370285Y-100969000D01*
X100441714Y-101111857D01*
X100441714Y-101254714D01*
X99727428Y-101397571D01*
X101084571Y-101897571D02*
X101084571Y-100897571D01*
X101084571Y-101183285D02*
X101156000Y-101040428D01*
X101227428Y-100969000D01*
X101370285Y-100897571D01*
X101513142Y-100897571D01*
X96441714Y-104691571D02*
X96441714Y-103191571D01*
X96798857Y-103191571D01*
X97013142Y-103263000D01*
X97156000Y-103405857D01*
X97227428Y-103548714D01*
X97298857Y-103834428D01*
X97298857Y-104048714D01*
X97227428Y-104334428D01*
X97156000Y-104477285D01*
X97013142Y-104620142D01*
X96798857Y-104691571D01*
X96441714Y-104691571D01*
X97941714Y-104691571D02*
X97941714Y-103691571D01*
X97941714Y-103977285D02*
X98013142Y-103834428D01*
X98084571Y-103763000D01*
X98227428Y-103691571D01*
X98370285Y-103691571D01*
X98870285Y-104691571D02*
X98870285Y-103691571D01*
X98870285Y-103191571D02*
X98798857Y-103263000D01*
X98870285Y-103334428D01*
X98941714Y-103263000D01*
X98870285Y-103191571D01*
X98870285Y-103334428D01*
X99441714Y-103691571D02*
X99798857Y-104691571D01*
X100156000Y-103691571D01*
X101298857Y-104620142D02*
X101156000Y-104691571D01*
X100870285Y-104691571D01*
X100727428Y-104620142D01*
X100656000Y-104477285D01*
X100656000Y-103905857D01*
X100727428Y-103763000D01*
X100870285Y-103691571D01*
X101156000Y-103691571D01*
X101298857Y-103763000D01*
X101370285Y-103905857D01*
X101370285Y-104048714D01*
X100656000Y-104191571D01*
X193271571Y-80791857D02*
X192771571Y-80791857D01*
X192771571Y-81577571D02*
X192771571Y-80077571D01*
X193485857Y-80077571D01*
X194771571Y-81577571D02*
X194057285Y-81577571D01*
X194057285Y-80077571D01*
X195557285Y-80077571D02*
X195843000Y-80077571D01*
X195985857Y-80149000D01*
X196128714Y-80291857D01*
X196200142Y-80577571D01*
X196200142Y-81077571D01*
X196128714Y-81363285D01*
X195985857Y-81506142D01*
X195843000Y-81577571D01*
X195557285Y-81577571D01*
X195414428Y-81506142D01*
X195271571Y-81363285D01*
X195200142Y-81077571D01*
X195200142Y-80577571D01*
X195271571Y-80291857D01*
X195414428Y-80149000D01*
X195557285Y-80077571D01*
X196843000Y-81577571D02*
X196843000Y-80077571D01*
X197414428Y-80077571D01*
X197557285Y-80149000D01*
X197628714Y-80220428D01*
X197700142Y-80363285D01*
X197700142Y-80577571D01*
X197628714Y-80720428D01*
X197557285Y-80791857D01*
X197414428Y-80863285D01*
X196843000Y-80863285D01*
X198343000Y-81577571D02*
X198343000Y-80077571D01*
X198914428Y-80077571D01*
X199057285Y-80149000D01*
X199128714Y-80220428D01*
X199200142Y-80363285D01*
X199200142Y-80577571D01*
X199128714Y-80720428D01*
X199057285Y-80791857D01*
X198914428Y-80863285D01*
X198343000Y-80863285D01*
X200128714Y-80863285D02*
X200128714Y-81577571D01*
X199628714Y-80077571D02*
X200128714Y-80863285D01*
X200628714Y-80077571D01*
D12*
%TO.C,C2*%
X121414142Y-103309166D02*
X121461761Y-103356785D01*
X121509380Y-103499642D01*
X121509380Y-103594880D01*
X121461761Y-103737738D01*
X121366523Y-103832976D01*
X121271285Y-103880595D01*
X121080809Y-103928214D01*
X120937952Y-103928214D01*
X120747476Y-103880595D01*
X120652238Y-103832976D01*
X120557000Y-103737738D01*
X120509380Y-103594880D01*
X120509380Y-103499642D01*
X120557000Y-103356785D01*
X120604619Y-103309166D01*
X120604619Y-102928214D02*
X120557000Y-102880595D01*
X120509380Y-102785357D01*
X120509380Y-102547261D01*
X120557000Y-102452023D01*
X120604619Y-102404404D01*
X120699857Y-102356785D01*
X120795095Y-102356785D01*
X120937952Y-102404404D01*
X121509380Y-102975833D01*
X121509380Y-102356785D01*
%TO.C,R23*%
X96842380Y-112910857D02*
X96366190Y-113244190D01*
X96842380Y-113482285D02*
X95842380Y-113482285D01*
X95842380Y-113101333D01*
X95890000Y-113006095D01*
X95937619Y-112958476D01*
X96032857Y-112910857D01*
X96175714Y-112910857D01*
X96270952Y-112958476D01*
X96318571Y-113006095D01*
X96366190Y-113101333D01*
X96366190Y-113482285D01*
X95937619Y-112529904D02*
X95890000Y-112482285D01*
X95842380Y-112387047D01*
X95842380Y-112148952D01*
X95890000Y-112053714D01*
X95937619Y-112006095D01*
X96032857Y-111958476D01*
X96128095Y-111958476D01*
X96270952Y-112006095D01*
X96842380Y-112577523D01*
X96842380Y-111958476D01*
X95842380Y-111625142D02*
X95842380Y-111006095D01*
X96223333Y-111339428D01*
X96223333Y-111196571D01*
X96270952Y-111101333D01*
X96318571Y-111053714D01*
X96413809Y-111006095D01*
X96651904Y-111006095D01*
X96747142Y-111053714D01*
X96794761Y-111101333D01*
X96842380Y-111196571D01*
X96842380Y-111482285D01*
X96794761Y-111577523D01*
X96747142Y-111625142D01*
%TO.C,U1*%
X132904095Y-90711380D02*
X132904095Y-91520904D01*
X132951714Y-91616142D01*
X132999333Y-91663761D01*
X133094571Y-91711380D01*
X133285047Y-91711380D01*
X133380285Y-91663761D01*
X133427904Y-91616142D01*
X133475523Y-91520904D01*
X133475523Y-90711380D01*
X134475523Y-91711380D02*
X133904095Y-91711380D01*
X134189809Y-91711380D02*
X134189809Y-90711380D01*
X134094571Y-90854238D01*
X133999333Y-90949476D01*
X133904095Y-90997095D01*
X131023142Y-80151380D02*
X131689809Y-80151380D01*
X131261238Y-81151380D01*
X132499333Y-80484714D02*
X132499333Y-81151380D01*
X132261238Y-80103761D02*
X132023142Y-80818047D01*
X132642190Y-80818047D01*
X133499333Y-81151380D02*
X133023142Y-81151380D01*
X133023142Y-80151380D01*
X133785047Y-81103761D02*
X133927904Y-81151380D01*
X134166000Y-81151380D01*
X134261238Y-81103761D01*
X134308857Y-81056142D01*
X134356476Y-80960904D01*
X134356476Y-80865666D01*
X134308857Y-80770428D01*
X134261238Y-80722809D01*
X134166000Y-80675190D01*
X133975523Y-80627571D01*
X133880285Y-80579952D01*
X133832666Y-80532333D01*
X133785047Y-80437095D01*
X133785047Y-80341857D01*
X133832666Y-80246619D01*
X133880285Y-80199000D01*
X133975523Y-80151380D01*
X134213619Y-80151380D01*
X134356476Y-80199000D01*
X134975523Y-80151380D02*
X135070761Y-80151380D01*
X135166000Y-80199000D01*
X135213619Y-80246619D01*
X135261238Y-80341857D01*
X135308857Y-80532333D01*
X135308857Y-80770428D01*
X135261238Y-80960904D01*
X135213619Y-81056142D01*
X135166000Y-81103761D01*
X135070761Y-81151380D01*
X134975523Y-81151380D01*
X134880285Y-81103761D01*
X134832666Y-81056142D01*
X134785047Y-80960904D01*
X134737428Y-80770428D01*
X134737428Y-80532333D01*
X134785047Y-80341857D01*
X134832666Y-80246619D01*
X134880285Y-80199000D01*
X134975523Y-80151380D01*
X136166000Y-80151380D02*
X135975523Y-80151380D01*
X135880285Y-80199000D01*
X135832666Y-80246619D01*
X135737428Y-80389476D01*
X135689809Y-80579952D01*
X135689809Y-80960904D01*
X135737428Y-81056142D01*
X135785047Y-81103761D01*
X135880285Y-81151380D01*
X136070761Y-81151380D01*
X136166000Y-81103761D01*
X136213619Y-81056142D01*
X136261238Y-80960904D01*
X136261238Y-80722809D01*
X136213619Y-80627571D01*
X136166000Y-80579952D01*
X136070761Y-80532333D01*
X135880285Y-80532333D01*
X135785047Y-80579952D01*
X135737428Y-80627571D01*
X135689809Y-80722809D01*
%TO.C,J4*%
X138133380Y-77676333D02*
X138847666Y-77676333D01*
X138990523Y-77723952D01*
X139085761Y-77819190D01*
X139133380Y-77962047D01*
X139133380Y-78057285D01*
X138466714Y-76771571D02*
X139133380Y-76771571D01*
X138085761Y-77009666D02*
X138800047Y-77247761D01*
X138800047Y-76628714D01*
%TO.C,C1*%
X129986833Y-93858142D02*
X129939214Y-93905761D01*
X129796357Y-93953380D01*
X129701119Y-93953380D01*
X129558261Y-93905761D01*
X129463023Y-93810523D01*
X129415404Y-93715285D01*
X129367785Y-93524809D01*
X129367785Y-93381952D01*
X129415404Y-93191476D01*
X129463023Y-93096238D01*
X129558261Y-93001000D01*
X129701119Y-92953380D01*
X129796357Y-92953380D01*
X129939214Y-93001000D01*
X129986833Y-93048619D01*
X130939214Y-93953380D02*
X130367785Y-93953380D01*
X130653500Y-93953380D02*
X130653500Y-92953380D01*
X130558261Y-93096238D01*
X130463023Y-93191476D01*
X130367785Y-93239095D01*
%TO.C,C4*%
X171283333Y-97385142D02*
X171235714Y-97432761D01*
X171092857Y-97480380D01*
X170997619Y-97480380D01*
X170854761Y-97432761D01*
X170759523Y-97337523D01*
X170711904Y-97242285D01*
X170664285Y-97051809D01*
X170664285Y-96908952D01*
X170711904Y-96718476D01*
X170759523Y-96623238D01*
X170854761Y-96528000D01*
X170997619Y-96480380D01*
X171092857Y-96480380D01*
X171235714Y-96528000D01*
X171283333Y-96575619D01*
X172140476Y-96813714D02*
X172140476Y-97480380D01*
X171902380Y-96432761D02*
X171664285Y-97147047D01*
X172283333Y-97147047D01*
%TO.C,R22*%
X99382380Y-112910857D02*
X98906190Y-113244190D01*
X99382380Y-113482285D02*
X98382380Y-113482285D01*
X98382380Y-113101333D01*
X98430000Y-113006095D01*
X98477619Y-112958476D01*
X98572857Y-112910857D01*
X98715714Y-112910857D01*
X98810952Y-112958476D01*
X98858571Y-113006095D01*
X98906190Y-113101333D01*
X98906190Y-113482285D01*
X98477619Y-112529904D02*
X98430000Y-112482285D01*
X98382380Y-112387047D01*
X98382380Y-112148952D01*
X98430000Y-112053714D01*
X98477619Y-112006095D01*
X98572857Y-111958476D01*
X98668095Y-111958476D01*
X98810952Y-112006095D01*
X99382380Y-112577523D01*
X99382380Y-111958476D01*
X98477619Y-111577523D02*
X98430000Y-111529904D01*
X98382380Y-111434666D01*
X98382380Y-111196571D01*
X98430000Y-111101333D01*
X98477619Y-111053714D01*
X98572857Y-111006095D01*
X98668095Y-111006095D01*
X98810952Y-111053714D01*
X99382380Y-111625142D01*
X99382380Y-111006095D01*
%TO.C,U2*%
X118267380Y-99440904D02*
X119076904Y-99440904D01*
X119172142Y-99393285D01*
X119219761Y-99345666D01*
X119267380Y-99250428D01*
X119267380Y-99059952D01*
X119219761Y-98964714D01*
X119172142Y-98917095D01*
X119076904Y-98869476D01*
X118267380Y-98869476D01*
X118362619Y-98440904D02*
X118315000Y-98393285D01*
X118267380Y-98298047D01*
X118267380Y-98059952D01*
X118315000Y-97964714D01*
X118362619Y-97917095D01*
X118457857Y-97869476D01*
X118553095Y-97869476D01*
X118695952Y-97917095D01*
X119267380Y-98488523D01*
X119267380Y-97869476D01*
X107707380Y-102584018D02*
X107707380Y-101917351D01*
X108707380Y-102345922D01*
X108040714Y-101107827D02*
X108707380Y-101107827D01*
X107659761Y-101345922D02*
X108374047Y-101584018D01*
X108374047Y-100964970D01*
X108707380Y-100107827D02*
X108707380Y-100584018D01*
X107707380Y-100584018D01*
X107707380Y-99917351D02*
X108707380Y-99584018D01*
X107707380Y-99250684D01*
X108612142Y-98345922D02*
X108659761Y-98393541D01*
X108707380Y-98536399D01*
X108707380Y-98631637D01*
X108659761Y-98774494D01*
X108564523Y-98869732D01*
X108469285Y-98917351D01*
X108278809Y-98964970D01*
X108135952Y-98964970D01*
X107945476Y-98917351D01*
X107850238Y-98869732D01*
X107755000Y-98774494D01*
X107707380Y-98631637D01*
X107707380Y-98536399D01*
X107755000Y-98393541D01*
X107802619Y-98345922D01*
X108707380Y-97393541D02*
X108707380Y-97964970D01*
X108707380Y-97679256D02*
X107707380Y-97679256D01*
X107850238Y-97774494D01*
X107945476Y-97869732D01*
X107993095Y-97964970D01*
X108040714Y-96536399D02*
X108707380Y-96536399D01*
X107659761Y-96774494D02*
X108374047Y-97012589D01*
X108374047Y-96393541D01*
%TO.C,R20*%
X172410380Y-100718857D02*
X171934190Y-101052190D01*
X172410380Y-101290285D02*
X171410380Y-101290285D01*
X171410380Y-100909333D01*
X171458000Y-100814095D01*
X171505619Y-100766476D01*
X171600857Y-100718857D01*
X171743714Y-100718857D01*
X171838952Y-100766476D01*
X171886571Y-100814095D01*
X171934190Y-100909333D01*
X171934190Y-101290285D01*
X171505619Y-100337904D02*
X171458000Y-100290285D01*
X171410380Y-100195047D01*
X171410380Y-99956952D01*
X171458000Y-99861714D01*
X171505619Y-99814095D01*
X171600857Y-99766476D01*
X171696095Y-99766476D01*
X171838952Y-99814095D01*
X172410380Y-100385523D01*
X172410380Y-99766476D01*
X171410380Y-99147428D02*
X171410380Y-99052190D01*
X171458000Y-98956952D01*
X171505619Y-98909333D01*
X171600857Y-98861714D01*
X171791333Y-98814095D01*
X172029428Y-98814095D01*
X172219904Y-98861714D01*
X172315142Y-98909333D01*
X172362761Y-98956952D01*
X172410380Y-99052190D01*
X172410380Y-99147428D01*
X172362761Y-99242666D01*
X172315142Y-99290285D01*
X172219904Y-99337904D01*
X172029428Y-99385523D01*
X171791333Y-99385523D01*
X171600857Y-99337904D01*
X171505619Y-99290285D01*
X171458000Y-99242666D01*
X171410380Y-99147428D01*
%TO.C,C3*%
X156310142Y-93984686D02*
X156357761Y-94032305D01*
X156405380Y-94175162D01*
X156405380Y-94270400D01*
X156357761Y-94413258D01*
X156262523Y-94508496D01*
X156167285Y-94556115D01*
X155976809Y-94603734D01*
X155833952Y-94603734D01*
X155643476Y-94556115D01*
X155548238Y-94508496D01*
X155453000Y-94413258D01*
X155405380Y-94270400D01*
X155405380Y-94175162D01*
X155453000Y-94032305D01*
X155500619Y-93984686D01*
X155405380Y-93651353D02*
X155405380Y-93032305D01*
X155786333Y-93365639D01*
X155786333Y-93222781D01*
X155833952Y-93127543D01*
X155881571Y-93079924D01*
X155976809Y-93032305D01*
X156214904Y-93032305D01*
X156310142Y-93079924D01*
X156357761Y-93127543D01*
X156405380Y-93222781D01*
X156405380Y-93508496D01*
X156357761Y-93603734D01*
X156310142Y-93651353D01*
%TO.C,U4*%
X153119380Y-90296904D02*
X153928904Y-90296904D01*
X154024142Y-90249285D01*
X154071761Y-90201666D01*
X154119380Y-90106428D01*
X154119380Y-89915952D01*
X154071761Y-89820714D01*
X154024142Y-89773095D01*
X153928904Y-89725476D01*
X153119380Y-89725476D01*
X153452714Y-88820714D02*
X154119380Y-88820714D01*
X153071761Y-89058809D02*
X153786047Y-89296904D01*
X153786047Y-88677857D01*
X142388860Y-95613238D02*
X142388860Y-94946571D01*
X143388860Y-95375142D01*
X142722194Y-94137047D02*
X143388860Y-94137047D01*
X142341241Y-94375142D02*
X143055527Y-94613238D01*
X143055527Y-93994190D01*
X143388860Y-93137047D02*
X143388860Y-93613238D01*
X142388860Y-93613238D01*
X142388860Y-92946571D02*
X143388860Y-92613238D01*
X142388860Y-92279904D01*
X143293622Y-91375142D02*
X143341241Y-91422761D01*
X143388860Y-91565619D01*
X143388860Y-91660857D01*
X143341241Y-91803714D01*
X143246003Y-91898952D01*
X143150765Y-91946571D01*
X142960289Y-91994190D01*
X142817432Y-91994190D01*
X142626956Y-91946571D01*
X142531718Y-91898952D01*
X142436480Y-91803714D01*
X142388860Y-91660857D01*
X142388860Y-91565619D01*
X142436480Y-91422761D01*
X142484099Y-91375142D01*
X143388860Y-90422761D02*
X143388860Y-90994190D01*
X143388860Y-90708476D02*
X142388860Y-90708476D01*
X142531718Y-90803714D01*
X142626956Y-90898952D01*
X142674575Y-90994190D01*
X142722194Y-89565619D02*
X143388860Y-89565619D01*
X142341241Y-89803714D02*
X143055527Y-90041809D01*
X143055527Y-89422761D01*
%TO.C,U3*%
X172814860Y-90739904D02*
X173624384Y-90739904D01*
X173719622Y-90692285D01*
X173767241Y-90644666D01*
X173814860Y-90549428D01*
X173814860Y-90358952D01*
X173767241Y-90263714D01*
X173719622Y-90216095D01*
X173624384Y-90168476D01*
X172814860Y-90168476D01*
X172814860Y-89787523D02*
X172814860Y-89168476D01*
X173195813Y-89501809D01*
X173195813Y-89358952D01*
X173243432Y-89263714D01*
X173291051Y-89216095D01*
X173386289Y-89168476D01*
X173624384Y-89168476D01*
X173719622Y-89216095D01*
X173767241Y-89263714D01*
X173814860Y-89358952D01*
X173814860Y-89644666D01*
X173767241Y-89739904D01*
X173719622Y-89787523D01*
X162063380Y-95160857D02*
X162063380Y-94494190D01*
X163063380Y-94922761D01*
X162396714Y-93684666D02*
X163063380Y-93684666D01*
X162015761Y-93922761D02*
X162730047Y-94160857D01*
X162730047Y-93541809D01*
X163063380Y-92684666D02*
X163063380Y-93160857D01*
X162063380Y-93160857D01*
X163015761Y-92398952D02*
X163063380Y-92256095D01*
X163063380Y-92018000D01*
X163015761Y-91922761D01*
X162968142Y-91875142D01*
X162872904Y-91827523D01*
X162777666Y-91827523D01*
X162682428Y-91875142D01*
X162634809Y-91922761D01*
X162587190Y-92018000D01*
X162539571Y-92208476D01*
X162491952Y-92303714D01*
X162444333Y-92351333D01*
X162349095Y-92398952D01*
X162253857Y-92398952D01*
X162158619Y-92351333D01*
X162111000Y-92303714D01*
X162063380Y-92208476D01*
X162063380Y-91970380D01*
X162111000Y-91827523D01*
X162063380Y-91208476D02*
X162063380Y-91113238D01*
X162111000Y-91018000D01*
X162158619Y-90970380D01*
X162253857Y-90922761D01*
X162444333Y-90875142D01*
X162682428Y-90875142D01*
X162872904Y-90922761D01*
X162968142Y-90970380D01*
X163015761Y-91018000D01*
X163063380Y-91113238D01*
X163063380Y-91208476D01*
X163015761Y-91303714D01*
X162968142Y-91351333D01*
X162872904Y-91398952D01*
X162682428Y-91446571D01*
X162444333Y-91446571D01*
X162253857Y-91398952D01*
X162158619Y-91351333D01*
X162111000Y-91303714D01*
X162063380Y-91208476D01*
X162063380Y-90018000D02*
X162063380Y-90208476D01*
X162111000Y-90303714D01*
X162158619Y-90351333D01*
X162301476Y-90446571D01*
X162491952Y-90494190D01*
X162872904Y-90494190D01*
X162968142Y-90446571D01*
X163015761Y-90398952D01*
X163063380Y-90303714D01*
X163063380Y-90113238D01*
X163015761Y-90018000D01*
X162968142Y-89970380D01*
X162872904Y-89922761D01*
X162634809Y-89922761D01*
X162539571Y-89970380D01*
X162491952Y-90018000D01*
X162444333Y-90113238D01*
X162444333Y-90303714D01*
X162491952Y-90398952D01*
X162539571Y-90446571D01*
X162634809Y-90494190D01*
%TO.C,J3*%
X108161380Y-91138333D02*
X108875666Y-91138333D01*
X109018523Y-91185952D01*
X109113761Y-91281190D01*
X109161380Y-91424047D01*
X109161380Y-91519285D01*
X108161380Y-90757380D02*
X108161380Y-90138333D01*
X108542333Y-90471666D01*
X108542333Y-90328809D01*
X108589952Y-90233571D01*
X108637571Y-90185952D01*
X108732809Y-90138333D01*
X108970904Y-90138333D01*
X109066142Y-90185952D01*
X109113761Y-90233571D01*
X109161380Y-90328809D01*
X109161380Y-90614523D01*
X109113761Y-90709761D01*
X109066142Y-90757380D01*
%TO.C,Q1*%
X180498761Y-86907619D02*
X180403523Y-86860000D01*
X180308285Y-86764761D01*
X180165428Y-86621904D01*
X180070190Y-86574285D01*
X179974952Y-86574285D01*
X180022571Y-86812380D02*
X179927333Y-86764761D01*
X179832095Y-86669523D01*
X179784476Y-86479047D01*
X179784476Y-86145714D01*
X179832095Y-85955238D01*
X179927333Y-85860000D01*
X180022571Y-85812380D01*
X180213047Y-85812380D01*
X180308285Y-85860000D01*
X180403523Y-85955238D01*
X180451142Y-86145714D01*
X180451142Y-86479047D01*
X180403523Y-86669523D01*
X180308285Y-86764761D01*
X180213047Y-86812380D01*
X180022571Y-86812380D01*
X181403523Y-86812380D02*
X180832095Y-86812380D01*
X181117809Y-86812380D02*
X181117809Y-85812380D01*
X181022571Y-85955238D01*
X180927333Y-86050476D01*
X180832095Y-86098095D01*
D13*
%TO.C,C2*%
X118642000Y-102757248D02*
X118642000Y-103279752D01*
X120112000Y-102757248D02*
X120112000Y-103279752D01*
%TO.C,R23*%
X99665000Y-109050064D02*
X99665000Y-108595936D01*
X98195000Y-109050064D02*
X98195000Y-108595936D01*
%TO.C,U1*%
X133666000Y-90414000D02*
X137116000Y-90414000D01*
X133666000Y-81544000D02*
X135616000Y-81544000D01*
X133666000Y-81544000D02*
X131716000Y-81544000D01*
X133666000Y-90414000D02*
X131716000Y-90414000D01*
%TO.C,J4*%
X190881000Y-85459000D02*
X139821000Y-85459000D01*
X163301000Y-77649000D02*
X163301000Y-76339000D01*
X167401000Y-77649000D02*
X189581000Y-77649000D01*
X167401000Y-76339000D02*
X167401000Y-77649000D01*
X189581000Y-77649000D02*
X189581000Y-84149000D01*
X186171000Y-74949000D02*
X185171000Y-74949000D01*
X139821000Y-85459000D02*
X139821000Y-76339000D01*
X141121000Y-77649000D02*
X163301000Y-77649000D01*
X163301000Y-77649000D02*
X163301000Y-77649000D01*
X185171000Y-74949000D02*
X185671000Y-75949000D01*
X141121000Y-84149000D02*
X141121000Y-77649000D01*
X189581000Y-84149000D02*
X141121000Y-84149000D01*
X139821000Y-76339000D02*
X190881000Y-76339000D01*
X185671000Y-75949000D02*
X186171000Y-74949000D01*
X190881000Y-76339000D02*
X190881000Y-85459000D01*
%TO.C,C1*%
X130414752Y-92556000D02*
X129892248Y-92556000D01*
X130414752Y-91086000D02*
X129892248Y-91086000D01*
%TO.C,C4*%
X174468000Y-95772248D02*
X174468000Y-96294752D01*
X172998000Y-95772248D02*
X172998000Y-96294752D01*
%TO.C,R22*%
X97125000Y-109050064D02*
X97125000Y-108595936D01*
X95655000Y-109050064D02*
X95655000Y-108595936D01*
%TO.C,U2*%
X109100000Y-99488780D02*
X109100000Y-97538780D01*
X117970000Y-99488780D02*
X117970000Y-96038780D01*
X117970000Y-99488780D02*
X117970000Y-101438780D01*
X109100000Y-99488780D02*
X109100000Y-101438780D01*
%TO.C,R20*%
X174468000Y-100430064D02*
X174468000Y-99975936D01*
X172998000Y-100430064D02*
X172998000Y-99975936D01*
%TO.C,D_ACT1*%
X106260000Y-104973000D02*
X106260000Y-103053000D01*
X106260000Y-103053000D02*
X103400000Y-103053000D01*
X103400000Y-104973000D02*
X106260000Y-104973000D01*
%TO.C,C3*%
X154910000Y-93556768D02*
X154910000Y-94079272D01*
X153440000Y-93556768D02*
X153440000Y-94079272D01*
%TO.C,U4*%
X152651480Y-92518000D02*
X152651480Y-94468000D01*
X152651480Y-92518000D02*
X152651480Y-89068000D01*
X143781480Y-92518000D02*
X143781480Y-90568000D01*
X143781480Y-92518000D02*
X143781480Y-94468000D01*
%TO.C,U3*%
X172326000Y-92518000D02*
X172326000Y-89068000D01*
X172326000Y-92518000D02*
X172326000Y-94468000D01*
X163456000Y-92518000D02*
X163456000Y-90568000D01*
X163456000Y-92518000D02*
X163456000Y-94468000D01*
D14*
%TO.C,J3*%
X128013000Y-75057000D02*
X128013000Y-75819000D01*
X119250000Y-87249000D02*
X119250000Y-85217000D01*
X116710000Y-91313000D02*
X117980000Y-91313000D01*
X124965000Y-76962000D02*
X128013000Y-76962000D01*
X119250000Y-89154000D02*
X120520000Y-89154000D01*
X124965000Y-85217000D02*
X127124000Y-85217000D01*
X124965000Y-76962000D02*
X124965000Y-80518000D01*
X119250000Y-89789000D02*
X119250000Y-89154000D01*
X109725000Y-85217000D02*
X109725000Y-84074000D01*
X127124000Y-80518000D02*
X124965000Y-80518000D01*
X128013000Y-76327000D02*
X128013000Y-76962000D01*
X126870000Y-75819000D02*
X126870000Y-76327000D01*
X126870000Y-75819000D02*
X128013000Y-75819000D01*
X128013000Y-76327000D02*
X126870000Y-76327000D01*
X120520000Y-89154000D02*
X120520000Y-87249000D01*
X109725000Y-85217000D02*
X115440000Y-85217000D01*
X115440000Y-87122000D02*
X115440000Y-85217000D01*
X107566000Y-76962000D02*
X109725000Y-76962000D01*
X107566000Y-80518000D02*
X109725000Y-80518000D01*
X119250000Y-87249000D02*
X120520000Y-87249000D01*
X119250000Y-91313000D02*
X119250000Y-89789000D01*
X117980000Y-91313000D02*
X117980000Y-89789000D01*
X113662000Y-76962000D02*
X109725000Y-76962000D01*
X106677000Y-75819000D02*
X107566000Y-75819000D01*
X115440000Y-89027000D02*
X115440000Y-87122000D01*
X118742000Y-76962000D02*
X115948000Y-76962000D01*
X107566000Y-80518000D02*
X107566000Y-85217000D01*
X124965000Y-85217000D02*
X124965000Y-84074000D01*
X106677000Y-75819000D02*
X106677000Y-76327000D01*
X114170000Y-89027000D02*
X114170000Y-87122000D01*
X107566000Y-76962000D02*
X107566000Y-76327000D01*
X119250000Y-85217000D02*
X124965000Y-85217000D01*
X124838000Y-76962000D02*
X121028000Y-76962000D01*
X107566000Y-85217000D02*
X109725000Y-85217000D01*
X127124000Y-80518000D02*
X127124000Y-85217000D01*
X119250000Y-89789000D02*
X117980000Y-89789000D01*
X109725000Y-80518000D02*
X109725000Y-81280000D01*
X106677000Y-76327000D02*
X107566000Y-76327000D01*
X115440000Y-89789000D02*
X115440000Y-89027000D01*
X107566000Y-75057000D02*
X107566000Y-75819000D01*
X109725000Y-76962000D02*
X109725000Y-80518000D01*
X115440000Y-85217000D02*
X119250000Y-85217000D01*
X114170000Y-89027000D02*
X115440000Y-89027000D01*
X128013000Y-75057000D02*
X107566000Y-75057000D01*
X115440000Y-87122000D02*
X114170000Y-87122000D01*
X119250000Y-89154000D02*
X119250000Y-87249000D01*
X115440000Y-89789000D02*
X116710000Y-89789000D01*
X116710000Y-91313000D02*
X116710000Y-89789000D01*
X115440000Y-91313000D02*
X115440000Y-89789000D01*
X124965000Y-80518000D02*
X124965000Y-81280000D01*
X115440000Y-91313000D02*
X116710000Y-91313000D01*
X117980000Y-91313000D02*
X119250000Y-91313000D01*
D13*
%TO.C,Q1*%
X182645000Y-87431000D02*
X179045000Y-87431000D01*
X179045000Y-87431000D02*
G75*
G03*
X178520816Y-88158205I1799991J-1849994D01*
G01*
X183169184Y-88158205D02*
G75*
G03*
X182645000Y-87431000I-2324175J-1122789D01*
G01*
X180845000Y-91881000D02*
G75*
G03*
X183201400Y-90379807I-2J2600002D01*
G01*
X178488600Y-90379807D02*
G75*
G03*
X180845000Y-91881000I2356399J1098804D01*
G01*
%TO.C,D_PWR1*%
X106260000Y-102179000D02*
X106260000Y-100259000D01*
X106260000Y-100259000D02*
X103400000Y-100259000D01*
X103400000Y-102179000D02*
X106260000Y-102179000D01*
%TD*%
M02*
